<svg xmlns="http://www.w3.org/2000/svg" width="354" height="63" viewBox="0 0 354 63">
  <g fill="none" fill-rule="evenodd">
    <line x1="79.5" x2="79.5" y2="63" stroke="#FFF" stroke-width="1.25"/>
    <path fill="#FFF" fill-rule="nonzero" d="M44,55 C44,53.8954305 44.8954305,53 46,53 C47.1045695,53 48,53.8954305 48,55 C48,56.1045695 47.1045695,57 46,57 L46,57 C44.9001671,56.9933342 44.012101,56.0998531 44.0121212,55 M47.5151515,55 C47.5151515,54.1632049 46.8367951,53.4848485 46,53.4848485 C45.1632049,53.4848485 44.4848485,54.1632049 44.4848485,55 C44.478448,55.064488 44.478448,55.1294514 44.4848485,55.1939394 C44.5872626,55.5832078 44.840361,55.9157263 45.1882924,56.1181177 C45.5362237,56.3205092 45.950389,56.3761375 46.3393939,56.2727273 C46.9143854,56.1223087 47.3467398,55.647194 47.4424242,55.0606061 L47.4424242,54.9878788 M45.1636364,53.8484848 L46,53.8484848 C46.5454545,53.8484848 46.8363636,54.0424242 46.8363636,54.5151515 C46.8497847,54.6663652 46.8022985,54.8166816 46.7044434,54.9327423 C46.6065884,55.048803 46.4664584,55.1210079 46.3151515,55.1333333 L46.2424242,55.1333333 L46.8606061,56.1151515 L46.4848485,56.1151515 L45.9030303,55.1454545 L45.6484848,55.1454545 L45.6484848,56.1151515 L45.2242424,56.1151515 L45.1636364,53.8484848 Z M45.5878788,54.8181818 L45.9515152,54.8181818 C46.2060606,54.8181818 46.4121212,54.8181818 46.4121212,54.4909091 C46.4121212,54.1636364 46.169697,54.1757576 45.9636364,54.1757576 L45.5878788,54.1757576 L45.5878788,54.8181818 Z"/>
    <polygon fill="#FFF" fill-rule="nonzero" points="62.413 23 56.066 23 55.707 23 55.539 23.327 50.94 32.664 46.329 23.327 46.174 23 45.802 23 39.671 23 39.096 23 39.096 23.572 39.096 26.758 39.096 27.33 39.671 27.33 40.725 27.33 40.725 40.682 39.587 40.682 39 40.682 39 41.254 39 44.428 39 45 39.587 45 46.473 45 47.06 45 47.06 44.428 47.06 41.254 47.06 40.682 46.473 40.682 45.275 40.682 45.275 31.205 50.425 41.534 50.952 42.584 51.479 41.534 56.665 31.181 56.665 40.682 55.539 40.682 54.952 40.682 54.952 41.254 54.952 44.428 54.952 45 55.539 45 62.413 45 63 45 63 44.428 63 41.254 63 40.682 62.413 40.682 61.228 40.682 61.228 27.33 62.413 27.33 63 27.33 63 26.758 63 23.572 63 23"/>
    <path fill="#FFF" fill-rule="nonzero" d="M23.328,40.6931217 L21.6,40.6931217 L15.6,27.3068783 L16.8,27.3068783 L16.8,23 L7.2,23 L7.2,27.3068783 L8.52,27.3068783 L2.52,40.6931217 L0,40.6931217 L0,45 L8.7,45 L8.7,40.6931217 L7.428,40.6931217 L8.4,38.4698413 L15.6,38.4698413 L16.596,40.6931217 L15.252,40.6931217 L15.252,45 L24,45 L24,40.6931217 L23.328,40.6931217 Z M13.728,34.162963 L10.344,34.162963 L12,30.4148148 L13.728,34.162963 Z"/>
    <polygon fill="#FFF" fill-rule="nonzero" points="55.35 5 7.662 5 7 5 7 5.665 7 18.451 7 19.116 7.662 19.116 15.904 19.116 16.554 19.116 16.554 18.451 16.554 13.702 26.735 13.702 26.735 47.407 21.993 47.407 21.343 47.407 21.343 48.072 21.343 56.335 21.343 57 21.993 57 41.007 57 41.669 57 41.669 56.335 41.669 48.072 41.669 47.407 41.007 47.407 36.289 47.407 36.289 13.702 46.399 13.702 46.399 18.392 46.399 19.057 47.061 19.057 55.35 19.057 56 19.057 56 18.392 56 5.665 56 5"/>
    <polygon fill="#B1B3B6" fill-rule="nonzero" points="38 52.195 40 50 40 56 38 53.967"/>
    <polygon fill="#B1B3B6" fill-rule="nonzero" points="34 49.99 32 52 32 10 34 12.034"/>
    <polygon fill="#B1B3B6" fill-rule="nonzero" points="11.066 10 9 8 53 8 50.391 10"/>
    <polygon fill="#B1B3B6" fill-rule="nonzero" points="54 18 52 16.097 52 11.043 54 9"/>
    <g fill="#FFF" fill-rule="nonzero" transform="translate(100 8)">
      <polygon points="4.69 9.839 2.634 9.839 2.634 1.887 0 1.887 0 .181 7.325 .181 7.325 1.887 4.69 1.887"/>
      <polygon points="15.086 9.839 9.498 9.839 9.498 .181 15.086 .181 15.086 1.863 11.542 1.863 11.542 3.981 14.826 3.981 14.826 5.663 11.554 5.663 11.554 8.145 15.098 8.145"/>
      <polygon points="25.624 9.839 23.261 9.839 21.005 6.18 18.748 9.839 16.563 9.839 19.776 4.863 16.764 .157 19.067 .157 21.147 3.628 23.202 .157 25.411 .157 22.375 4.945"/>
      <path d="M33.4564327 9.83862186L32.7594237 7.48597629 29.21531 7.48597629 28.5064873 9.83862186 26.2973231 9.83862186 29.6996722.145722115 32.2159929.145722115 35.6537831 9.83862186 33.4564327 9.83862186zM32.2750615 5.82736117C31.6253073 3.74526984 31.2590822 2.55718382 31.1763862 2.29839281 31.0936902 2.0396018 31.0464354 1.81610047 31.0109943 1.65141528 30.857416 2.21605022 30.4439361 3.61587433 29.7469271 5.83912439L32.2750615 5.82736117zM43.2972548 7.15660591C43.3330706 7.95421165 42.9813663 8.72027695 42.3521579 9.21517079 41.5916832 9.76056277 40.6648585 10.0266137 39.7295138 9.96801737 38.7797581 9.98832315 37.8380103 9.79111951 36.9769189 9.39161921L36.9769189 7.48597629C37.5150511 7.7333967 38.0720416 7.93793382 38.6426523 8.09766414 39.0468507 8.20906771 39.4637347 8.26836805 39.8830921 8.27411256 40.246588 8.2965443 40.6085451 8.21053729 40.9226987 8.02708478 41.1696244 7.8473097 41.3076404 7.554725 41.2889238 7.25071174 41.2881503 7.0690518 41.2303184 6.89218447 41.1235318 6.74489294 40.9927435 6.58097707 40.8373368 6.43813773 40.662797 6.32141674 40.2532138 6.08367688 39.8312665 5.86771493 39.3987299 5.67443921 38.9233475 5.46168422 38.4751896 5.19314879 38.0637804 4.87453971 37.773165 4.62355674 37.532689 4.32025546 37.3549577 3.98053439 37.1757621 3.6145332 37.086671 3.21130418 37.095056 2.80421161 37.0478854 2.0299309 37.3722408 1.27924551 37.9692707.780936419 38.641688.258961031 39.4805473-.00415044762 40.3320131.0398530646 40.8179636.038322024 41.3021813.0976025734 41.773286.216301482 42.260335.353704703 42.73784.522671402 43.2027452.72212028L42.5411773 2.31015604C42.1272234 2.13400086 41.7007701 1.98852544 41.2652964 1.87491661 40.9599571 1.79759119 40.6469526 1.75419453 40.3320131 1.7455211 40.0099644 1.7267018 39.6916992 1.82260731 39.434171 2.01607534 39.230177 2.19321246 39.1173234 2.45253073 39.1270145 2.72186901 39.1230317 2.88801019 39.1682249 3.05164686 39.2569653 3.19239813 39.3592854 3.35382423 39.4965126 3.49046504 39.6586315 3.59234788 39.8358372 3.70998015 40.2729446 3.93348148 40.9581399 4.26285186 41.6653711 4.55761859 42.3016142 4.99867976 42.8247064 5.55680693 43.156816 6.02276179 43.3231295 6.5858115 43.2972548 7.15660591zM55.8906719 9.83862186L55.1818492 7.48597629 51.6377356 7.48597629 50.9289129 9.83862186 48.7197487 9.83862186 52.1457252.145722115 54.6620459.145722115 58.0525813 9.83862186 55.8906719 9.83862186zM54.7093007 5.82736117C54.0595466 3.74526984 53.6933215 2.55718382 53.6224392 2.29839281 53.551557 2.0396018 53.4806747 1.81610047 53.4452335 1.65141528 53.2916553 2.21605022 52.8781754 3.61587433 52.1929801 5.83912439L54.7093007 5.82736117zM68.9684512 9.83862186L66.4639443 9.83862186 65.7078667 9.09753851C64.8634519 9.67438726 63.8611201 9.97831973 62.8371347 9.96801737 61.9229664 10.0173294 61.019081 9.75603251 60.2735591 9.22693402 59.6441209 8.75834646 59.2898764 8.0087937 59.3284622 7.22718528 59.3104419 6.68571808 59.4499239 6.15059854 59.7301284 5.68620243 60.0813054 5.18647899 60.552386 4.78211046 61.100519 4.50987965 60.8049952 4.18447554 60.5618986 3.8154367 60.3798825 3.41589946 60.2185328 3.04517128 60.1418677 2.64339461 60.155422 2.23957667 60.1356267 1.61056389 60.4214998 1.01060616 60.9233133.628014457 61.5199865.189746717 62.250095-.0304269547 62.9907129.00456338104 63.6952033-.0337162204 64.3915699.169733768 64.9636028.580961546 65.4513049.936030736 65.7301716 1.50901092 65.7078667 2.11018117 65.7097113 2.62489919 65.5484868 3.12708719 65.2471319 3.54529496 64.8453981 4.03840138 64.3417475 4.43960004 63.7704179 4.72161775L65.6487981 6.55668129C66.0119549 5.93494902 66.2863097 5.26585009 66.4639443 4.56869579L68.5785987 4.56869579C68.4141943 5.16864787 68.1926676 5.75160943 67.9170309 6.30965351 67.662033 6.84287024 67.3448129 7.34430524 66.9719339 7.80358345L68.9684512 9.83862186zM61.4549303 7.03897364C61.4417288 7.39151654 61.6000788 7.72876233 61.880224 7.94474218 62.1975345 8.17702712 62.5855377 8.29334609 62.9788992 8.27411256 63.506885 8.28435045 64.027014 8.14569836 64.4792406 7.87416281L62.2818902 5.69796566C62.0464888 5.86498944 61.8425294 6.07205942 61.6793909 6.30965351 61.5252895 6.52118558 61.4463152 6.7777899 61.4549303 7.03897364L61.4549303 7.03897364zM63.8176728 2.3336825C63.8328233 2.12227572 63.7448933 1.91652315 63.5813985 1.78081079 63.4098002 1.63846234 63.189993 1.56690934 62.9670855 1.58083591 62.7168286 1.56642476 62.469635 1.64151748 62.2700765 1.79257401 62.0917312 1.93939868 61.9950473 2.16257177 62.0101748 2.39249863 62.0588742 2.88300115 62.2857184 3.33893362 62.6481153 3.67469047 62.9639253 3.5030889 63.2575038 3.29372172 63.52233 3.05123939 63.7122785 2.86903881 63.8226102 2.61974065 63.8294865 2.35720895L63.8176728 2.3336825zM74.969817 9.83862186L72.6070746 2.26310313 72.6070746 2.26310313C72.6897706 3.80408598 72.7252117 4.8274868 72.7252117 5.34506883L72.7252117 9.83862186 70.8940863 9.83862186 70.8940863.181011799 73.6939361.181011799 75.9621688 7.62713503 75.9621688 7.62713503 78.4076072.239827938 81.1956433.239827938 81.1956433 9.897438 79.317263 9.897438 79.317263 5.27448946C79.317263 5.06275136 79.317263 4.81572357 79.317263 4.5334061 79.317263 4.25108864 79.317263 3.49824205 79.4117727 2.28662958L79.317263 2.28662958 76.8127561 9.85038509 74.969817 9.83862186zM96.4589593.181011799L96.4589593 6.45081224C96.4775483 7.11095322 96.3097333 7.76304244 95.9745971 8.3329287 95.6459988 8.8711327 95.1651779 9.30079466 94.5923928 9.56806762 93.9157597 9.86516715 93.1815702 10.0097709 92.4422972 9.99154383 91.3863798 10.0593006 90.345048 9.71788831 89.536124 9.03872237 88.8277144 8.3581745 88.4487715 7.40629006 88.4965173 6.42728579L88.4965173.181011799 90.5521033.181011799 90.5521033 6.06262572C90.5074125 6.64294149 90.6660519 7.22074788 91.0010243 7.6977144 91.3978001 8.07789676 91.9413481 8.26689607 92.489552 8.21529642 93.0304061 8.2646549 93.5658105 8.07548457 93.9544523 7.6977144 94.3008123 7.21679088 94.4641205 6.62889201 94.4151871 6.03909927L94.4151871.157485343 96.4589593.181011799zM108.119093 9.83862186L105.508263 9.83862186 101.290768 2.53365737 101.290768 2.53365737C101.373464 3.82761243 101.408905 4.7451442 101.408905 5.29801591L101.408905 9.83862186 99.5187107 9.83862186 99.5187107.181011799 102.105914.181011799 106.323409 7.41539693 106.323409 7.41539693C106.252527 6.15673155 106.217085 5.27448946 106.217085 4.75690743L106.217085.181011799 108.071838.181011799 108.119093 9.83862186z"/>
      <polygon points="111.214 9.839 111.214 .181 113.27 .181 113.27 9.839"/>
      <path d="M121.95295,0.181011799 L124.02035,0.181011799 L120.724324,9.83862186 L118.491532,9.83862186 L115.195507,0.181011799 L117.27472,0.181011799 L119.094032,5.93323022 C119.200355,6.2626006 119.306679,6.66255034 119.413002,7.109553 C119.519325,7.55655566 119.590208,7.87416281 119.613835,8.05061123 C119.732673,7.33479776 119.898418,6.62749336 120.110011,5.93323022 L121.95295,0.181011799 Z"/>
      <polygon points="131.51 9.839 125.922 9.839 125.922 .181 131.51 .181 131.51 1.863 127.966 1.863 127.966 3.981 131.298 3.981 131.298 5.663 128.013 5.663 128.013 8.145 131.557 8.145"/>
      <path d="M136.271169 6.13320509L136.271169 9.83862186 134.215583 9.83862186 134.215583.181011799 137.03906.181011799C138.067615.101841529 139.094544.353353575 139.968861.898568698 140.620337 1.42793839 140.972807 2.23954137 140.913958 3.07476585 140.922561 3.6177585 140.757025 4.14933286 140.441409 4.59222224 140.099843 5.052316 139.638122 5.41034989 139.10646 5.62738629 140.57136 7.80358345 141.469202 9.15635465 141.965378 9.83862186L139.673518 9.83862186 137.310776 6.13320509 136.271169 6.13320509zM136.271169 4.46282674L136.932737 4.46282674C137.442692 4.48737658 137.948469 4.36044905 138.385824 4.09816667 138.703348 3.85657959 138.876695 3.4715347 138.846558 3.07476585 138.878369 2.68809621 138.697576 2.31455359 138.37401 2.09841794 137.918193 1.88051478 137.413662 1.78328101 136.90911 1.81610047L136.282983 1.81610047 136.271169 4.46282674zM149.585223 7.15660591C149.617152 7.95345446 149.266216 8.71784621 148.640126 9.21517079 147.875155 9.76053152 146.944664 10.026437 146.005668 9.96801737 145.059725 9.9881997 144.121843 9.79095916 143.264887 9.39161921L143.264887 7.48597629C143.801464 7.73711498 144.358768 7.94176729 144.93062 8.09766414 145.334819 8.20906771 145.751702 8.26836805 146.17106 8.27411256 146.534431 8.29512602 146.895981 8.20921588 147.210666 8.02708478 147.451421 7.84332382 147.584338 7.55215591 147.565078 7.25071174 147.568553 7.07022298 147.514815 6.89323395 147.4115 6.74489294 147.279125 6.57818109 147.119349 6.43499755 146.938951 6.32141674 146.533848 6.08290492 146.11579 5.86691503 145.686698 5.67443921 145.211315 5.46168422 144.763157 5.19314879 144.351748 4.87453971 144.061133 4.62355674 143.820657 4.32025546 143.642925 3.98053439 143.459647 3.61553903 143.366495 3.21226089 143.37121 2.80421161 143.341178 2.02291546 143.682624 1.27320072 144.29268.780936419 144.9685.265446026 145.8049.00310606389 146.655422.0398530646 147.145309.0375839247 147.633527.096868213 148.108509.216301482 148.594958.355569676 149.072346.524494796 149.537968.72212028L148.8764 2.31015604C148.45852 2.13369459 148.028117 1.98821874 147.588705 1.87491661 147.283539 1.79671482 146.970435 1.75330436 146.655422 1.7455211 146.333373 1.7267018 146.015108 1.82260731 145.75758 2.01607534 145.549179 2.18997098 145.435343 2.45154528 145.450423 2.72186901 145.442895 2.88682564 145.483958 3.05037579 145.568561 3.19239813 145.674478 3.3509265 145.811018 3.48688318 145.970227 3.59234788 146.159246 3.70998015 146.596353 3.93348148 147.281549 4.26285186 147.985602 4.55716284 148.618075 4.99840344 149.136302 5.55680693 149.464277 6.02373308 149.622624 6.58802553 149.585223 7.15660591L149.585223 7.15660591z"/>
      <polygon points="152.019 9.839 152.019 .181 154.074 .181 154.074 9.839"/>
      <polygon points="160.938 9.839 158.883 9.839 158.883 1.887 156.248 1.887 156.248 .181 163.573 .181 163.573 1.887 160.938 1.887"/>
      <polygon points="168.759 4.157 170.791 .181 173 .181 169.787 6.063 169.787 9.827 167.743 9.827 167.743 6.145 164.53 .181 166.739 .181"/>
    </g>
    <path fill="#FFF" fill-rule="nonzero" d="M15.544911 10.8699856C15.7317869 13.5648062 14.7875477 16.2162986 12.9363065 18.1951372 10.8644961 19.9984907 8.15563786 20.9094347 5.40692555 20.727143L0 20.727143 0 1.38968482 5.92864643 1.38968482C8.54450493 1.21753153 11.1167146 2.12020707 13.0430222 3.8863603 14.8027029 5.77691743 15.7067306 8.30036722 15.544911 10.8699856L15.544911 10.8699856zM13.1734524 10.952423C13.3265547 8.87577711 12.6394557 6.82423942 11.2644282 5.25246575 9.71489778 3.86857114 7.6625732 3.17492364 5.58478494 3.33285206L2.26474294 3.33285206 2.26474294 18.7839758 5.01563488 18.7839758C7.22801109 18.9587142 9.41869643 18.2461687 11.0984261 16.8054782 12.5732532 15.2221955 13.3241323 13.1041805 13.1734524 10.952423zM19.3629593 2.30827297C19.3254636 1.90458914 19.4586119 1.50359081 19.7305353 1.20125648 20.2550535.727992829 21.0557549.727992829 21.580273 1.20125648 21.8607776 1.49970982 22.0026775 1.90116458 21.9715637 2.30827297 22.0052978 2.71219118 21.8627983 3.11105347 21.580273 3.40351268 21.0602178 3.88811207 20.2505905 3.88811207 19.7305353 3.40351268 19.4604966 3.10479578 19.3273839 2.70816944 19.3629593 2.30827297L19.3629593 2.30827297zM21.7344178 20.727143L19.5171041 20.727143 19.5171041 6.22993775 21.7344178 6.22993775 21.7344178 20.727143zM29.6432322 20.727143L24.0940191 6.22993775 26.4654777 6.22993775 29.6076603 14.8269807C30.3190979 16.8408085 30.7933896 18.1480301 30.8645333 18.7486455L30.9593917 18.7486455C31.2143342 17.7630818 31.5230801 16.7920257 31.8842605 15.839783 32.4059814 14.3716122 33.5719485 11.1683304 35.3821619 6.22993775L37.7536205 6.22993775 32.2044074 20.727143 29.6432322 20.727143zM39.9235051 2.30827297C39.8860094 1.90458914 40.0191578 1.50359081 40.2910812 1.20125648 40.8155993.727992829 41.6163007.727992829 42.1408189 1.20125648 42.4213235 1.49970982 42.5632233 1.90116458 42.5321095 2.30827297 42.5658436 2.71219118 42.4233442 3.11105347 42.1408189 3.40351268 41.6207637 3.88811207 40.8111364 3.88811207 40.2910812 3.40351268 40.0210424 3.10479578 39.8879297 2.70816944 39.9235051 2.30827297L39.9235051 2.30827297zM42.2949637 20.727143L40.0776499 20.727143 40.0776499 6.22993775 42.2949637 6.22993775 42.2949637 20.727143zM56.4169995 16.7701479C56.4765704 17.9987273 55.9052129 19.173583 54.899266 19.8909923 53.6323905 20.6933685 52.1422665 21.0767681 50.6424978 20.986232 49.0795882 21.0715312 47.5206051 20.7594199 46.113012 20.0794206L46.113012 18.0420392C46.8298518 18.4041814 47.585612 18.6846792 48.3658976 18.8781899 49.140382 19.0783468 49.9370885 19.1812153 50.7373562 19.184386 51.6599438 19.2329212 52.5793686 19.0421678 53.4052471 18.6308777 53.9444896 18.3089538 54.2894057 17.743811 54.3273236 17.1200616 54.3652414 16.4963123 54.0912916 15.8940578 53.5949638 15.5100334 52.7042013 14.9071683 51.7348313 14.4277557 50.7136416 14.0850441 49.7038892 13.7510196 48.7337745 13.308745 47.8204621 12.7660457 47.2931662 12.4551925 46.8528532 12.0178696 46.5398745 11.4941544 46.2439337 10.9740699 46.0963547 10.3836907 46.113012 9.78652263 46.0786563 8.67071436 46.625306 7.61599161 47.5596017 6.99542788 48.7474569 6.24940401 50.1405311 5.89114682 51.5436521 5.97084879 53.1266753 5.97360572 54.6923681 6.29824461 56.1442817 6.92476725L55.3617004 8.70305969C54.1051427 8.14956778 52.7517204 7.84551546 51.37765 7.80802508 50.5584201 7.76253043 49.7413191 7.92889861 49.0061914 8.2908727 48.5092431 8.56130974 48.203544 9.08245404 48.2117528 9.64520138 48.1988389 9.99829332 48.3029807 10.3458335 48.5081851 10.6344502 48.7733283 10.9588826 49.1047136 11.2237961 49.4804831 11.411717 50.3040762 11.8275063 51.155925 12.1856078 52.0298011 12.4834032 53.3387734 12.8545952 54.5519742 13.5012581 55.586989 14.3794634 56.1668961 15.0384026 56.4647288 15.8962521 56.4169995 16.7701479zM59.8318998 2.30827297C59.7944042 1.90458914 59.9275525 1.50359081 60.1994759 1.20125648 60.7239941.727992829 61.5246954.727992829 62.0492136 1.20125648 62.3297182 1.49970982 62.4716181 1.90116458 62.4405043 2.30827297 62.4742384 2.71219118 62.3317389 3.11105347 62.0492136 3.40351268 61.5291584 3.88811207 60.7195311 3.88811207 60.1994759 3.40351268 59.9294372 3.10479578 59.7963244 2.70816944 59.8318998 2.30827297L59.8318998 2.30827297zM62.2033584 20.727143L60.0097592 20.727143 60.0097592 6.22993775 62.227073 6.22993775 62.2033584 20.727143zM79.5031487 13.4608752C79.6290312 15.4639611 78.9896688 17.4405152 77.7126975 18.9959577 76.4356377 20.3581676 74.6157537 21.0872172 72.7444918 20.986232 71.5237941 21.0129413 70.3200635 20.6987508 69.2703049 20.0794206 68.2375059 19.4593099 67.4124191 18.549683 66.8988464 17.4649774 66.3288732 16.207584 66.0493294 14.8394759 66.0806932 13.4608752 65.9575425 11.4672835 66.5922655 9.50039589 67.8592871 7.94934634 69.1348571 6.59335173 70.9500351 5.86876079 72.8156355 5.97084879 74.660324 5.88585491 76.4456179 6.62972139 77.6771256 7.99645342 78.9560114 9.5250472 79.6080008 11.4761424 79.5031487 13.4608752zM68.3928653 13.4608752C68.2899493 14.9569027 68.6812786 16.4454331 69.5074508 17.7005128 70.3501685 18.621372 71.5449369 19.1463756 72.7978496 19.1463756 74.0507623 19.1463756 75.2455307 18.621372 76.0882483 17.7005128 76.9250988 16.4497531 77.3212112 14.9588893 77.2146912 13.4608752 77.3205282 11.9776972 76.924028 10.501955 76.0882483 9.2683447 75.2809886 8.28386809 74.043808 7.74847153 72.7682063 7.83157863 71.5112754 7.74844744 70.2916532 8.27511695 69.4955935 9.24479116 68.6745935 10.4929593 68.2873159 11.9736459 68.3928653 13.4608752zM93.3761813 20.727143L93.3761813 11.3881635C93.4534603 10.4336206 93.1608073 9.48579796 92.5580281 8.73839 91.8734698 8.10602183 90.9522006 7.7896155 90.0205675 7.86690894 88.7913319 7.74983786 87.5725576 8.17631211 86.6886682 9.03280928 85.8693831 10.2232721 85.4921432 11.6595382 85.6215118 13.0957953L85.6215118 20.7035895 83.404198 20.7035895 83.404198 6.22993775 85.2065066 6.22993775 85.5622253 8.22021207 85.668941 8.22021207C86.1298976 7.49472368 86.7931083 6.91784376 87.5779651 6.55968734 88.428506 6.15530956 89.3623349 5.95368186 90.3051425 5.97084879 91.7439435 5.86076843 93.1691723 6.31289938 94.2773356 7.2309633 95.2566448 8.34092576 95.7364391 9.80031731 95.6053524 11.2703958L95.6053524 20.6918127 93.3761813 20.727143zM119.806087 13.4608752C119.927475 15.4653573 119.283957 17.4416701 118.003779 18.9959577 116.726719 20.3581676 114.906835 21.0872172 113.035573 20.986232 111.8151 21.011052 110.611884 20.6969956 109.561386 20.0794206 108.527672 19.4604099 107.702304 18.5504721 107.189928 17.4649774 106.610004 16.2104236 106.32612 14.8409253 106.359917 13.4608752 106.236766 11.4672835 106.871489 9.50039589 108.138511 7.94934634 109.415972 6.59609551 111.229806 5.87204133 113.094859 5.97084879 114.94242 5.88901947 116.730026 6.63203728 117.968207 7.99645342 119.247228 9.52560066 119.902958 11.4752301 119.806087 13.4608752L119.806087 13.4608752zM108.683946 13.4608752C108.587064 14.9563343 108.977903 16.4429995 109.798532 17.7005128 110.643387 18.6219499 111.840078 19.1471245 113.094859 19.1471245 114.349641 19.1471245 115.546332 18.6219499 116.391187 17.7005128 117.223136 16.4475712 117.618803 14.9583853 117.51763 13.4608752 117.618017 11.978218 117.22198 10.5042003 116.391187 9.2683447 115.5827 8.28547564 114.346397 7.75045877 113.071145 7.83157863 111.810841 7.74853052 110.587679 8.27482158 109.786675 9.24479116 108.965675 10.4929593 108.578397 11.9736459 108.683946 13.4608752zM130.252362 7.93756957L126.54103 7.93756957 126.54103 20.727143 124.335573 20.727143 124.335573 7.93756957 121.715111 7.93756957 121.715111 6.94832079 124.335573 6.14750035 124.335573 5.34667992C124.335573 1.77439268 125.916545-.0078253545 129.07849 8.36789917e-15 130.002068.0228559468 130.917129.18160663 131.79381.471096671L131.22466 2.22583557C130.522434 1.9802013 129.786903 1.84124062 129.042918 1.81364858 128.324732 1.75480943 127.626374 2.06604735 127.193181 2.63802256 126.726465 3.4402246 126.515616 4.36412484 126.588459 5.28779606L126.588459 6.22993775 130.299791 6.22993775 130.252362 7.93756957zM142.595804 12.6836083L142.595804 20.727143 140.342918 20.727143 140.342918 1.38968482 145.6787 1.38968482C147.545546 1.24656309 149.406984 1.72741601 150.967053 2.75579027 152.159952 3.77533842 152.797441 5.29492298 152.68636 6.85410662 152.785208 9.28856769 151.144044 11.4553596 148.761596 12.0358859L154.049949 20.727143 151.382058 20.727143 146.639141 12.6836083 142.595804 12.6836083zM142.595804 10.7522179L145.702415 10.7522179C146.962599 10.8611138 148.221338 10.5277295 149.259603 9.81007617 150.043817 9.07986995 150.453514 8.03660978 150.374188 6.97187433 150.462449 5.91162947 150.018874 4.87630696 149.188459 4.20433312 148.089294 3.5518985 146.812878 3.2555418 145.536413 3.3564056L142.583947 3.3564056 142.595804 10.7522179zM163.02592 20.986232C161.123363 21.0870886 159.268075 20.3757249 157.927284 19.031288 156.605251 17.5384373 155.931731 15.5866383 156.053831 13.6021965 155.960267 11.5943221 156.590925 9.61915102 157.832425 8.03178373 158.982051 6.6603358 160.708923 5.89853316 162.504199 5.97084879 164.147793 5.89140387 165.740594 6.54840295 166.843968 7.760918 167.953374 9.07625852 168.524702 10.7575876 168.444703 12.4716264L168.444703 13.8612854 158.389718 13.8612854C158.33091 15.2660586 158.790497 16.6438303 159.682163 17.7358431 160.592884 18.6561827 161.859272 19.1412684 163.15635 19.0666183 164.76023 19.0571755 166.34551 18.7246446 167.816266 18.0891463L167.816266 20.0440903C167.103033 20.3561372 166.360256 20.5967881 165.598952 20.7624733 164.751004 20.9225984 163.888983 20.9975623 163.02592 20.986232L163.02592 20.986232zM162.433055 7.85513217C161.367921 7.82019986 160.340872 8.2506111 159.622877 9.03280928 158.892528 9.92877653 158.476245 11.0368391 158.437147 12.1889839L166.073244 12.1889839C166.158947 11.0513867 165.826105 9.92154942 165.136518 9.00925574 164.472481 8.21803729 163.468023 7.7892286 162.433055 7.85513217L162.433055 7.85513217zM181.547011 16.7701479C181.606582 17.9987273 181.035225 19.173583 180.029278 19.8909923 178.756785 20.6905727 177.263847 21.0736292 175.760652 20.986232 174.197932 21.0689364 172.639597 20.7569548 171.231166 20.0794206L171.231166 18.0420392C171.952021 18.4044554 172.711739 18.6849459 173.495909 18.8781899 174.270394 19.0783468 175.0671 19.1812153 175.867368 19.184386 176.786287 19.2347016 177.702344 19.0437984 178.523401 18.6308777 179.13251 18.2977984 179.496354 17.6482416 179.460128 16.9585762 179.456413 16.3881664 179.184442 15.8522745 178.724975 15.5100334 177.829636 14.9077281 176.856431 14.4283919 175.831796 14.0850441 174.822992 13.7486376 173.853129 13.3064779 172.938616 12.7660457 172.416652 12.4484267 171.97782 12.0125747 171.658029 11.4941544 171.371105 10.9710194 171.227969 10.3820541 171.243024 9.78652263 171.213188 8.67173441 171.75878 7.61905291 172.689613 6.99542788 173.879047 6.25303254 175.270935 5.89508039 176.673664 5.97084879 178.260508 5.97365924 179.830064 6.29826238 181.286151 6.92476725L180.503569 8.70305969C179.246628 8.15071961 177.893437 7.84671928 176.519519 7.80802508 175.700009 7.75867296 174.881917 7.92524283 174.14806 8.2908727 173.64843 8.56012383 173.338546 9.08063263 173.341764 9.64520138 173.333175 9.99951699 173.441436 10.346909 173.650054 10.6344502 173.913237 10.9561243 174.240139 11.2206798 174.610495 11.411717 175.438474 11.8268404 176.294218 12.184914 177.17167 12.4834032 178.479532 12.8573107 179.692179 13.5036785 180.728858 14.3794634 181.304487 15.0402096 181.597997 15.8978608 181.547011 16.7701479zM191.341135 20.986232C189.455283 21.0705247 187.621146 20.3606675 186.289928 19.031288 184.972422 17.5358323 184.299559 15.5859378 184.416476 13.6021965 184.307525 11.5980429 184.925982 9.62155569 186.159498 8.03178373 187.309124 6.6603358 189.035995 5.89853316 190.831271 5.97084879 192.474866 5.89140387 194.067667 6.54840295 195.171041 7.760918 196.272098 9.08024554 196.838587 10.759774 196.759918 12.4716264L196.759918 13.8612854 186.645647 13.8612854C186.590168 15.267563 187.054028 16.6455028 187.949949 17.7358431 188.859796 18.6575043 190.126813 19.1428309 191.424136 19.0666183 193.028017 19.0571755 194.613296 18.7246446 196.084052 18.0891463L196.084052 20.0440903C195.37016 20.354423 194.627556 20.595018 193.866738 20.7624733 193.034343 20.9194783 192.188367 20.9944284 191.341135 20.986232zM190.736413 7.85513217C189.673245 7.81225184 188.646578 8.24432598 187.938092 9.03280928 187.207744 9.92877653 186.791461 11.0368391 186.752363 12.1889839L194.388459 12.1889839C194.463559 11.0525207 194.131774 9.92627079 193.451733 9.00925574 192.782814 8.21770386 191.774779 7.7892474 190.736413 7.85513217L190.736413 7.85513217zM209.447221 20.727143L209.008501 18.6662081 208.901786 18.6662081C208.332582 19.4427593 207.584491 20.0727032 206.720044 20.5033844 205.863932 20.854187 204.942109 21.0188278 204.016581 20.986232 202.781737 21.0607193 201.56475 20.6648313 200.613538 19.8792155 199.77575 19.0479882 199.343029 17.896172 199.427809 16.7230408 199.427809 13.7945504 201.799267 12.2596446 206.542184 12.1183233L209.020359 12.0358859 209.020359 11.1408513C209.099378 10.2392061 208.837275 9.3406708 208.285207 8.62062229 207.648839 8.02416815 206.785034 7.72817934 205.913748 7.80802508 204.471795 7.86289545 203.061072 8.24136514 201.78741 8.91504157L201.099687 7.2309633C201.852523 6.83932128 202.648246 6.53504832 203.471146 6.32415192 204.31081 6.10394708 205.175737 5.99310155 206.044178 5.99440233 207.436464 5.88544828 208.818362 6.3064647 209.909656 7.17207944 210.837227 8.16741826 211.294296 9.50789812 211.166529 10.8582088L211.166529 20.7506966 209.447221 20.727143zM204.455301 19.184386C205.649656 19.2388046 206.815969 18.8144849 207.692342 18.0067089 208.517689 17.1723953 208.948533 16.0298552 208.878071 14.862311L208.878071 13.6021965 206.660757 13.6964106C205.347742 13.651016 204.043934 13.9302407 202.866424 14.5090079 202.080133 14.9751545 201.622397 15.8389463 201.680694 16.7465944 201.633336 17.4286521 201.899231 18.0953695 202.403989 18.5602171 202.987956 19.0103178 203.717701 19.232363 204.455301 19.184386zM222.300527 5.97084879C222.885268 5.96278317 223.469308 6.01408227 224.043549 6.12394681L223.735259 8.16132822C223.210141 8.03949562 222.67366 7.97239753 222.134525 7.96112311 220.963041 7.96412642 219.854151 8.48673212 219.110915 9.38611241 218.265907 10.3685663 217.818038 11.6275131 217.854042 12.9191438L217.854042 20.6918127 215.636728 20.6918127 215.636728 6.22993775 217.462751 6.22993775 217.723612 8.91504157 217.830327 8.91504157C218.297647 8.04384437 218.968571 7.29670475 219.786781 6.73633891 220.524841 6.22914769 221.403074 5.96170691 222.300527 5.97084879L222.300527 5.97084879zM232.604514 20.986232C230.760738 21.0976954 228.962344 20.390126 227.695595 19.0548415 226.455298 17.500981 225.838557 15.5458474 225.96443 13.5668662 225.844924 11.5335135 226.496372 9.52941957 227.790453 7.94934634 229.082449 6.58118312 230.921036 5.855923 232.806088 5.97084879 233.515725 5.96889998 234.223453 6.043931 234.916686 6.19460744 235.488183 6.29439776 236.042901 6.47276299 236.56485 6.72456214L235.888984 8.58529198C235.368426 8.38448864 234.833322 8.22307904 234.28825 8.10244436 233.786761 7.98480313 233.273889 7.921623 232.758659 7.91401602 229.794336 7.91401602 228.312174 9.79044822 228.312174 13.5433126 228.217052 14.9892806 228.595578 16.4270007 229.391188 17.641629 230.145073 18.594473 231.314311 19.1291081 232.53337 19.0783951 233.818176 19.058893 235.08684 18.7908826 236.268418 18.2893514L236.268418 20.2325186C235.125395 20.7712077 233.868933 21.0296784 232.604514 20.986232zM249.738302 20.727143L249.738302 11.3881635C249.818911 10.4351716 249.530551 9.4875207 248.932006 8.73839 248.243803 8.10414641 247.318129 7.78770598 246.382689 7.86690894 245.144299 7.73251989 243.911067 8.16100362 243.027075 9.03280928 242.21287 10.2251977 241.839939 11.6610131 241.971776 13.0957953L241.971776 20.6800359 239.754462 20.6800359 239.754462.153123851 242.019205.153123851 242.019205 6.37125901C242.026939 6.9971206 241.991283 7.6227686 241.912489 8.24376562L242.019205 8.24376562C242.470865 7.5352471 243.11105 6.96462382 243.868942 6.59501766 244.726112 6.18422855 245.668232 5.97853102 246.619834 5.99440233 248.073132 5.88434493 249.513107 6.33576363 250.639457 7.25451684 251.624236 8.35253228 252.109035 9.80557266 251.979331 11.2703958L251.979331 20.6918127 249.738302 20.727143z" transform="translate(102 29)"/>
  </g>
</svg>
