<svg xmlns="http://www.w3.org/2000/svg" width="76" height="76" viewBox="0 0 76 76">
  <g fill="#FFF">
    <path d="M60.799759,36.7333333 C60.7954908,40.8023293 63.9967205,44.1528062 68.0616476,44.3337844 C72.1265746,44.5147627 75.6128812,41.4620276 75.9702241,37.4087512 C76.327567,33.3554748 73.4291537,29.739841 69.395265,29.2068 L63.7130605,7.6 L68.3996759,7.6 C70.498335,7.6 72.1996344,5.89868205 72.1996344,3.8 C72.1996344,1.70131795 70.498335,0 68.3996759,0 L5.06703489,0 C2.96837578,0 1.26707642,1.70131795 1.26707642,3.8 C1.26707642,5.89868205 2.96837578,7.6 5.06703489,7.6 L10.1336462,7.6 L10.1336462,23.7563333 C7.86203946,24.0115058 5.69951142,24.867607 3.86878132,26.2364667 C1.30127605,28.2796 0.000210181721,31.3728 0.000210181721,35.4324667 C-0.0274446196,42.1266903 2.67497833,48.5429565 7.48380847,53.2 L1.26707642,53.2 C0.567523388,53.2 0.000210181721,53.767106 0.000210181721,54.4666667 L0.000210181721,74.7333333 C0.000210181721,75.432894 0.567523388,76 1.26707642,76 L74.73294,76 C75.432493,76 76,75.432894 76,74.7333333 L76,64.6 C76,63.9004393 75.432493,63.3333333 74.73294,63.3333333 L65.8663703,63.3333333 L65.8663703,54.4666667 C65.8663703,53.767106 65.2992705,53.2 64.5997174,53.2 L27.9833177,53.2 C30.6723734,50.56134 32.739057,47.3561279 34.0328516,43.8178 C37.3489961,45.1134594 41.1193016,43.9065467 43.0666195,40.926 C44.9788782,43.8268226 48.6148371,45.0614816 51.89805,43.9248802 C55.1812628,42.7882788 57.2756608,39.5698521 56.9851619,36.1075995 C56.694663,32.6453468 54.0932427,29.8209294 50.6665364,29.2473333 L50.6665364,7.6 L61.0898225,7.6 L66.80116,29.3056 C63.3029357,30.0621725 60.8046665,33.1541967 60.799759,36.7333333 L60.799759,36.7333333 Z M3.80038207,3.8 C3.80038207,3.10043932 4.36748185,2.53333333 5.06703489,2.53333333 L68.3996759,2.53333333 C69.0992289,2.53333333 69.6663287,3.10043932 69.6663287,3.8 C69.6663287,4.49956068 69.0992289,5.06666667 68.3996759,5.06666667 L5.06703489,5.06666667 C4.36748185,5.06666667 3.80038207,4.49956068 3.80038207,3.8 Z M35.4667026,29.2524 C35.0510869,29.3234142 34.6421986,29.429345 34.2443826,29.5690667 C33.6251104,28.2727822 32.720503,27.1334581 31.5983449,26.2364667 C29.7676883,24.8672621 27.6051799,24.0107315 25.33348,23.7550667 L25.33348,19.0443333 C26.1505195,17.9845426 26.5956798,16.6851055 26.6001328,15.3469333 L26.6001328,13.8991333 C26.6001328,13.1995727 26.033033,12.6324667 25.33348,12.6324667 L25.33348,7.6 L35.4667026,7.6 L35.4667026,29.2524 Z M18.9900827,23.7968667 C18.9783012,23.0283469 18.9220522,22.2611531 18.8216179,21.4991333 L20.4480001,21.4991333 C21.2555659,21.4985314 22.0550122,21.3379516 22.8001744,21.0266667 L22.8001744,23.56 C21.5259924,23.5429478 20.2523416,23.6221284 18.9900827,23.7968667 L18.9900827,23.7968667 Z M24.0668272,15.1658 L24.0668272,15.3469333 C24.0640365,17.3444211 22.445466,18.9630092 20.4480001,18.9658 L19.0002159,18.9658 L19.0002159,18.7846667 C19.0030066,16.7871789 20.6215771,15.1685908 22.619043,15.1658 L24.0668272,15.1658 Z M12.6669518,7.6 L22.8001744,7.6 L22.8001744,12.6324667 L22.619043,12.6324667 C20.3799433,12.6397487 18.3227608,13.8666916 17.252235,15.8333333 C16.6370473,14.4284201 15.8636118,13.0982665 14.9469269,11.8686667 L12.9202824,13.3886667 C15.1640785,16.3975454 16.401624,20.0375291 16.456777,23.7905333 C15.2011165,23.6182928 13.9342313,23.5412287 12.6669518,23.56 L12.6669518,7.6 Z M5.43943082,28.2238667 C9.71438408,24.8165333 17.372567,26.5176667 17.4498329,26.5341333 C17.637242,26.5746669 17.8311509,26.5746669 18.01856,26.5341333 C18.0945591,26.5151333 25.7286757,24.8064 30.0213621,28.2200667 C31.9542743,29.7565333 32.934759,32.1834667 32.934759,35.4324667 C32.9525776,41.542798 30.4474526,47.3895286 26.0111393,51.5913333 C24.2372344,53.2919687 21.5830462,53.6875369 19.390345,52.5780667 L18.2997569,52.0334 C17.9433072,51.8552796 17.523819,51.8552796 17.1673693,52.0334 L16.0767812,52.5780667 C15.2702807,52.9827278 14.3811902,53.1955743 13.4788763,53.2 L13.4598765,53.2 C11.9664225,53.2070258 10.5294436,52.6296822 9.45598691,51.5913333 C5.02014048,47.3893103 2.51548595,41.5426081 2.53363028,35.4324667 C2.53363028,32.1872667 3.51158522,29.7666667 5.43943082,28.2238667 Z M10.1336462,55.7333333 L17.7335631,55.7333333 L17.7335631,58.2666667 L10.1336462,58.2666667 L10.1336462,55.7333333 Z M2.53372924,55.7333333 L7.60034053,55.7333333 L7.60034053,59.5333333 C7.60034053,60.232894 8.16744031,60.8 8.86699335,60.8 L19.0002159,60.8 C19.6997689,60.8 20.2668687,60.232894 20.2668687,59.5333333 L20.2668687,55.7333333 L50.6665364,55.7333333 L50.6665364,63.3333333 L2.53372924,63.3333333 L2.53372924,55.7333333 Z M65.8663703,65.8666667 L65.8663703,73.4666667 L63.3330646,73.4666667 L63.3330646,65.8666667 L65.8663703,65.8666667 Z M60.799759,73.4666667 L15.2002574,73.4666667 L15.2002574,65.8666667 L60.799759,65.8666667 L60.799759,73.4666667 Z M12.6669518,65.8666667 L12.6669518,73.4666667 L10.1336462,73.4666667 L10.1336462,65.8666667 L12.6669518,65.8666667 Z M53.1998421,63.3333333 L53.1998421,55.7333333 L55.7331477,55.7333333 L55.7331477,63.3333333 L53.1998421,63.3333333 Z M2.53372924,65.8666667 L7.60034053,65.8666667 L7.60034053,73.4666667 L2.53372924,73.4666667 L2.53372924,65.8666667 Z M73.4662872,73.4666667 L68.3996759,73.4666667 L68.3996759,65.8666667 L73.4662872,65.8666667 L73.4662872,73.4666667 Z M63.3330646,63.3333333 L58.2664533,63.3333333 L58.2664533,55.7333333 L63.3330646,55.7333333 L63.3330646,63.3333333 Z M36.7333554,41.8000783 C36.0565995,41.7978615 35.3871911,41.6595845 34.7649769,41.3934 C35.2361394,39.4415841 35.4717273,37.440341 35.4667026,35.4324667 C35.4710143,34.2620331 35.3409646,33.0949727 35.0791068,31.9542 C36.983894,31.2836864 39.1049708,31.8083059 40.4775886,33.2894411 C41.8502063,34.7705764 42.2122484,36.9253881 41.399044,38.7737837 C40.5858396,40.6221793 38.752679,41.8111871 36.7333554,41.8000783 Z M54.4664949,36.7333333 C54.4664949,39.5315761 52.1980957,41.8 49.3998836,41.8 C46.6016715,41.8 44.3332723,39.5315761 44.3332723,36.7333333 C44.3332723,33.9350906 46.6016715,31.6666667 49.3998836,31.6666667 C52.1980957,31.6666667 54.4664949,33.9350906 54.4664949,36.7333333 Z M48.1332308,29.2473333 C46.062215,29.5987783 44.2285774,30.7906558 43.0666195,32.5406667 C41.9046616,30.7906558 40.071024,29.5987783 38.0000082,29.2473333 L38.0000082,7.6 L48.1332308,7.6 L48.1332308,29.2473333 Z M68.3996759,31.6666667 C71.1978881,31.6666667 73.4662872,33.9350906 73.4662872,36.7333333 C73.4662872,39.5315761 71.1978881,41.8 68.3996759,41.8 C65.6014638,41.8 63.3330646,39.5315761 63.3330646,36.7333333 C63.3330646,33.9350906 65.6014638,31.6666667 68.3996759,31.6666667 Z"/>
    <path d="M15,31.5714286 L15,29 C9.6,29 6,30.53 6,38 L8.57142857,38 C8.57142857,32.5421429 10.2557143,31.5714286 15,31.5714286 Z"/>
    <rect width="3" height="3" x="6" y="40"/>
    <rect width="35" height="3" x="18" y="68"/>
    <rect width="3" height="3" x="55" y="68"/>
    <rect width="20" height="3" x="23" y="58"/>
    <rect width="3" height="3" x="45" y="58"/>
  </g>
</svg>
