<svg xmlns="http://www.w3.org/2000/svg" width="64" height="76" viewBox="0 0 64 76">
  <g fill="#FFF">
    <path d="M32.5 52C28.9101491 52 26 54.9101491 26 58.5 26 62.0898509 28.9101491 65 32.5 65 36.0898509 65 39 62.0898509 39 58.5 38.9931349 54.9129966 36.0870034 52.0068651 32.5 52L32.5 52zM32.5 62.5047985C30.2882109 62.5047985 28.4952015 60.7117891 28.4952015 58.5 28.4952015 56.2882109 30.2882109 54.4952015 32.5 54.4952015 34.7117891 54.4952015 36.5047985 56.2882109 36.5047985 58.5 36.5047985 60.7117891 34.7117891 62.5047985 32.5 62.5047985L32.5 62.5047985zM32.1971831 35C40.9221017 34.9933977 47.9933977 27.9221017 48 19.1971831 48 18.5359971 47.4640029 18 46.8028169 18 46.1416309 18 45.6056338 18.5359971 45.6056338 19.1971831 45.6056338 22.7533253 44.1929618 26.1638172 41.6783895 28.6783895 39.1638172 31.1929618 35.7533253 32.6056338 32.1971831 32.6056338L32.1971831 32.6056338C31.5359971 32.6056338 31 33.1416309 31 33.8028169 31 34.4640029 31.5359971 35 32.1971831 35z"/>
    <path d="M13.1188439,43.2459087 C12.4467347,43.2459087 11.9018825,43.7947141 11.9018825,44.4716998 L11.9018825,49.0316426 L8.5187298,49.0316426 C3.81396524,49.0316426 0,52.87328 0,57.61218 L0,66.0333646 C0,66.7103503 0.544852177,67.2591557 1.2169614,67.2591557 L16.4168093,67.2591557 L15.1998479,69.3307426 C15.020818,69.6957502 15.0333894,70.126473 15.2333984,70.4802566 C15.4334073,70.8340402 15.7947521,71.0647149 16.1977562,71.0958817 L21.406351,71.3165241 L23.6333904,75.3616346 C23.8495212,75.7595972 24.2661743,76.0048012 24.716486,75.999046 L24.716486,75.999046 C25.1486425,75.9964185 25.5469985,75.7631358 25.7630728,75.3861505 L29.9737593,68.0314041 C30.6548777,68.1693022 31.3478528,68.2391025 32.0425936,68.2397885 C32.7087295,68.2429409 33.3734277,68.1772211 34.0262407,68.043662 L38.2247576,75.3984084 C38.4525222,75.786143 38.8730924,76.0167815 39.3200228,75.999046 L39.3200228,75.999046 C39.761619,75.9958064 40.1668192,75.7518606 40.3787792,75.3616346 L42.6179882,71.3165241 L47.8387526,71.0958817 C48.2656746,71.0805384 48.6533484,70.8408433 48.860177,70.4643448 C49.0670055,70.0878463 49.0626991,69.6296818 48.8488306,69.2571951 L47.6318692,67.1856082 L62.7830386,67.1856082 C63.4551478,67.1856082 64,66.6368029 64,65.9598172 L64,57.61218 C64,52.87328 60.1860348,49.0316426 55.4812702,49.0316426 L52.1346264,49.0316426 L52.1346264,44.4716998 C52.1346264,43.7947141 51.5897742,43.2459087 50.917665,43.2459087 L38.4073018,43.2459087 L38.4073018,38.9311242 C44.8366607,36.9154883 49.9801216,32.0197649 52.3415098,25.6680649 C58.2104266,25.1529038 62.7133214,20.2021103 62.7100209,14.268208 L62.7100209,5.13606456 C62.7100209,4.45907885 62.1651687,3.9102735 61.4930595,3.9102735 L53.7410154,3.9102735 L53.7410154,1.22579106 C53.7410154,0.548805353 53.1961632,1.13686838e-13 52.524054,1.13686838e-13 L11.5124548,1.13686838e-13 C10.8403456,1.13686838e-13 10.2954934,0.548805353 10.2954934,1.22579106 L10.2954934,3.9102735 L2.54344932,3.9102735 C1.8713401,3.9102735 1.32648793,4.45907885 1.32648793,5.13606456 L1.32648793,14.268208 C1.32318739,20.2021103 5.82608229,25.1529038 11.694999,25.6680649 C14.0563872,32.0197649 19.1998482,36.9154883 25.6292071,38.9311242 L25.6292071,43.2459087 L13.1188439,43.2459087 Z M2.48260125,64.7707998 L2.48260125,57.61218 C2.48260125,54.2272515 5.20686214,51.4832247 8.56740825,51.4832247 L24.2662103,51.4832247 C22.8463035,53.2148878 22.0297365,55.3680072 21.941814,57.61218 L17.877163,64.7095103 L2.48260125,64.7707998 Z M24.716486,72.3216728 L23.1952843,69.5636429 C22.9920082,69.1882663 22.609226,68.946711 22.1852063,68.9262315 L18.3152691,68.7668787 L22.4651074,61.5224535 C23.3783718,64.0411512 25.2289454,66.1029819 27.6250238,67.2714136 L24.716486,72.3216728 Z M24.2783704,58.028949 C24.273468,54.8624944 26.1646758,52.0055369 29.0685619,50.7926493 C31.9724479,49.5797618 35.3158743,50.250331 37.5370234,52.4911134 C39.7581725,54.7318958 40.4186578,58.1006298 39.2099462,61.0236758 C38.0012346,63.9467218 35.1618886,65.8471604 32.0182544,65.8372767 C27.7587196,65.803618 24.3214346,62.3195155 24.3148888,58.028949 L24.2783704,58.028949 Z M41.7782848,68.9262315 C41.3542652,68.946711 40.971483,69.1882663 40.7682069,69.5636429 L39.3200228,72.3216728 L36.4479939,67.3081873 C38.8686551,66.1485266 40.7425664,64.080628 41.6687583,61.5469693 L45.745579,68.7668787 L41.7782848,68.9262315 Z M59.7893136,53.2851376 C60.938338,54.4259822 61.5793685,55.9871163 61.5662798,57.61218 L61.5662798,64.8075736 L46.2567028,64.8075736 L42.2407302,57.7102433 C42.1571508,55.4673311 41.3448125,53.3140885 39.9285035,51.581288 L55.517779,51.581288 C57.1079654,51.5651831 58.6412214,52.1767754 59.7893136,53.2851376 Z M49.7007036,49.0316426 L36.9834569,49.0316426 C33.9239868,47.3279433 30.209879,47.3279433 27.1504088,49.0316426 L14.3358053,49.0316426 L14.3358053,45.6974909 L49.7007036,45.6974909 L49.7007036,49.0316426 Z M60.2761045,6.36185562 L60.2761045,14.268208 C60.2811361,18.5467241 57.2941778,22.237037 53.1325347,23.0939037 C53.5278307,21.4314006 53.7319989,19.7286223 53.7410154,18.0191286 L53.7410154,6.36185562 L60.2761045,6.36185562 Z M3.76037008,14.268208 L3.76037008,6.36185562 L10.2954934,6.36185562 C10.2954934,17.6023597 10.0764404,19.6249149 10.8918045,23.0939037 C9.18247391,22.7354809 7.61368426,21.8836361 6.37687773,20.6423215 C4.6952717,18.9543872 3.75323956,16.6594529 3.76037008,14.268208 L3.76037008,14.268208 Z M13.4961019,23.5229305 C12.2061228,19.1345985 12.8754516,16.4868898 12.6929074,5.13606456 L12.6929074,2.45158213 L51.2705838,2.45158213 L51.2705838,18.0191286 C51.210254,27.6206438 44.1915784,35.735925 34.7574762,37.1122623 C25.323374,38.4885996 16.3072012,32.7126358 13.5447804,23.5229305 L13.4961019,23.5229305 Z M28.0631299,39.8994991 L35.973379,39.8994991 L35.973379,43.2459087 L28.0631299,43.2459087 L28.0631299,39.8994991 Z"/>
  </g>
</svg>
