<svg xmlns="http://www.w3.org/2000/svg" width="71" height="76" viewBox="0 0 71 76">
  <g fill="#FFF">
    <path d="M5.2500002,39 L67.7499998,39 C68.081579,39 68.3996325,38.8677084 68.6340945,38.6317338 C68.8685564,38.3957592 69,38.0756537 69,37.7419353 L69,32.7096773 C69,32.3759589 68.8685564,32.0558534 68.6340945,31.8198788 C68.3996325,31.5839042 68.081579,31.4514203 67.7499998,31.4516128 L65.2499998,31.4516128 L65.2499998,1.25806471 C65.2501911,0.924346293 65.1185564,0.604240822 64.8840945,0.368266226 C64.6496325,0.13229163 64.331579,0 64,0 L9,0 C8.66842098,0 8.35036746,0.13229163 8.11590552,0.368266226 C7.88144358,0.604240822 7.74980895,0.924346293 7.75000018,1.25806471 L7.75000018,31.4516128 L5.2500002,31.4516128 C4.918421,31.4514203 4.60036749,31.5839042 4.36590555,31.8198788 C4.13144361,32.0558534 4,32.3759589 4,32.7096773 L4,37.7419353 C4,38.0756537 4.13144361,38.3957592 4.36590555,38.6317338 C4.60036749,38.8677084 4.918421,39 5.2500002,39 Z M10.2500002,2.51612921 L62.7500002,2.51612921 L62.7500002,31.4516128 L30.2500002,31.4516128 L30.2500002,26.4193548 C30.2501913,26.0856363 30.1185566,25.7655309 29.8840947,25.5295563 C29.6496328,25.2935817 29.3315792,25.1610978 29,25.1612903 L19.0000001,25.1612903 C18.6684209,25.1610978 18.3503674,25.2935817 18.1159055,25.5295563 C17.8814435,25.7655309 17.7498089,26.0856363 17.7500002,26.4193548 L17.7500002,31.4516128 L10.2500002,31.4516128 L10.2500002,2.51612921 Z M27.7500001,31.4516128 L20.2500001,31.4516128 L20.2500001,27.6774193 L27.7500001,27.6774193 L27.7500001,31.4516128 Z M6.50000019,33.9677418 L66.5000002,33.9677418 L66.5000002,36.4838708 L6.50000019,36.4838708 L6.50000019,33.9677418 Z"/>
    <rect width="5" height="3" x="20" y="47"/>
    <rect width="5" height="3" x="46" y="47"/>
    <path d="M69.7321431,44.5185185 L56.2220047,44.5185185 L55.732474,42.8977133 C55.571375,42.3650755 55.0778066,42 54.5178574,42 L41.8392859,42 C41.2793366,42 40.7857683,42.3650755 40.6246693,42.8977133 L40.1351385,44.5185185 L30.8648619,44.5185185 L30.3753311,42.8977133 C30.2142321,42.3650755 29.7206638,42 29.1607145,42 L16.4821431,42 C15.9221938,42 15.4286254,42.3650755 15.2675264,42.8977133 L14.7779957,44.5185185 L1.26785735,44.5185185 C0.931541306,44.5183258 0.608944169,44.6509356 0.371132771,44.8871343 C0.133321374,45.1233329 0,45.4437424 0,45.7777778 L0,50.8148148 C0,51.1488501 0.133321374,51.4692596 0.371132771,51.7054583 C0.608944169,51.941657 0.931541306,52.0742667 1.26785735,52.074074 L2.5357145,52.074074 L2.5357145,74.7407405 C2.53552053,75.0747759 2.66903566,75.3951853 2.90684706,75.631384 C3.14465845,75.8675827 3.46725559,76 3.80357164,76 L6.33928593,76 C6.98817283,76 7.53228102,75.5133207 7.59971343,74.8723237 L10.015948,52.074074 L12.495791,52.074074 L11.463955,55.4903058 C11.4288853,55.6076708 11.4109557,55.7294273 11.4107145,55.8518518 L11.4107145,59.6296295 C11.4163995,61.2630851 12.4805445,62.7070876 14.0464865,63.2062674 L15.2204762,74.8661754 C15.2854508,75.5098498 15.8308248,76 16.4821431,76 L19.0178574,76 C19.6691756,76 20.2145496,75.5098498 20.2795242,74.8661754 L21.4332393,63.4074073 L24.2096182,63.4074073 L25.3633334,74.8661754 C25.4283079,75.5098498 25.9736819,76 26.6250002,76 L29.1607145,76 C29.8120328,76 30.3574068,75.5098498 30.4223813,74.8661754 L31.5962934,63.2062674 C33.1622861,62.7071422 34.2264796,61.2631164 34.2321431,59.6296295 L34.2321431,55.8518518 C34.2319019,55.7294273 34.2139723,55.6076708 34.1789026,55.4903058 L33.1470666,52.074074 L37.8529339,52.074074 L36.8210978,55.4903058 C36.7860281,55.6076708 36.7680985,55.7294273 36.7678574,55.8518518 L36.7678574,59.6296295 C36.7735423,61.2630851 37.8376873,62.7070876 39.4036293,63.2062674 L40.5776191,74.8661754 C40.6425937,75.5098498 41.1879676,76 41.8392859,76 L44.3750002,76 C45.0263185,76 45.5716925,75.5098498 45.636667,74.8661754 L46.7903822,63.4074073 L49.5667611,63.4074073 L50.7204762,74.8661754 C50.7854508,75.5098498 51.3308248,76 51.9821431,76 L54.5178574,76 C55.1691756,76 55.7145496,75.5098498 55.7795242,74.8661754 L56.9534363,63.2062674 C58.5194289,62.7071422 59.5836225,61.2631164 59.5892859,59.6296295 L59.5892859,55.8518518 C59.5890447,55.7294273 59.5711151,55.6076708 59.5360454,55.4903058 L58.5042094,52.074074 L60.9840524,52.074074 L63.400287,74.8723237 C63.4677194,75.5133207 64.0118276,76 64.6607145,76 L67.1964288,76 C67.5327448,76 67.855342,75.8675827 68.0931534,75.631384 C68.3309648,75.3951853 68.4644799,75.0747759 68.4642859,74.7407405 L68.4642859,52.074074 L69.7321431,52.074074 C70.0684591,52.0742667 70.3910563,51.941657 70.6288677,51.7054583 C70.866679,51.4692596 71,51.1488501 71,50.8148148 L71,45.7777778 C71,45.4437424 70.866679,45.1233329 70.6288677,44.8871343 C70.3910563,44.6509356 70.0684591,44.5183258 69.7321431,44.5185185 L69.7321431,44.5185185 Z M5.19772003,73.4814813 L5.07142878,73.4814813 L5.07142878,52.074074 L7.46715579,52.074074 L5.19772003,73.4814813 Z M2.5357145,49.5555555 L2.5357145,47.037037 L14.0172354,47.037037 L13.256556,49.5555555 L2.5357145,49.5555555 Z M17.8700996,73.4814813 L17.6299009,73.4814813 L16.615398,63.4074073 L18.8846024,63.4074073 L17.8700996,73.4814813 Z M27.772758,73.4814813 L26.7582552,63.4074073 L29.0274595,63.4074073 L28.0129567,73.4814813 L27.772758,73.4814813 Z M31.6964288,59.6296295 C31.6959559,60.3249046 31.1285938,60.8884191 30.4285716,60.8888888 L15.2142859,60.8888888 C14.5142637,60.8884191 13.9469017,60.3249046 13.9464288,59.6296295 L13.9464288,56.0363144 L17.4256063,44.5185185 L28.2172513,44.5185185 L31.6964288,56.0363144 L31.6964288,59.6296295 Z M32.3863016,49.5555555 L31.6256174,47.037037 L39.3743735,47.037037 L38.6136989,49.5555555 L32.3863016,49.5555555 Z M43.2272377,73.4814813 L42.987039,73.4814813 L41.9725361,63.4074073 L44.2417405,63.4074073 L43.2272377,73.4814813 Z M53.1298961,73.4814813 L52.1153933,63.4074073 L54.3845976,63.4074073 L53.3700948,73.4814813 L53.1298961,73.4814813 Z M57.0535716,59.6296295 C57.0530987,60.3249046 56.4857367,60.8884191 55.7857145,60.8888888 L40.5714288,60.8888888 C39.8714066,60.8884191 39.3040446,60.3249046 39.3035716,59.6296295 L39.3035716,56.0363144 L42.7827491,44.5185185 L53.5743941,44.5185185 L57.0535716,56.0363144 L57.0535716,59.6296295 Z M65.9285716,73.4814813 L65.8022804,73.4814813 L63.5328446,52.074074 L65.9285716,52.074074 L65.9285716,73.4814813 Z M68.4642859,49.5555555 L57.7434444,49.5555555 L56.9827602,47.037037 L68.4642859,47.037037 L68.4642859,49.5555555 Z"/>
  </g>
</svg>
