<svg xmlns="http://www.w3.org/2000/svg" width="50" height="76" viewBox="0 0 50 76">
  <g fill="#FFF">
    <path d="M38.8435112,46.0678782 C48.7816033,39.4213185 52.6604817,26.6376526 48.1049591,15.5448135 C43.5494365,4.45197443 31.8304217,-1.85533544 20.1239206,0.485093586 C8.41741958,2.82552261 -0.010664728,13.160753 0.000253086825,25.1621235 C-0.0376303115,33.5617846 4.17959855,41.4031389 11.1911099,45.9694982 C14.6406556,48.3501304 16.7923194,52.2089972 17.012668,56.4100781 C16.3372147,56.4100781 15.7896516,56.960656 15.7896516,57.6398284 L15.7896516,69.9373311 C15.8356863,73.266289 18.5083934,75.9537119 21.8191226,76 L28.0565063,76 C31.3864912,76 34.0859773,73.2856507 34.0859773,69.9373311 L34.0859773,57.6398284 C34.0912184,57.0184856 33.6346745,56.4908332 33.021953,56.4100781 C33.2461179,52.2366464 35.4004476,48.4094051 38.8435112,46.0678782 Z M22.7241547,40.0052094 L23.7637187,40.0052094 L23.7637187,47.260736 C23.7637187,47.9399083 24.3112818,48.4904863 24.9867351,48.4904863 C25.6621884,48.4904863 26.2097515,47.9399083 26.2097515,47.260736 L26.2097515,40.0052094 L27.2493155,40.0052094 L27.2493155,56.3239956 L22.7241547,56.3239956 L22.7241547,40.0052094 Z M23.0299088,37.5457088 L24.9867351,33.7949705 L26.9435614,37.5457088 L23.0299088,37.5457088 Z M31.6888651,58.8572811 L31.6888651,61.9193593 L18.2356845,61.9193593 L18.2356845,58.8572811 L31.6888651,58.8572811 Z M30.637071,72.5321042 C29.9667221,73.2092501 29.0556303,73.5898554 28.105427,73.5896895 L21.8680432,73.5896895 C19.8917514,73.5829418 18.2913159,71.9736944 18.2846051,69.9865211 L18.2846051,64.3788599 L31.7377858,64.3788599 L31.7377858,69.9619261 C31.7373119,70.9342565 31.3392959,71.8636271 30.637071,72.5321042 L30.637071,72.5321042 Z M30.637071,56.4223756 L29.744269,56.4223756 L29.744269,37.8408489 C29.745056,37.6441832 29.6989218,37.450196 29.6097372,37.2751638 L26.1241404,30.5730248 C25.9135325,30.1642563 25.4935002,29.9080021 25.0356558,29.9089596 C24.5822118,29.9125777 24.1679778,30.1681663 23.9594013,30.5730248 L20.4615744,37.2751638 C20.3723898,37.450196 20.3262556,37.6441832 20.3270426,37.8408489 L20.3270426,56.3977806 L19.4831612,56.3977806 C19.2472614,51.373885 16.67385,46.7545072 12.5364279,43.9281128 C6.21316525,39.8039881 2.41124623,32.7282363 2.44629881,25.149826 C2.43948719,14.3212644 10.0475594,4.99861112 20.611021,2.89173847 C31.1744826,0.784865823 41.7454653,6.48172348 45.8495288,16.4931406 C49.9535922,26.5045577 46.4454452,38.0367208 37.4737328,44.0264928 C33.3731898,46.8336553 30.8231126,51.4153649 30.5881503,56.3977806 L30.637071,56.4223756 Z"/>
    <path d="M26 6.19418063C26 5.5347527 25.4642469 5.00018074 24.8033619 5.00018074 19.3778749 4.97729799 14.17017 7.12805278 10.3479736 10.9701802 9.88400879 11.4358849 9.88400879 12.1880154 10.3479736 12.65372 10.5738018 12.8772207 10.8795167 13.0018149 11.1975867 13 11.5156567 13.0018149 11.8213716 12.8772207 12.0471997 12.65372 15.4204634 9.26409959 20.0160016 7.367135 24.8033619 7.38818053 25.1207301 7.38818053 25.4250996 7.26238447 25.6495128 7.03846605 25.873926 6.81454764 26 6.51084909 26 6.19418063zM34.0574903 12L24.8987369 12C24.2287714 12 23.685657 12.557033 23.685657 13.244168 23.685657 13.931303 24.2287714 14.4883359 24.8987369 14.4883359L34.0574903 14.4883359C34.8949472 14.4883359 35.5738402 15.1846271 35.5738402 16.0435459 35.5738402 16.9024646 34.8949472 17.5987558 34.0574903 17.5987558L19.0880841 17.5987558C18.0070525 17.6072866 16.973326 18.054636 16.2130847 18.8429238 15.4358012 19.6217061 14.9983265 20.6895787 15 21.8040435 15.0066904 24.1079569 16.829598 25.9720164 19.0759533 25.9720062L22.9699399 25.9720062C23.3866716 25.9849669 23.7215433 26.3284206 23.7341802 26.755832 23.7341802 27.442967 24.2772946 28 24.9472601 28 25.6172257 28 26.16034 27.442967 26.16034 26.755832 26.16034 24.948667 24.7319492 23.4836703 22.9699399 23.4836703L19.0880841 23.4836703C18.467126 23.5384327 17.8690808 23.2296222 17.5421531 22.6854032 17.2152254 22.1411842 17.2152254 21.4544612 17.5421531 20.9102422 17.8690808 20.3660233 18.467126 20.0572127 19.0880841 20.1119751L34.0574903 20.1119751C36.2348783 20.1119751 38 18.301618 38 16.0684292 38 13.8352405 36.2348783 12.0248834 34.0574903 12.0248834L34.0574903 12z"/>
  </g>
</svg>
