<svg xmlns="http://www.w3.org/2000/svg" width="377" height="138" viewBox="0 0 277 106">
  <g fill="none">
    <path fill="#FFF" d="M19.3080117,88.9641428 L19.2324399,88.8957359 C18.1994784,87.9681036 17.4156403,86.8003936 16.9411195,85.5010984 L16.9354077,85.4823628 C11.6049573,70.8345737 13.7837986,56.1414706 18.4934176,43.5959953 C24.7663191,26.8803139 35.5313508,13.9784256 39.0076551,10.0780999 L39.8240066,9.17905038 L38.9760203,10.0645057 C28.0642387,21.633026 21.067693,32.1838087 16.799642,41.6139383 C9.03024254,58.7853752 10.3132062,72.2406186 13.4982074,81.3648779 C11.5232342,77.7140413 10.4555624,74.4196177 9.18534054,73.0950511 C1.50161846,65.0809877 -0.0823144149,56.3510484 2.95022503,54.8630896 C3.74109304,54.475741 4.81535542,54.9554607 5.8439232,55.4351803 C7.07416233,56.009014 8.23937453,56.5828476 8.77716477,55.6726438 C10.2112721,53.2509527 2.47570422,45.7837087 1.02050709,41.2514253 C-0.0471647256,37.9291161 -0.298485004,32.7454423 0.919012359,31.9049526 C1.76963484,31.315869 2.50865706,31.6125893 3.21252959,31.9097454 C4.00471571,32.243937 4.75208598,32.5781287 5.56316506,31.6487535 C6.55526504,30.5167719 -2.36704422,18.3843523 6.15895229,15.2820779 C6.27758249,15.2389424 6.40016703,15.1975497 6.52626654,15.1578998 C9.72313079,14.1466107 11.93141,16.5317019 13.6585779,18.9167932 C15.222739,21.0774924 16.3927843,23.2377558 17.5452548,22.8743715 C19.796153,22.1615455 18.0931505,13.1688714 23.7768553,7.59061622 C23.8919705,7.47650307 24.0145551,7.36587562 24.1362609,7.25851601 C28.0998277,3.82226793 34.8973383,4.6874626 34.8973383,4.6874626 C34.9636833,4.60467719 35.026074,4.52524677 35.092419,4.44917134 C38.7040496,0.1375329 41.77086,2.81934447 41.77086,2.81934447 C41.77086,2.81934447 41.6487148,1.49364506 45.1140348,0.40031122 C52.1795617,-1.83110415 49.0776017,6.56316214 49.0776017,6.56316214 C49.0776017,6.56316214 51.3276212,5.01951924 52.2318469,7.83648889 C52.608388,8.68395006 51.4089048,10.2656307 50.438334,11.7079268 C49.6672377,12.8603868 49.0393764,13.9226544 49.4752325,14.455531 C49.4752325,14.455531 52.6365077,11.9436909 53.7806301,15.5143128 C54.0846749,16.9430147 53.6760598,18.186103 52.8245585,19.3071917 C49.0705717,24.2516593 36.6978811,26.7635429 38.8925398,31.8670456 C43.6417022,27.6458611 54.0148149,27.16832 55.050852,30.396951 C55.5359177,31.9049526 51.4818404,34.3096509 49.8069577,37.3478754 C48.7463158,39.2684969 45.4870609,40.5246566 44.0845883,42.3306857 C44.9707998,44.6212272 44.4510238,45.8460156 36.8231019,48.7077765 C34.0818655,49.7369299 31.3863237,51.3094169 29.1121388,52.9712251 C25.0642127,55.93015 22.3541716,59.1757737 23.1072537,60.1508987 C23.1072537,60.1508987 27.9851519,56.341027 29.3388543,58.1810417 C32.3850142,62.3237979 16.4046474,73.00878 17.2350588,79.4032994 C17.517135,81.5552843 20.7522245,86.1498746 23.8014601,86.1429032 C23.94821,86.1498746 20.2113587,89.767597 19.3080117,88.9641428 Z" transform="rotate(-23 54.579 11.051)"/>
    <path fill="#BFAA81" d="M69.1220144,97.6704805 C72.796259,97.6704805 77.8886331,95.2597254 84.3991367,90.4382151 C88.7502158,87.1910755 93.0851799,83.4191457 97.4040288,79.1224256 L103.205468,78.9748284 C100.723741,84.0915332 99.4828777,88.3062548 99.4828777,91.6189931 C99.4828777,93.2261632 99.8696403,94.1773455 100.643165,94.47254 C100.965468,94.5381388 101.408633,94.5709382 101.972662,94.5709382 C102.536691,94.5709382 103.22964,94.3741419 104.051511,93.9805492 C104.873381,93.5869565 105.364892,93.0949657 105.526043,92.5045767 C105.526043,92.3405797 105.46964,92.2585812 105.356835,92.2585812 C105.244029,92.2585812 104.921727,92.4799771 104.389928,92.9227689 C103.858129,93.3655606 103.414964,93.5869565 103.060432,93.5869565 C102.125755,93.5869565 101.658417,92.8325706 101.658417,91.3237986 C101.658417,89.1590389 103.157122,85.0919146 106.154532,79.1224256 C110.860144,78.7944317 113.21295,78.4172387 113.21295,77.9908467 C113.21295,77.8268497 112.632806,77.7448513 111.472518,77.7448513 L106.783022,77.8432494 C107.621007,76.3016781 108.636259,74.2927155 109.828777,71.8163616 C111.021295,69.3400076 111.939856,67.6508391 112.58446,66.7488558 C113.229065,65.8468726 116.065324,60.3939741 116.065324,59.8363844 C116.065324,59.2787948 115.888058,59 115.533525,59 C114.72777,59 112.471655,60.9843631 108.76518,64.9530892 C105.703309,68.2330282 103.064212,71.0017421 100.847887,73.259231 L100.410259,73.7039124 C98.8262921,75.3094178 97.4696829,76.6399977 96.3404317,77.6956522 C94.8900719,77.6956522 93.101295,77.5644546 90.9741007,77.3020595 C89.8782734,77.3020595 89.2658993,77.9088482 89.1369784,79.1224256 C89.0080576,79.6472159 89.974964,79.7128146 92.0376978,79.319222 C93.0046043,79.155225 94.0520863,79.0404272 95.1801439,78.9748284 C89.4431655,84.3539283 85.3015827,88.0110603 82.7553957,89.9462243 C77.0184173,94.3413425 72.4739568,96.5389016 69.1220144,96.5389016 C65.6089209,96.5389016 63.8523741,94.7841342 63.8523741,91.2745995 C63.8523741,88.9458429 64.7628777,85.6987033 66.5838849,81.5331808 C68.4048921,77.3676583 71.0638849,73.8581236 74.5608633,71.0045767 C78.0578417,68.1510297 81.0633094,66.7242563 83.5772662,66.7242563 C84.8020144,66.7242563 85.6964029,67.1260488 86.2604317,67.9296339 C86.8244604,68.7332189 87.1064748,69.7909992 87.1064748,71.1029748 C87.1064748,72.4149504 86.5585612,73.940122 85.4627338,75.6784897 L83.8673381,78.3352403 C83.8673381,78.4008391 83.923741,78.4336384 84.0365468,78.4336384 C84.1493525,78.4336384 84.2541007,78.4172387 84.3507914,78.3844394 C85.3499281,77.8596491 86.3329496,76.6132723 87.2998561,74.6453089 C88.2667626,72.6773455 88.7502158,70.8897788 88.7502158,69.2826087 C88.7502158,66.8882532 87.1548201,65.6910755 83.9640288,65.6910755 C80.7732374,65.6910755 77.1634532,67.1752479 73.1346763,70.1435927 C69.1058993,73.1119375 65.931223,76.6952708 63.6106475,80.8935927 C61.8702158,84.0423341 61,87.0270786 61,89.8478261 C61,94.6037376 63.4817266,97.1948894 68.4451799,97.6212815 C68.6707914,97.6540809 68.8964029,97.6704805 69.1220144,97.6704805 Z M103.640576,77.6956522 C102.641439,77.6956522 101.803453,77.6792525 101.126619,77.6464531 L101.126619,77.6464531 L98.2742446,77.6464531 L110.650647,65.8386728 C106.911942,71.8737605 104.575252,75.826087 103.640576,77.6956522 Z M114.03482,92.5537757 C115.678561,92.5537757 117.733237,91.6599924 120.198849,89.8724256 C122.66446,88.0848589 124.783597,85.9938978 126.556259,83.5995423 C126.71741,83.402746 126.797986,83.238749 126.797986,83.1075515 C126.797986,82.9763539 126.68518,82.9107551 126.459568,82.9107551 C126.233957,82.9107551 126.040576,83.0091533 125.879424,83.2059497 C124.590216,84.9443173 122.753094,86.7728833 120.368058,88.6916476 C117.983022,90.6104119 115.984748,91.5697941 114.373237,91.5697941 C113.631942,91.5697941 113.059856,91.3401983 112.656978,90.8810069 C112.254101,90.4218154 112.052662,90.011823 112.052662,89.6510297 C112.052662,89.2902365 112.12518,88.7490465 112.270216,88.02746 C112.415252,87.3058734 112.648921,86.682685 112.971223,86.1578947 L112.971223,86.1578947 L114.856691,83.3535469 C115.436835,82.5335622 116.508489,81.5167811 118.071655,80.3032037 C119.63482,79.0896262 120.867626,78.4336384 121.770072,78.3352403 C121.866763,78.3352403 121.915108,78.3598398 121.915108,78.4090389 C121.915108,78.458238 121.697554,78.8518307 121.262446,79.5898169 C120.827338,80.3278032 120.609784,80.877193 120.609784,81.2379863 C120.609784,81.7627765 121.028777,82.0251716 121.866763,82.0251716 C122.704748,82.0251716 123.333237,81.6397788 123.75223,80.8689931 C124.171223,80.0982075 124.380719,79.3602212 124.380719,78.6550343 C124.380719,77.9498474 124.14705,77.3922578 123.679712,76.9822654 C123.212374,76.5722731 122.608058,76.3672769 121.866763,76.3672769 C119.610647,76.3672769 117.06446,77.8760488 114.228201,80.8935927 C111.391942,83.9111365 109.973813,86.5678871 109.973813,88.8638444 C109.973813,90.6350114 111.00518,91.8157895 113.067914,92.4061785 C113.357986,92.5045767 113.680288,92.5537757 114.03482,92.5537757 Z M127.402302,92.1601831 C128.256403,92.1601831 129.634245,91.3073989 131.535827,89.6018307 L131.535827,89.6018307 L134.533237,86.6498856 C134.404317,87.2074752 134.339856,87.7650648 134.339856,88.3226545 C134.339856,89.9298246 135.048921,91.0122044 136.46705,91.5697941 C136.724892,91.6681922 136.998849,91.7173913 137.288921,91.7173913 C139.448345,91.7173913 142.590791,88.9130435 146.716259,83.3043478 C147.006331,82.9107551 147.151367,82.5909611 147.151367,82.3449657 C147.151367,82.0989703 147.086906,81.9759725 146.957986,81.9759725 C146.829065,81.9759725 146.716259,82.0415713 146.619568,82.1727689 C142.171799,87.8142639 139.109928,90.6350114 137.433957,90.6350114 C136.886043,90.6350114 136.531511,90.2578185 136.37036,89.5034325 C136.338129,89.4050343 136.322014,89.3066362 136.322014,89.208238 C136.322014,88.02746 137.321151,85.9364989 139.319424,82.9353547 C141.317698,79.9342105 142.316835,78.35164 142.316835,78.187643 C142.316835,78.0236461 142.155683,77.7940503 141.833381,77.4988558 C141.511079,77.2036613 141.172662,77.0560641 140.818129,77.0560641 L140.818129,77.0560641 L140.141295,77.2036613 C140.109065,77.2036613 140.060719,77.113463 139.996259,76.9330664 C139.931799,76.7526697 139.851223,76.5312738 139.754532,76.2688787 C139.4,75.5144928 138.690935,75.1372998 137.627338,75.1372998 C134.88777,75.1372998 131.874245,76.8018688 128.586763,80.1310069 C125.299281,83.4601449 123.65554,86.3218917 123.65554,88.7162471 C123.65554,89.798627 124.090647,90.6678108 124.960863,91.3237986 C125.734388,91.8813883 126.548201,92.1601831 127.402302,92.1601831 Z M126.894676,91.0778032 C126.088921,91.0778032 125.686043,90.4874142 125.686043,89.3066362 C125.686043,87.273074 127.313669,84.7065217 130.568921,81.6069794 C133.824173,78.5074371 136.43482,76.9576659 138.400863,76.9576659 C138.981007,76.9576659 139.4,77.1872616 139.657842,77.6464531 L139.657842,77.6464531 L134.533237,84.8295195 C131.310216,88.995042 128.764029,91.0778032 126.894676,91.0778032 Z M147.320576,92.1601831 C148.335827,92.1601831 149.729784,91.3237986 151.502446,89.6510297 L151.502446,89.6510297 L155.418417,85.6659039 C155.063885,86.7810831 154.886619,87.7978642 154.886619,88.7162471 C154.886619,89.5362319 155.136403,90.2988177 155.635971,91.0040046 C156.13554,91.7091915 156.884892,92.0617849 157.884029,92.0617849 C158.174101,92.0617849 158.399712,92.0453852 158.560863,92.0125858 C161.461583,91.4877956 164.781295,88.9458429 168.52,84.3867277 C168.713381,84.157132 168.810072,83.9603356 168.810072,83.7963387 C168.810072,83.6323417 168.697266,83.5749428 168.471655,83.6241419 C168.246043,83.673341 167.972086,83.8619375 167.649784,84.1899314 C163.814388,88.6834477 160.704173,90.9302059 158.319137,90.9302059 C157.126619,90.9302059 156.53036,90.1922197 156.53036,88.7162471 C156.53036,88.2570557 156.578705,87.7978642 156.675396,87.3386728 C157.062158,85.2067124 159.157122,81.6971777 162.960288,76.8100686 C164.217266,75.2028986 166.134964,72.7921434 168.713381,69.5778032 C168.874532,69.3154081 168.955108,69.1022121 168.955108,68.9382151 C168.955108,68.6430206 168.753669,68.4216247 168.350791,68.2740275 C167.947914,68.1264302 167.633669,68.0526316 167.408058,68.0526316 C165.989928,68.0526316 163.475971,71.037376 159.866187,77.006865 C159.705036,76.416476 159.56,76.039283 159.431079,75.875286 C159.076547,75.3832952 158.448058,75.1372998 157.545612,75.1372998 C154.806043,75.1372998 151.792518,76.8018688 148.505036,80.1310069 C145.217554,83.4601449 143.573813,86.3218917 143.573813,88.7162471 C143.573813,89.8314264 143.976691,90.7006102 144.782446,91.3237986 C145.459281,91.8813883 146.305324,92.1601831 147.320576,92.1601831 Z M146.81295,91.0778032 C146.007194,91.0778032 145.604317,90.4874142 145.604317,89.3066362 C145.604317,87.273074 147.231942,84.7065217 150.487194,81.6069794 C153.742446,78.5074371 156.369209,76.9576659 158.367482,76.9576659 C158.915396,76.9576659 159.302158,77.1544622 159.52777,77.5480549 C156.240288,82.0087719 154.306475,84.583524 153.726331,85.2723112 C150.503309,89.1426392 148.198849,91.0778032 146.81295,91.0778032 Z M169.003453,92.5537757 C170.711655,92.5537757 172.790504,91.6517925 175.24,89.8478261 C177.689496,88.0438596 179.78446,85.9774981 181.524892,83.6487414 C181.782734,83.2879481 181.911655,83.0091533 181.911655,82.812357 C181.911655,82.6155606 181.806906,82.5171625 181.59741,82.5171625 C181.387914,82.5171625 181.138129,82.7139588 180.848058,83.1075515 C179.462158,84.9115179 177.786187,86.6170862 175.820144,88.2242563 C173.273957,90.4218154 171.203165,91.520595 169.60777,91.520595 C168.012374,91.520595 167.214676,90.6678108 167.214676,88.9622426 C167.214676,87.9782609 167.456403,87.0434783 167.939856,86.1578947 C168.133237,86.2234935 168.358849,86.2562929 168.616691,86.2562929 C170.324892,86.2562929 172.540719,85.4199085 175.264173,83.7471396 C177.987626,82.0743707 179.349353,80.3196034 179.349353,78.4828375 C179.349353,77.8924485 179.115683,77.3922578 178.648345,76.9822654 C178.181007,76.5722731 177.576691,76.3672769 176.835396,76.3672769 C174.579281,76.3672769 172.033094,77.8760488 169.196835,80.8935927 C166.360576,83.9111365 164.942446,86.5678871 164.942446,88.8638444 C164.942446,90.6350114 165.973813,91.8157895 168.036547,92.4061785 C168.326619,92.5045767 168.648921,92.5537757 169.003453,92.5537757 Z M169.293525,85.173913 C169.067914,85.173913 168.858417,85.1411137 168.665036,85.0755149 C169.793094,83.2059497 171.372374,81.4183829 173.402878,79.7128146 C174.917698,78.4336384 176.086043,77.7940503 176.907914,77.7940503 C177.729784,77.7940503 178.140719,77.9908467 178.140719,78.3844394 C178.140719,78.5156369 178.108489,78.6632342 178.044029,78.8272311 C177.528345,80.4016018 176.247194,81.8529748 174.200576,83.1813501 C172.153957,84.5097254 170.518273,85.173913 169.293525,85.173913 Z M190.372086,92.0125858 C190.758849,92.0125858 191.032806,91.8813883 191.193957,91.6189931 C192.225324,88.7982456 194.046331,86.1004958 196.656978,83.5257437 C199.267626,80.9509916 201.572086,79.1716247 203.57036,78.187643 C202.442302,79.5980168 201.36259,81.3281846 200.331223,83.3781465 C199.299856,85.4281083 198.784173,87.0434783 198.784173,88.2242563 C198.784173,90.2906178 199.88,91.3237986 202.071655,91.3237986 C203.103022,91.3237986 204.529209,90.6432113 206.350216,89.2820366 C208.171223,87.9208619 209.871367,86.2726926 211.450647,84.3375286 C211.740719,84.0423341 211.885755,83.779939 211.885755,83.5503432 C211.885755,83.3863463 211.781007,83.3043478 211.571511,83.3043478 C211.362014,83.3043478 210.967194,83.6323417 210.38705,84.2883295 C208.87223,86.092296 207.381583,87.5272693 205.915108,88.5932494 C204.448633,89.6592296 203.336691,90.1922197 202.579281,90.1922197 C201.821871,90.1922197 201.298129,90.0446224 201.008058,89.7494279 C200.717986,89.4542334 200.60518,89.0114416 200.66964,88.4210526 C200.927482,86.682685 202.103885,84.4605263 204.198849,81.7545767 C206.293813,79.048627 207.341295,77.6628528 207.341295,77.597254 C207.341295,77.2692601 207.172086,76.9822654 206.833669,76.73627 C206.495252,76.4902746 206.132662,76.3672769 205.745899,76.3672769 C204.42446,76.3672769 202.248921,77.5644546 199.219281,79.9588101 C199.219281,79.9599815 199.216999,79.9630773 199.212436,79.9680977 L199.191901,79.988932 C198.954615,80.2195317 197.174964,81.7510624 193.85295,84.583524 C193.981871,84.157132 194.658705,82.812357 195.883453,80.5491991 C197.140432,78.35164 197.768921,77.113463 197.768921,76.8346682 C197.768921,76.5558734 197.60777,76.3016781 197.285468,76.0720824 C196.963165,75.8424867 196.608633,75.7276888 196.221871,75.7276888 C194.964892,75.7276888 192.354245,77.597254 188.389928,81.3363844 C185.74705,83.8291381 183.764892,85.8135011 182.443453,87.2894737 C182.636835,86.5350877 183.587626,84.6737223 185.295827,81.7053776 C187.004029,78.7370328 187.858129,77.1380625 187.858129,76.9084668 C187.858129,76.2852784 187.535827,75.9736842 186.891223,75.9736842 C186.246619,75.9736842 185.74705,76.2196796 185.392518,76.7116705 C183.233094,79.8276125 181.686043,81.9923722 180.751367,83.2059497 C179.816691,84.4195271 178.753094,85.6331045 177.560576,86.8466819 C177.302734,87.109077 177.173813,87.3468726 177.173813,87.5600686 C177.173813,87.7732647 177.262446,87.8798627 177.439712,87.8798627 C177.616978,87.8798627 178.060144,87.5190694 178.769209,86.7974828 L178.769209,86.7974828 L181.669928,83.6979405 C179.993957,87.4370709 179.155971,89.6018307 179.155971,90.1922197 C179.155971,90.5858124 179.309065,90.979405 179.615252,91.3729977 C179.921439,91.7665904 180.284029,91.9633867 180.703022,91.9633867 C180.896403,91.9633867 181.742446,90.9958047 183.241151,89.0606407 C184.739856,87.1254767 186.367482,85.1985126 188.124029,83.2797483 C189.880576,81.360984 192.015827,79.5652174 194.529784,77.8924485 C192.789353,81.5331808 191.741871,83.7307399 191.387338,84.4851259 C190.259281,86.8138825 189.534101,88.8802441 189.211799,90.6842105 C189.211799,91.5697941 189.598561,92.0125858 190.372086,92.0125858 Z M210.580432,102 C213.706763,102 216.833094,99.4416476 219.959424,94.3249428 C222.022158,90.553013 223.553094,87.6830664 224.55223,85.715103 C224.616691,85.5839054 225.374101,84.4195271 226.82446,82.221968 C228.27482,80.0244088 229,78.8600305 229,78.728833 C229,78.0072464 228.629353,77.6464531 227.888058,77.6464531 C227.146763,77.6464531 226.469928,78.0072464 225.857554,78.728833 C225.21295,79.5816171 224.713381,80.2212052 224.358849,80.6475973 C222.779568,82.2547674 220.43482,84.2883295 217.324604,86.7482838 C214.214388,89.208238 212.143597,90.4382151 211.11223,90.4382151 C210.564317,90.4382151 210.29036,90.2250191 210.29036,89.798627 C210.29036,88.7162471 211.716547,86.625286 214.568921,83.5257437 C217.421295,80.4262014 218.847482,78.728833 218.847482,78.4336384 C218.847482,77.6792525 218.299568,77.3020595 217.203741,77.3020595 C216.107914,77.3020595 214.367482,78.9174294 211.982446,82.1481693 C209.59741,85.3789092 208.404892,87.6994661 208.404892,89.1098398 C208.404892,89.7330282 208.614388,90.2906178 209.033381,90.7826087 C209.452374,91.2745995 210.016403,91.520595 210.725468,91.520595 C212.046906,91.520595 213.803453,90.6514111 215.995108,88.9130435 L215.995108,88.9130435 L223.101871,83.2551487 L221.264748,87.7814645 C219.782158,91.1270023 218.267338,93.8985507 216.720288,96.0961098 C214.593094,99.0808543 212.610935,100.573227 210.773813,100.573227 C209.645755,100.573227 208.308201,99.5892449 206.761151,97.6212815 C206.728921,98.7364607 207.099568,99.745042 207.873094,100.647025 C208.646619,101.549008 209.549065,102 210.580432,102 Z"/>
    <path fill="#FFF" d="M81.1558002,60 C83.2415225,60 85.2503125,59.612069 87.1821701,58.8362069 C89.1140277,58.0603448 90.8407322,56.9224138 92.3622838,55.4224138 C93.8838353,53.9224138 95.0891093,52.0431034 95.9781057,49.7844828 C96.8671021,47.5258621 97.3116003,44.9310345 97.3116003,42 C97.3116003,39 96.8671021,36.3706897 95.9781057,34.112069 C95.0891093,31.8534483 93.8838353,29.9741379 92.3622838,28.4741379 C90.8407322,26.9741379 89.1140277,25.8534483 87.1821701,25.112069 C85.2503125,24.3706897 83.2415225,24 81.1558002,24 C79.10427,24 77.1125761,24.387931 75.1807185,25.1637931 C73.2488609,25.9396552 71.5136083,27.0775862 69.9749607,28.5775862 C68.4363131,30.0775862 67.222491,31.9482759 66.3334946,34.1896552 C65.4444982,36.4310345 65,39.0344828 65,42 C65,45 65.4444982,47.6206897 66.3334946,49.862069 C67.222491,52.1034483 68.427765,53.9741379 69.9493166,55.4741379 C71.4708681,56.9741379 73.1975727,58.1034483 75.1294303,58.862069 C77.0612879,59.6206897 79.0700778,60 81.1558002,60 Z M81.1558002,58.9137931 C79.309423,58.9137931 77.8049675,58.4051724 76.6424338,57.387931 C75.4799,56.3706897 74.6336438,54.6293103 74.1036652,52.1637931 C73.5736865,49.6982759 73.3086972,46.3103448 73.3086972,42 C73.3086972,37.6551724 73.5736865,34.25 74.1036652,31.7844828 C74.6336438,29.3189655 75.4799,27.5775862 76.6424338,26.5603448 C77.8049675,25.5431034 79.309423,25.0344828 81.1558002,25.0344828 C83.0363695,25.0344828 84.5579211,25.5431034 85.7204548,26.5603448 C86.8829886,27.5775862 87.7292448,29.3189655 88.2592234,31.7844828 C88.789202,34.25 89.0541914,37.6551724 89.0541914,42 C89.0541914,46.3103448 88.789202,49.6982759 88.2592234,52.1637931 C87.7292448,54.6293103 86.8829886,56.3706897 85.7204548,57.387931 C84.5579211,58.4051724 83.0363695,58.9137931 81.1558002,58.9137931 Z M101.337728,59.0689655 L101.337728,58.5517241 L100.209387,58.0862069 C99.4913512,57.8103448 99.0895932,57.4482759 99.0041127,57 C98.9186323,56.5517241 98.9955647,55.9482759 99.2349099,55.1896552 L99.2349099,55.1896552 L101.696746,47.8965517 L113.082739,47.8965517 L115.493287,55.3448276 C115.69844,56.0344828 115.724084,56.6293103 115.570219,57.1293103 C115.416354,57.6293103 114.980404,58.0172414 114.262368,58.2931034 L114.262368,58.2931034 L113.493045,58.5517241 L113.493045,59.0689655 L126.520261,59.0689655 L126.520261,58.5517241 L125.904802,58.3448276 C125.186767,58.0689655 124.656788,57.7327586 124.314866,57.3362069 C123.972945,56.9396552 123.665215,56.362069 123.391678,55.6034483 L123.391678,55.6034483 L112.980162,24.8275862 L108.62066,24.8275862 L98.05528,55.3965517 C97.8159348,56.1206897 97.5082053,56.6810345 97.1320914,57.0775862 C96.7559776,57.4741379 96.225999,57.8103448 95.5421556,58.0862069 L95.5421556,58.0862069 L94.2599492,58.5517241 L94.2599492,59.0689655 L101.337728,59.0689655 Z M112.775009,46.862069 L102.055764,46.862069 L107.594895,30.7758621 L112.775009,46.862069 Z M141.086126,59.0689655 L141.086126,58.5517241 L140.111649,58.137931 C139.461998,57.8965517 139.026047,57.5862069 138.803798,57.2068966 C138.581549,56.8275862 138.470425,56.2931034 138.470425,55.6034483 L138.470425,55.6034483 L138.470425,28.5517241 C138.470425,27.8275862 138.573001,27.2586207 138.778154,26.8448276 C138.983307,26.4310345 139.376517,26.1206897 139.957784,25.9137931 L139.957784,25.9137931 L141.086126,25.4482759 L141.086126,24.9310345 L128.31535,24.9310345 L128.31535,25.4482759 L129.392404,25.862069 C130.076247,26.1034483 130.520745,26.4310345 130.725898,26.8448276 C130.931051,27.2586207 131.033628,27.8103448 131.033628,28.5 L131.033628,28.5 L131.033628,55.5517241 C131.033628,56.2068966 130.931051,56.7413793 130.725898,57.1551724 C130.520745,57.5689655 130.076247,57.8965517 129.392404,58.137931 L129.392404,58.137931 L128.31535,58.5517241 L128.31535,59.0689655 L141.086126,59.0689655 Z M160.267933,59.0689655 L160.267933,58.5517241 L159.549897,58.3448276 C158.695093,58.0689655 158.036894,57.6896552 157.575299,57.2068966 C157.113705,56.7241379 156.626467,56.1034483 156.113584,55.3448276 L156.113584,55.3448276 L144.060844,37.6034483 L153.241442,28.137931 C153.822709,27.5517241 154.335591,27.0862069 154.78009,26.7413793 C155.224588,26.3965517 155.822951,26.1034483 156.575178,25.862069 L156.575178,25.862069 L157.908673,25.4482759 L157.908673,24.9310345 L150.420588,24.9310345 L150.420588,25.4482759 L151.292488,25.7586207 C152.010524,26 152.343897,26.3448276 152.292609,26.7931034 C152.241321,27.2413793 151.976332,27.7068966 151.497641,28.1896552 L151.497641,28.1896552 L138.521713,41.5344828 L148.369058,55.6551724 C148.813556,56.2758621 149.018709,56.8275862 148.984517,57.3103448 C148.950325,57.7931034 148.591307,58.137931 147.907463,58.3448276 L147.907463,58.3448276 L147.240716,58.5517241 L147.240716,59.0689655 L160.267933,59.0689655 Z M186.065925,59.0689655 L186.065925,58.5517241 L185.194024,58.2413793 C184.065683,57.7586207 183.501512,56.8793103 183.501512,55.6034483 L183.501512,55.6034483 L183.501512,42 L195.759405,42 L195.759405,55.6034483 C195.759405,56.2931034 195.64828,56.8362069 195.426031,57.2327586 C195.203782,57.6293103 194.750736,57.9655172 194.066892,58.2413793 L194.066892,58.2413793 L193.143704,58.5517241 L193.143704,59.0689655 L206.222209,59.0689655 L206.222209,58.5517241 L205.196444,58.137931 C204.546792,57.8965517 204.102294,57.5689655 203.862949,57.1551724 C203.623604,56.7413793 203.503931,56.2068966 203.503931,55.5517241 L203.503931,55.5517241 L203.503931,28.5 C203.503931,27.8103448 203.623604,27.2586207 203.862949,26.8448276 C204.102294,26.4310345 204.546792,26.1034483 205.196444,25.862069 L205.196444,25.862069 L206.222209,25.4482759 L206.222209,24.9310345 L193.143704,24.9310345 L193.143704,25.4482759 L194.066892,25.8103448 C194.750736,26.0517241 195.203782,26.3706897 195.426031,26.7672414 C195.64828,27.1637931 195.759405,27.7068966 195.759405,28.3965517 L195.759405,28.3965517 L195.759405,40.9655172 L183.501512,40.9655172 L183.501512,28.3965517 C183.501512,27.7068966 183.621185,27.1637931 183.86053,26.7672414 C184.099875,26.3706897 184.544373,26.0517241 185.194024,25.8103448 L185.194024,25.8103448 L186.065925,25.4482759 L186.065925,24.9310345 L173.038708,24.9310345 L173.038708,25.4482759 L174.064473,25.862069 C174.748317,26.1034483 175.201363,26.4310345 175.423612,26.8448276 C175.645861,27.2586207 175.756986,27.8103448 175.756986,28.5 L175.756986,28.5 L175.756986,55.5517241 C175.756986,56.2068966 175.645861,56.7413793 175.423612,57.1551724 C175.201363,57.5689655 174.748317,57.8965517 174.064473,58.137931 L174.064473,58.137931 L173.038708,58.5517241 L173.038708,59.0689655 L186.065925,59.0689655 Z M221.659973,59.0689655 L221.659973,58.5517241 L220.634208,58.137931 C219.950365,57.862069 219.497319,57.5258621 219.27507,57.1293103 C219.05282,56.7327586 218.941696,56.1896552 218.941696,55.5 L218.941696,55.5 L218.941696,28.5 C218.941696,27.8103448 219.05282,27.2586207 219.27507,26.8448276 C219.497319,26.4310345 219.950365,26.1034483 220.634208,25.862069 L220.634208,25.862069 L221.659973,25.4482759 L221.659973,24.9310345 L208.478892,24.9310345 L208.478892,25.4482759 L209.504657,25.862069 C210.222693,26.1034483 210.684287,26.4310345 210.88944,26.8448276 C211.094593,27.2586207 211.197169,27.8103448 211.197169,28.5 L211.197169,28.5 L211.197169,55.5 C211.197169,56.1896552 211.086045,56.7413793 210.863796,57.1551724 C210.641547,57.5689655 210.1885,57.8965517 209.504657,58.137931 L209.504657,58.137931 L208.478892,58.5517241 L208.478892,59.0689655 L221.659973,59.0689655 Z M248.842748,59.0689655 L249.304343,50.0689655 L248.79146,50.0689655 L246.791218,54.4137931 C246.244143,55.5862069 245.671425,56.4827586 245.073062,57.1034483 C244.474699,57.7241379 243.542962,58.0344828 242.277852,58.0344828 L242.277852,58.0344828 L234.379461,58.0344828 L234.379461,28.5517241 C234.379461,27.862069 234.499133,27.3017241 234.738478,26.8706897 C234.977823,26.4396552 235.422322,26.1034483 236.071973,25.862069 L236.071973,25.862069 L236.995161,25.4482759 L236.995161,24.9310345 L223.916657,24.9310345 L223.916657,25.4482759 L224.99371,25.862069 C225.677553,26.1034483 226.122052,26.4310345 226.327205,26.8448276 C226.532358,27.2586207 226.634934,27.8103448 226.634934,28.5 L226.634934,28.5 L226.634934,55.5 C226.634934,56.1896552 226.540906,56.7327586 226.352849,57.1293103 C226.164792,57.5258621 225.711745,57.862069 224.99371,58.137931 L224.99371,58.137931 L223.916657,58.5517241 L223.916657,59.0689655 L248.842748,59.0689655 Z M276.538406,59.0689655 L277,50.0689655 L276.487117,50.0689655 L274.486876,54.4137931 C273.939801,55.5862069 273.367082,56.4827586 272.768719,57.1034483 C272.170356,57.7241379 271.238619,58.0344828 269.973509,58.0344828 L269.973509,58.0344828 L262.075118,58.0344828 L262.075118,28.5517241 C262.075118,27.862069 262.194791,27.3017241 262.434136,26.8706897 C262.673481,26.4396552 263.117979,26.1034483 263.76763,25.862069 L263.76763,25.862069 L264.690819,25.4482759 L264.690819,24.9310345 L251.612314,24.9310345 L251.612314,25.4482759 L252.689367,25.862069 C253.373211,26.1034483 253.817709,26.4310345 254.022862,26.8448276 C254.228015,27.2586207 254.330592,27.8103448 254.330592,28.5 L254.330592,28.5 L254.330592,55.5 C254.330592,56.1896552 254.236563,56.7327586 254.048506,57.1293103 C253.860449,57.5258621 253.407403,57.862069 252.689367,58.137931 L252.689367,58.137931 L251.612314,58.5517241 L251.612314,59.0689655 L276.538406,59.0689655 Z"/>
  </g>
</svg>
