<svg xmlns="http://www.w3.org/2000/svg" width="73" height="76" viewBox="0 0 73 76">
  <path fill="#FFF" d="M34.4029413,0 C34.7792085,0 35.1198792,0.152384092 35.3664736,0.398794245 C35.5821253,0.614284832 35.7258231,0.90169576 35.758378,1.2219364 L35.7654111,1.36107841 L35.7654111,6.57723702 C35.7654111,6.89938129 35.6536631,7.19528591 35.4666167,7.42830168 C35.2281035,7.72543303 34.8676722,7.92086516 34.4607408,7.93783746 L34.3061091,7.93568685 L34.3061091,25.7340476 C34.3061091,26.109992 34.1535348,26.4504899 33.9069598,26.6970023 C33.691223,26.9126842 33.4035024,27.0564388 33.0829265,27.0890074 L32.9436393,27.0960437 L31.898123,27.0960437 L31.898123,32.0165637 C31.898123,32.3923612 31.7456445,32.7325729 31.4991854,32.9788479 C31.2834154,33.1944568 30.9956181,33.338077 30.6749706,33.3706131 L30.5356532,33.3776421 L21.089221,33.3776421 C20.7129538,33.3776421 20.3722831,33.225258 20.1256888,32.9788479 C19.9100371,32.7633573 19.7663393,32.4759464 19.7337844,32.1557057 L19.7267512,32.0165637 L19.7267512,27.0960437 L18.6812349,27.0960437 C18.3050467,27.0960437 17.9644707,26.9434959 17.7179144,26.6970023 C17.5021612,26.481304 17.3583774,26.1936479 17.3258026,25.8732508 L17.3187651,25.7340476 L17.3187651,20.6051012 C15.8781841,20.9543616 14.6716217,21.8178257 13.8720133,22.9651721 C13.2551335,23.8503239 12.8805026,24.9042053 12.8265172,26.0207898 L12.8197464,26.3011809 L12.8197464,45.9104134 C12.8197464,47.0793153 13.1712473,48.1914527 13.7897027,49.1276001 C14.4109736,50.0680093 15.3016575,50.8306515 16.3751934,51.2946315 C17.0942658,50.9982361 17.4296671,50.8555971 17.7584724,50.8338822 L17.8482664,50.8309334 L25.5612042,50.8309334 L25.5612042,47.0971304 L20.8173812,47.0971304 C19.5057865,47.0971304 18.4884624,46.6336295 17.7794803,45.9090461 C16.9586264,45.0701291 16.5511805,43.8944313 16.5511805,42.7260483 C16.5511805,41.5732659 16.947995,40.4199423 17.7649496,39.5996307 C18.4244001,38.9374704 19.3563707,38.5014041 20.5561811,38.4462049 L20.8173812,38.4402625 L33.0308852,38.4402625 C34.3431258,38.4402625 35.3605309,38.9031677 36.0693982,39.6270932 C36.8900826,40.4652112 37.2970587,41.6399554 37.2970587,42.8076823 C37.2970587,43.9611481 36.899801,45.1154392 36.0826811,45.9365493 C35.4231429,46.5993082 34.4912508,47.0359122 33.2919658,47.0911805 L33.0308852,47.0971304 L28.2870622,47.0971304 L28.2870622,50.8309334 L36,50.8309334 C36.3762672,50.8309334 36.7169379,50.9833175 36.9635323,51.2297277 C37.1791839,51.4452183 37.3228817,51.7326292 37.3554366,52.0528699 L37.3624698,52.1920119 L37.3624698,62.6985202 L45.009687,62.6985202 L45.009687,44.1302337 L43.4085522,44.1302337 C43.0322851,44.1302337 42.6916144,43.9778496 42.44502,43.7314395 C42.2293683,43.5159489 42.0856705,43.2285379 42.0531156,42.9082973 L42.0460824,42.7691553 L42.0460824,29.4360152 C42.0460824,29.0602177 42.1985609,28.720006 42.44502,28.473731 C42.6607901,28.2581221 42.9485873,28.1145019 43.2692348,28.0819658 L43.4085522,28.0749368 L48.2166921,28.0749368 L44.576774,21.7767802 C44.3889148,21.45263 44.3503313,21.0830588 44.4398151,20.7475938 C44.5165384,20.4599664 44.6873981,20.1974253 44.9384637,20.01034 L45.0706158,19.9233185 L50.0498193,17.0547202 C50.3556835,16.8655063 50.7262728,16.8295455 51.0654359,16.9204366 C51.3533738,16.9976001 51.6206518,17.1672067 51.8104159,17.4211974 L51.8985753,17.5551874 L57.9765769,28.0749368 L67.4884133,28.0749368 C67.8646805,28.0749368 68.2053512,28.2273208 68.4519456,28.473731 C68.6675973,28.6892216 68.8112951,28.9766325 68.84385,29.2968732 L68.8508832,29.4360152 L68.8508832,42.7691553 C68.8508832,43.1449528 68.6984047,43.4851645 68.4519456,43.7314395 C68.2361755,43.9470483 67.9483782,44.0906685 67.6277307,44.1232047 L67.4884133,44.1302337 L65.8872786,44.1302337 L65.8872786,62.6985202 L70.6375302,62.6985202 C71.0137974,62.6985202 71.3544681,62.8509043 71.6010624,63.0973145 C71.8167141,63.3128051 71.9604119,63.600216 71.9929668,63.9204566 L72,64.0595986 L72,73.6623227 C72,74.0739414 71.8637929,74.3956895 71.6387517,74.6177351 C71.3754647,74.8775173 71.0045511,75 70.6375302,75 C70.2705093,75 69.8995957,74.8775173 69.6363087,74.6177351 C69.4393976,74.4234452 69.3105002,74.1528205 69.2813526,73.8124478 L69.2750604,73.6623227 L69.2750604,65.420677 L2.72493961,65.420677 L2.72493961,73.6623227 C2.72493961,74.0739414 2.58873256,74.3956895 2.3636913,74.6177351 C2.10040427,74.8775173 1.72949068,75 1.36246981,75 C0.995448933,75 0.624535339,74.8775173 0.361248311,74.6177351 C0.16433721,74.4234452 0.0354397977,74.1528205 0.00629218051,73.8124478 L0,73.6623227 L0,64.0595986 C0,63.6838012 0.152478477,63.3435894 0.398937556,63.0973145 C0.614707636,62.8817056 0.902504904,62.7380854 1.22315242,62.7055492 L1.36246981,62.6985202 L16.6843227,62.6985202 C11.9299741,62.0694138 7.95433996,59.4597494 5.46169441,55.8309338 C3.75055976,53.3398488 2.73826553,50.3683094 2.65347461,47.227179 L2.64768267,46.7978211 L2.64768267,25.4137732 C2.64768267,21.3541821 4.18806683,17.604475 6.73483457,14.754704 C9.28918114,11.8964524 12.8562278,9.9430862 16.8988846,9.49133 L17.3187651,9.44997758 L17.3187651,7.93571951 C16.8487066,7.9679529 16.4258852,7.76249785 16.1574651,7.4283198 C16.0014998,7.23414596 15.897893,6.99628608 15.8676898,6.73595934 L15.8585447,6.57723702 L15.8585447,1.36107841 C15.8585447,0.98528093 16.0110232,0.645069201 16.2574822,0.398794245 C16.4732523,0.183185361 16.7610496,0.0395651801 17.0816971,0.00702902377 L17.2210145,0 L34.4029413,0 Z M34.6375302,59.4868837 L19.2107362,59.4868837 L19.2107362,62.6985202 L34.6375302,62.6985202 L34.6375302,59.4868837 Z M63.162339,44.1302337 L47.7346266,44.1302337 L47.7346266,62.6985202 L63.162339,62.6985202 L63.162339,44.1302337 Z M10.0948068,42.1691269 L5.37262228,42.1691269 L5.37262228,46.7978211 L5.3783316,47.1868695 C5.46568614,50.1610676 6.55112055,52.9343386 8.33575804,55.1429023 C10.3235431,57.6028695 13.1785284,59.3618366 16.4857966,59.9183637 L16.4857966,59.9183637 L16.4857966,54.2004016 L16.1462375,54.1024556 C14.3523849,53.5449937 12.8361908,52.4308829 11.7700237,50.9852306 C10.7100319,49.5479516 10.0948068,47.7827284 10.0948068,45.9104134 L10.0948068,45.9104134 L10.0948068,42.1691269 Z M34.6375302,53.5530903 L19.2107362,53.5530903 L19.2107362,56.7647268 L34.6375302,56.7647268 L34.6375302,53.5530903 Z M33.0308852,41.163337 L20.8173812,41.163337 L20.6366633,41.1717427 C20.228288,41.2105058 19.9126551,41.3800716 19.6822752,41.6122847 C19.3820112,41.9149382 19.2249623,42.3373675 19.2249623,42.7644491 C19.2249623,43.1920382 19.3825427,43.6165338 19.682042,43.9209969 C19.94643,44.1897668 20.32204,44.3749736 20.8173812,44.3749736 L20.8173812,44.3749736 L33.0308852,44.3749736 L33.2110424,44.3664905 C33.6183911,44.3273662 33.9348849,44.1561706 34.1662244,43.9209969 C34.4657237,43.6165338 34.6233041,43.1920382 34.6233041,42.7644491 C34.6233041,42.3373675 34.4662552,41.9149382 34.1659912,41.6122847 C33.9026999,41.3468983 33.5280577,41.163337 33.0308852,41.163337 L33.0308852,41.163337 Z M66.1259435,30.7980113 L44.771022,30.7980113 L44.771022,41.4080769 L66.1259435,41.4080769 L66.1259435,37.4641225 L49.8913798,37.4641225 L49.7410615,37.4578335 C49.4002494,37.4287001 49.1292672,37.2998621 48.9347246,37.1029894 C48.6748854,36.8400379 48.5523287,36.4696053 48.5523287,36.1030441 C48.5523287,35.7364828 48.6748854,35.3660502 48.9347246,35.1030988 C49.157059,34.8781013 49.4792328,34.7419657 49.8913798,34.7419657 L49.8913798,34.7419657 L66.1259435,34.7419657 L66.1259435,30.7980113 Z M10.0948068,32.7407642 L5.37262228,32.7407642 L5.37262228,39.4460524 L10.0948068,39.4460524 L10.0948068,32.7407642 Z M29.1731834,27.0960437 L22.4516908,27.0960437 L22.4516908,30.6545676 L29.1731834,30.6545676 L29.1731834,27.0960437 Z M17.3187651,12.1850276 C13.8335599,12.5453344 10.7715317,14.245871 8.62036349,16.734305 C6.5910281,19.0818049 5.37262228,22.1300126 5.37262228,25.4137732 L5.37262228,25.4137732 L5.37262228,30.0176897 L10.0948068,30.0176897 L10.0948068,26.3011809 L10.1014029,25.9650854 C10.1759416,24.0681219 10.8785258,22.3043888 12.0210042,20.8989101 C13.3138039,19.308506 15.1700661,18.1764755 17.3187651,17.8299315 L17.3187651,17.8299315 L17.3187651,12.1850276 Z M50.2295143,20.0801111 L47.607387,21.5930116 L51.3532689,28.0749368 L54.8491345,28.0749368 L50.2295143,20.0801111 Z M31.5811695,7.93923312 L20.0437047,7.93923312 L20.0437047,24.3729692 L31.5811695,24.3729692 L31.5811695,20.2803487 L27.2570451,20.2803487 L27.106733,20.274058 C26.7659355,20.2449171 26.494967,20.1160462 26.3004331,19.9191338 C26.04056,19.6560832 25.9179939,19.2855099 25.9179939,18.9188115 C25.9179939,18.5521131 26.04056,18.1815397 26.3004331,17.9184892 C26.5227575,17.6934464 26.844915,17.5572742 27.2570451,17.5572742 L27.2570451,17.5572742 L31.5811695,17.5572742 L31.5811695,14.7549281 L27.2570451,14.7549281 L27.106733,14.7486374 C26.7659355,14.7194964 26.494967,14.5906255 26.3004331,14.3937131 C26.04056,14.1306625 25.9179939,13.7600892 25.9179939,13.3933908 C25.9179939,13.0266924 26.04056,12.6561191 26.3004331,12.3930685 C26.5227575,12.1680258 26.844915,12.0318536 27.2570451,12.0318536 L27.2570451,12.0318536 L31.5811695,12.0318536 L31.5811695,7.93923312 Z M33.0404715,2.72215682 L18.5834843,2.72215682 L18.5834843,5.21615862 L33.0404715,5.21615862 L33.0404715,2.72215682 Z" transform="translate(.5 .5)"/>
</svg>
