<svg xmlns="http://www.w3.org/2000/svg" width="64" height="76" viewBox="0 0 64 76">
  <g fill="#FFF">
    <path d="M19.1496479,38.2309048 C17.5352113,41.8584019 17.2147887,45.0787309 19.0880282,46.9418331 C20.032205,47.8066346 21.2859518,48.2517481 22.5633803,48.1756757 C24.3825343,48.0891642 26.1648621,47.6315123 27.8010563,46.8307873 C29.2306338,50.5323149 31.2764085,53 33.9630282,53 C36.6496479,53 38.6584507,50.5323149 40.125,46.8307873 C41.7611942,47.6315123 43.5435221,48.0891642 45.3626761,48.1756757 C46.6401045,48.2517481 47.8938513,47.8066346 48.8380282,46.9418331 C50.7112676,45.0787309 50.3908451,41.8584019 48.8380282,38.2309048 C52.5352113,36.7996475 55,34.7391304 55,32.0616921 C55,29.3842538 52.5352113,27.3607521 48.8380282,25.8924794 C50.4401408,22.2526439 50.7605634,19.0323149 48.8380282,17.1692127 C46.915493,15.3061105 43.7605634,15.6145711 40.1373239,17.1692127 C38.7077465,13.4676851 36.6496479,11 33.9753521,11 C31.3010563,11 29.2922535,13.4676851 27.8133803,17.1692127 C24.1778169,15.5652174 20.9612676,15.2444183 19.1003521,17.1692127 C17.2394366,19.0940071 17.5475352,22.2526439 19.1619718,25.8924794 C15.4647887,27.3113984 13,29.3719154 13,32.0616921 C13,34.7514689 15.4401408,36.7996475 19.1496479,38.2309048 Z M20.8257042,45.2021152 C19.8767606,44.239718 20.1478873,41.9447709 21.4911972,39.0329025 C22.9851091,39.453036 24.5039582,39.7785918 26.0387324,40.0076381 C26.2732981,41.5431589 26.5983965,43.0634412 27.0123239,44.560517 C24.0792254,45.9424207 21.7869718,46.1645123 20.8257042,45.2021152 Z M27.8996479,32.0987074 C27.8996479,31.2596945 27.8996479,30.43302 27.9612676,29.6310223 C28.5035211,29.0264395 29.0580986,28.3971798 29.6619718,27.8419506 C30.2658451,27.2867215 30.8943662,26.6821387 31.4489437,26.1392479 C32.25,26.1392479 33.0757042,26.0775558 33.9137324,26.0775558 C34.7517606,26.0775558 35.5774648,26.0775558 36.3785211,26.1392479 C36.9700704,26.6821387 37.6109155,27.2373678 38.165493,27.8419506 C38.7200704,28.4465335 39.3116197,29.0757932 39.8538732,29.6310223 C39.8538732,30.43302 39.915493,31.2596945 39.915493,32.0987074 C39.915493,32.9377203 39.915493,33.7643948 39.8538732,34.5663925 C39.3116197,35.1709753 38.7570423,35.800235 38.165493,36.3554642 C37.5739437,36.9106933 36.9330986,37.5152761 36.3661972,38.0581669 C35.5651408,38.0581669 34.7517606,38.119859 33.9014085,38.119859 C33.0510563,38.119859 32.2376761,38.119859 31.4366197,38.0581669 C30.8450704,37.5152761 30.2042254,36.960047 29.6496479,36.3554642 C29.0950704,35.7508813 28.4911972,35.1216216 27.9489437,34.5663925 C27.9242958,33.7643948 27.8996479,32.9377203 27.8996479,32.0987074 L27.8996479,32.0987074 Z M30.4507042,40.4764982 L31.8802817,41.7103408 C30.9806338,42.3396005 30.0933099,42.9441833 29.2552817,43.4007051 C28.9964789,42.4506463 28.7746479,41.426557 28.5897887,40.3407756 L30.4507042,40.4764982 Z M37.3767606,40.4764982 L39.25,40.3160987 C39.0528169,41.4018801 38.8309859,42.4259694 38.584507,43.3760282 C37.7341549,42.8824912 36.8591549,42.3149236 35.9471831,41.6856639 L37.3767606,40.4764982 Z M42.306338,35.5411281 C42.7130282,35.0722679 43.1197183,34.5910693 43.5387324,34.1098707 C44.1672535,35.0105758 44.7711268,35.8989424 45.2271127,36.7502938 C44.278169,36.9970623 43.2552817,37.2191539 42.1707746,37.4165687 C42.1830986,36.8119859 42.2323944,36.1950646 42.2816901,35.5658049 L42.306338,35.5411281 Z M42.306338,28.606933 C42.306338,27.9776733 42.2077465,27.3730905 42.1461268,26.7438308 C43.2306338,26.9289072 44.2535211,27.1509988 45.2024648,27.4101058 C44.709507,28.2491187 44.1426056,29.1374853 43.5140845,30.0381904 C43.1566901,29.5816686 42.6883803,29.10047 42.2816901,28.6686251 L42.306338,28.606933 Z M37.3767606,23.6715629 L35.9471831,22.4377203 C36.846831,21.8084606 37.7341549,21.2038778 38.5721831,20.7473561 C38.8309859,21.6974148 39.0528169,22.7215041 39.25,23.8072855 L37.3767606,23.6715629 Z M30.4507042,23.6715629 L28.5897887,23.8319624 C28.7746479,22.746181 28.9964789,21.7220917 29.2552817,20.7720329 C30.1056338,21.2655699 30.9806338,21.8331375 31.8802817,22.4623972 L30.4507042,23.6715629 Z M25.5211268,28.606933 C25.1021127,29.0757932 24.6954225,29.5569918 24.2887324,30.0381904 C23.6602113,29.1374853 23.056338,28.2491187 22.6003521,27.4101058 C23.5492958,27.1509988 24.5721831,26.9289072 25.6566901,26.7438308 C25.6443662,27.4347826 25.5950704,28.0023502 25.5580986,28.6686251 L25.5211268,28.606933 Z M25.5211268,35.5411281 C25.5211268,36.1703878 25.6197183,36.7749706 25.681338,37.4165687 C24.596831,37.2191539 23.5739437,36.9970623 22.625,36.7502938 C23.1179577,35.8989424 23.6848592,35.0105758 24.3133803,34.1098707 C24.7323944,34.6157462 25.1390845,35.0969448 25.5457746,35.5658049 L25.5211268,35.5411281 Z M33.9137324,50.6310223 C32.5580986,50.6310223 31.1408451,48.8172738 30.0070423,45.7820212 C31.3606282,45.0439252 32.6655367,44.2196717 33.9137324,43.3143361 C35.1637608,44.2169571 36.4684948,45.0411004 37.8204225,45.7820212 C36.6989437,48.8172738 35.2693662,50.6310223 33.9137324,50.6310223 Z M47.0017606,45.2021152 C46.040493,46.1645123 43.7482394,45.8807286 40.8397887,44.5358402 C41.2594292,43.0401728 41.5846028,41.5195389 41.8133803,39.9829612 C43.3481545,39.7539149 44.8670036,39.4283592 46.3609155,39.0082256 C47.6795775,41.9447709 47.9630282,44.239718 47.0017606,45.2021152 Z M52.4242958,32.0987074 C52.4242958,33.4559342 50.6126761,34.8871915 47.5809859,36.0099882 C46.8210074,34.6548385 45.9772286,33.3485351 45.0545775,32.0987074 C45.9799578,30.8507724 46.8238511,29.5442918 47.5809859,28.1874266 C50.6126761,29.3102233 52.4242958,30.7414806 52.4242958,32.0987074 L52.4242958,32.0987074 Z M45.2517606,18.4277321 C45.8863939,18.3837326 46.5134425,18.5870997 47.0017606,18.9952996 C47.9630282,19.9576968 47.6795775,22.2526439 46.3362676,25.1645123 C44.8409489,24.7500985 43.322451,24.424618 41.7887324,24.1897767 C41.5599549,22.653199 41.2347813,21.1325652 40.8151408,19.6368978 C42.1960026,18.9346953 43.7059204,18.5231791 45.2517606,18.4277321 L45.2517606,18.4277321 Z M33.9137324,13.5663925 C35.2693662,13.5663925 36.6989437,15.3924794 37.8204225,18.4153937 C36.4736954,19.1651299 35.1694688,19.9889527 33.9137324,20.8830787 C32.6598355,19.9862084 31.3554514,19.1622861 30.0070423,18.4153937 C31.1408451,15.3924794 32.5580986,13.5663925 33.9137324,13.5663925 Z M20.8257042,18.9952996 C21.3171694,18.5840394 21.9492415,18.3804766 22.5880282,18.4277321 C24.1318991,18.5297449 25.6381054,18.949794 27.0123239,19.6615746 C26.5983965,21.1586504 26.2732981,22.6789327 26.0387324,24.2144536 C24.5050138,24.4492949 22.9865159,24.7747754 21.4911972,25.1891892 C20.1478873,22.2526439 19.8767606,19.9576968 20.8257042,18.9952996 L20.8257042,18.9952996 Z M20.2464789,28.1874266 C21.0124688,29.5389362 21.856018,30.8448842 22.7728873,32.0987074 C21.8568227,33.3744304 21.0133474,34.7008607 20.2464789,36.0716804 C17.2764085,34.8378378 15.415493,33.4559342 15.415493,32.0987074 C15.415493,30.7414806 17.2764085,29.3102233 20.2464789,28.1874266 L20.2464789,28.1874266 Z"/>
    <path d="M33.4743678,35.9999279 C35.2967129,36.010209 36.9453834,34.9204337 37.649951,33.2397839 C38.3545187,31.5591341 37.9758599,29.6194698 36.6909231,28.3272017 C35.4059862,27.0349336 33.4684941,26.6452322 31.7838424,27.3402059 C30.0991906,28.0351797 29,29.6775997 29,31.4999582 C29.0069148,33.972357 31.0020271,35.9788524 33.4743678,35.9999279 L33.4743678,35.9999279 Z M33.4743678,29.6079563 C34.2671457,29.5977971 34.9865882,30.0702973 35.2922297,30.8018531 C35.5978713,31.5334088 35.4284064,32.3772851 34.864032,32.9341297 C34.2996575,33.4909743 33.4535753,33.6490958 32.7261815,33.3336653 C31.9987876,33.0182348 31.5359824,32.2925214 31.5567816,31.4999582 C31.5635094,30.4395101 32.4140926,29.5775933 33.4743678,29.5568211 L33.4743678,29.6079563 Z"/>
    <path d="M4.92307696,76 L62.7692308,76 C63.4489658,76 64,75.4511878 64,74.7741935 L64,1.22580645 C64,0.548812242 63.4489658,0 62.7692308,0 L4.92307696,0 C4.24334188,0 3.69230773,0.548812242 3.69230773,1.22580645 L3.69230773,6.39870968 L1.23076927,6.39870968 C0.791057763,6.39870966 0.384747572,6.63234705 0.164891817,7.01161289 C-0.0549639389,7.39087873 -0.0549639389,7.85815352 0.164891817,8.23741937 C0.384747572,8.61668521 0.791057763,8.85032259 1.23076927,8.85032258 L3.69230773,8.85032258 L3.69230773,20.9980645 L1.23076927,20.9980645 C0.55103419,20.9980645 0,21.5468768 0,22.223871 C0,22.9008652 0.55103419,23.4496774 1.23076927,23.4496774 L3.69230773,23.4496774 L3.69230773,35.5483871 L1.23076927,35.5483871 C0.55103419,35.5483871 0,36.0971993 0,36.7741935 C0,37.4511878 0.55103419,38 1.23076927,38 L3.69230773,38 L3.69230773,50.1477419 L1.23076927,50.1477419 C0.55103419,50.1477419 0,50.6965542 0,51.3735484 C0,52.0505426 0.55103419,52.5993548 1.23076927,52.5993548 L3.69230773,52.5993548 L3.69230773,64.7348387 L1.23076927,64.7348387 C0.55103419,64.7348387 0,65.283651 0,65.9606452 C0,66.6376394 0.55103419,67.1864516 1.23076927,67.1864516 L3.69230773,67.1864516 L3.69230773,74.7741935 C3.69230773,75.4511878 4.24334188,76 4.92307696,76 Z M6.15384619,52.5993548 L8.61538465,52.5993548 C9.29511972,52.5993548 9.84615388,52.0505426 9.84615388,51.3735484 C9.84615388,50.6965542 9.29511972,50.1477419 8.61538465,50.1477419 L6.15384619,50.1477419 L6.15384619,38 L8.61538465,38 C9.29511972,38 9.84615388,37.4511878 9.84615388,36.7741935 C9.84615388,36.0971993 9.29511972,35.5483871 8.61538465,35.5483871 L6.15384619,35.5483871 L6.15384619,23.4129032 L8.61538465,23.4129032 C9.29511972,23.4129032 9.84615388,22.864091 9.84615388,22.1870968 C9.84615388,21.5101026 9.29511972,20.9612903 8.61538465,20.9612903 L6.15384619,20.9612903 L6.15384619,8.85032258 L8.61538465,8.85032258 C9.29511972,8.85032258 9.84615388,8.30151034 9.84615388,7.62451613 C9.84615388,6.94752192 9.29511972,6.39870968 8.61538465,6.39870968 L6.15384619,6.39870968 L6.15384619,2.4516129 L61.5384615,2.4516129 L61.5384615,73.5483871 L6.15384619,73.5483871 L6.15384619,67.2232258 L8.61538465,67.2232258 C9.29511972,67.2232258 9.84615388,66.6744136 9.84615388,65.9974194 C9.84615388,65.3204251 9.29511972,64.7716129 8.61538465,64.7716129 L6.15384619,64.7716129 L6.15384619,52.5993548 Z"/>
    <path d="M46.7697715 58L21.2302285 58C20.550792 58 20 58.4477153 20 59 20 59.5522847 20.550792 60 21.2302285 60L46.7697715 60C47.449208 60 48 59.5522847 48 59 48 58.4477153 47.449208 58 46.7697715 58zM46.7697715 64L21.2302285 64C20.550792 64 20 64.4477153 20 65 20 65.5522847 20.550792 66 21.2302285 66L46.7697715 66C47.449208 66 48 65.5522847 48 65 48 64.4477153 47.449208 64 46.7697715 64z"/>
  </g>
</svg>
