<svg viewBox="0 0 71 76" xmlns="http://www.w3.org/2000/svg"><g><path d="M71 76V38c0-.5-.29-.94-.73-1.15l-16.61-7.81c.5-.18.84-.65.84-1.19v-5.07c0-.7-.57-1.27-1.27-1.27h-3.44l-13.05-8.3V5.03h3.8V2.49h-3.81V-.05h-2.54v2.53h-3.81v2.53h3.8v8.17l-13.05 8.29h-3.44c-.71 0-1.27.56-1.27 1.26v5.06c0 .53.34 1 .84 1.18L.65 36.78c-.45.2-.73.65-.73 1.14v38h71Zm-36.77-2.54h-3.81V63.32c0-1.27 1.62-3.09 3.8-3.63v13.75Zm2.53 0V59.7c2.18.54 3.8 2.36 3.8 3.62v10.13h-3.81Zm8.875 0h-2.54V63.32c0-2.87-3.4-6.34-7.61-6.34 -4.22 0-7.61 3.46-7.61 6.33v10.13h-2.54V49.37h20.28v24.06Zm-21.56-44.89l11.41-6.84 11.41 6.84v13.21H24.06V28.56Zm25.35 15.74v2.53h-27.9V44.3h27.89Zm19.01 29.13h-20.29V70.9h20.28v2.53Zm-20.29-5.07v-19h3.8v-7.6h-2.54v-5.61l19.01 8.94v23.26H48.12ZM68.42 42.3L49.4 33.35v-3.54l19.01 8.94v3.53ZM18.97 24.02h2.53c.24 0 .47-.07.68-.2l13.26-8.44 13.26 8.43c.2.12.43.19.68.19h2.53v2.53h-3.46l-12.38-7.42c-.41-.25-.91-.25-1.31 0l-12.38 7.41h-3.46v-2.54ZM2.48 38.75l19.01-8.95v3.53L2.47 42.27v-3.54Zm-.001 6.33l19.01-8.95v5.6h-2.54v7.6h3.8v19H2.46V45.06Zm0 28.32v-2.54h20.28v2.53H2.47Z"/><path d="M11.5 47C7.91 47 5 49.87 5 53.42V63.7c0 .71.58 1.28 1.3 1.28h10.4c.71 0 1.3-.58 1.3-1.29V53.4c-.01-3.55-2.92-6.43-6.5-6.43v0Zm2.46 3.46l-2.47 2.43 -2.47-2.44c1.42-1.19 3.5-1.19 4.92 0v0Zm-6.37 2.96c0-.23.02-.46.07-.69l2.52 2.5v7.18h-2.6v-9Zm7.8 9h-2.6v-7.19l2.52-2.51c.04.22.06.45.07.68v9Zm44.1-15.43c-3.59 0-6.5 2.87-6.5 6.42v10.28c0 .71.58 1.28 1.3 1.28h10.4c.71 0 1.3-.58 1.3-1.29V53.39c-.01-3.55-2.92-6.43-6.5-6.43v0Zm2.46 3.46l-2.47 2.43 -2.47-2.44c1.42-1.19 3.5-1.19 4.92 0v0Zm-6.37 2.96c0-.23.02-.46.07-.69l2.52 2.5v7.18h-2.6v-9Zm7.8 9h-2.6v-7.19l2.52-2.51c.04.22.06.45.07.68v9Zm-27.9-36.43c-3.59 0-6.5 2.91-6.5 6.5 0 3.58 2.91 6.5 6.5 6.5 3.58 0 6.5-2.92 6.5-6.5 -.01-3.59-2.92-6.5-6.5-6.5v0Zm3.66 5.2h-2.37v-2.37c1.1.39 1.96 1.25 2.36 2.36Zm-4.97-2.37v2.36H31.8c.39-1.11 1.25-1.97 2.36-2.37v0Zm-2.37 4.96h2.36v2.36c-1.11-.4-1.97-1.26-2.37-2.37v0Zm4.96 2.36v-2.37h2.36c-.4 1.1-1.26 1.96-2.37 2.36v0Z"/><path d="M28 52h3v3h-3Z"/><path d="M34 52h3v3h-3Z"/><path d="M40 52h3v3h-3Z"/><path d="M26 37h3v3h-3Z"/><path d="M42 37h3v3h-3Z"/></g></svg>