<?xml version="1.0" encoding="utf-8"?>
<svg height="512px" viewBox="0 0 512 512" width="512px" xmlns="http://www.w3.org/2000/svg">
  <g style="" transform="matrix(1.484454, 0, 0, 1.484454, -122.808998, -122.808998)">
    <path d="M 160.008 423 L 90.008 423 L 90.008 197 L 160.008 197"/>
    <path d="M 422 298.664 C 422 237.996 409.184 193 338.313 193 C 304.258 193 281.398 210.031 272.066 227.742 L 272 227.742 L 272 197 L 204 197 L 204 423 L 272 423 L 272 310.789 C 272 281.402 279.48 252.934 315.906 252.934 C 351.836 252.934 353 286.539 353 312.656 L 353 423 L 422 423"/>
    <path d="M 166.992 124.996 C 166.992 102.367 148.633 84 126.016 84 C 103.313 84 85 102.367 85 124.996 C 85 147.633 103.313 166 126.016 166 C 148.633 166 166.992 147.633 166.992 124.996"/>
  </g>
</svg>