<?xml version="1.0" encoding="utf-8"?>
<svg version="1.1" x="0px" y="0px" viewBox="0 0 512 512" enable-background="new 0 0 1000 1000" width="512px" height="512px" xmlns="http://www.w3.org/2000/svg">
  <path d="M 509.446 139.85 C 480.815 300.975 320.996 437.493 272.93 468.683 C 224.812 499.874 180.978 456.197 165.096 423.125 C 146.862 385.456 92.265 181.438 78.002 164.562 C 63.739 147.687 20.794 181.438 20.794 181.438 L 0 154.166 C 0 154.166 87.093 50.197 153.34 37.136 C 223.611 23.343 223.506 145.075 240.434 212.628 C 256.786 277.987 267.758 315.291 282.021 315.291 C 296.336 315.291 323.608 278.876 353.493 223.025 C 383.377 167.123 352.187 117.698 293.672 152.859 C 317.078 12.476 538.076 -21.275 509.446 139.85 Z"/>
</svg>