<?xml version="1.0" encoding="utf-8"?>
<svg width="36" height="36" viewBox="0 0 36 36" xmlns="http://www.w3.org/2000/svg">
  <path d="M 14.044 23.448 L 14.042 13.552 L 23.937 18.518 L 14.044 23.448 Z M 35.455 11.186 C 35.455 11.186 35.107 8.666 34.04 7.556 C 32.684 6.098 31.166 6.092 30.47 6.006 C 25.485 5.636 18.008 5.636 18.008 5.636 L 17.992 5.636 C 17.992 5.636 10.515 5.636 5.53 6.006 C 4.834 6.092 3.316 6.098 1.96 7.556 C 0.893 8.666 0.545 11.186 0.545 11.186 C 0.545 11.186 0.189 14.146 0.189 17.107 L 0.189 19.881 C 0.189 22.842 0.545 25.801 0.545 25.801 C 0.545 25.801 0.893 28.322 1.96 29.432 C 3.316 30.889 5.097 30.843 5.888 30.995 C 8.738 31.277 18 31.364 18 31.364 C 18 31.364 25.485 31.352 30.47 30.982 C 31.166 30.897 32.684 30.889 34.04 29.432 C 35.107 28.322 35.455 25.801 35.455 25.801 C 35.455 25.801 35.811 22.842 35.811 19.881 L 35.811 17.107 C 35.811 14.146 35.455 11.186 35.455 11.186 L 35.455 11.186 Z" fill-rule="evenodd" style=""/>
</svg>