<svg xmlns="http://www.w3.org/2000/svg" width="76" height="76" viewBox="0 0 76 76">
  <path fill="#FFF" d="M76,23.2903226 C76,10.4475484 65.5524516,0 52.7096774,0 C39.8669032,0 29.4193548,10.4475484 29.4193548,23.2903226 C29.4193548,28.3173548 31.0361935,32.9643871 33.7550323,36.7741935 L3.67741935,36.7741935 C1.64993548,36.7741935 0,38.424129 0,40.4516129 L0,42.9032258 C0,44.9307097 1.64993548,46.5806452 3.67741935,46.5806452 L4.2363871,46.5806452 C9.47548387,54.2799355 12.2580645,63.2491613 12.2580645,72.5763226 L12.2580645,76 L14.7096774,76 L14.7096774,72.5763226 C14.7096774,72.2453548 14.6974194,71.9156129 14.6912903,71.5846452 L18.3870968,75.2816774 L25.7419355,67.9268387 L33.0967742,75.2816774 L40.4516129,67.9268387 L47.8064516,75.2816774 L51.5022581,71.585871 C51.496129,71.9156129 51.483871,72.2453548 51.483871,72.5763226 L51.483871,76 L53.9354839,76 L53.9354839,72.5763226 C53.9354839,63.0407742 56.8259355,53.8692903 62.3163226,46.0265806 L63.7934194,43.769871 C71.0575484,39.8227742 76,32.1234839 76,23.2903226 Z M52.7096774,44.1290323 C52.5294839,44.1290323 52.3554194,44.1069677 52.1776774,44.1020645 C53.7111613,39.0210968 51.7216774,32.5831613 46.9569677,27.8172258 C46.5696129,27.4310968 46.1675484,27.0682581 45.758129,26.7176774 C47.0145806,25.1008387 48.3519355,23.553871 49.7665161,22.0792258 L66.5306452,38.8433548 C62.8483226,42.1199355 58.0149677,44.1290323 52.7096774,44.1290323 Z M55.3954194,53.4512903 C54.219871,56.195871 53.3017419,59.0385161 52.6532903,61.9522581 L49.5397419,58.8387097 L55.1612903,53.2171613 L55.3954194,53.4512903 Z M47.8064516,57.1054194 L42.1849032,51.483871 L47.088129,46.5806452 L48.5247742,46.5806452 L53.428,51.483871 L47.8064516,57.1054194 Z M11.0322581,53.2171613 L16.6538065,58.8387097 L13.5402581,61.9522581 C12.8918065,59.0385161 11.9736774,56.1970968 10.798129,53.4512903 L11.0322581,53.2171613 Z M12.7655484,51.483871 L17.6687742,46.5806452 L19.1054194,46.5806452 L24.0086452,51.483871 L18.3870968,57.1054194 L12.7655484,51.483871 Z M22.572,46.5806452 L28.911871,46.5806452 L25.7419355,49.7505806 L22.572,46.5806452 Z M25.7419355,53.2171613 L31.3634839,58.8387097 L25.7419355,64.4602581 L20.1203871,58.8387097 L25.7419355,53.2171613 Z M27.4752258,51.483871 L32.3784516,46.5806452 L33.8150968,46.5806452 L38.7183226,51.483871 L33.0967742,57.1054194 L27.4752258,51.483871 Z M48.032,20.3459355 C46.5401935,21.8990323 45.1292903,23.5293548 43.8054194,25.2344516 C40.0311613,22.7056129 35.6918065,21.6097419 31.9212258,22.2961935 C32.154129,17.3843871 34.0872258,12.92 37.1554194,9.47058065 L48.032,20.3459355 Z M42.3442581,27.2006452 C40.2236129,30.172 38.3579355,33.3443871 36.7766452,36.6932903 C34.0222581,33.4252903 32.2693548,29.3004516 31.9457419,24.7833548 C35.1549032,24.0417419 38.9769677,24.9647742 42.3442581,27.2006452 Z M44.2945161,28.6887742 C44.6107742,28.9645806 44.922129,29.2501935 45.2224516,29.5517419 C49.5176774,33.8469677 51.268129,39.602129 49.6794839,43.883871 C45.4369677,43.2611613 41.6136774,41.3636129 38.601871,38.5834839 C40.1905161,35.080129 42.1003226,31.7716774 44.2945161,28.6887742 Z M37.2816774,46.5806452 L43.6215484,46.5806452 L40.4516129,49.7505806 L37.2816774,46.5806452 Z M40.4516129,53.2171613 L46.0731613,58.8387097 L40.4516129,64.4602581 L34.8300645,58.8387097 L40.4516129,53.2171613 Z M51.4998065,20.3471613 C53.0222581,18.886 54.6219355,17.5045161 56.2976129,16.2137419 C56.9411613,17.1 57.6582581,17.9580645 58.4636129,18.7634194 C62.13,22.4298065 66.8885806,24.4952903 71.2267097,24.4952903 C72.0014194,24.4952903 72.7589677,24.4217419 73.498129,24.2869032 C73.264,29.1987097 71.332129,33.661871 68.2639355,37.1100645 L51.4998065,20.3471613 Z M73.4723871,21.7972903 C69.3021935,22.762 64.0900645,20.9245161 60.1956774,17.030129 C59.4773548,16.3118065 58.8387097,15.5493548 58.2662581,14.7623871 C61.3050323,12.6147742 64.5595484,10.7454194 68.0028387,9.18374194 C71.1151613,12.5547097 73.1267097,16.9443226 73.4723871,21.7972903 Z M55.739871,2.698 C59.653871,3.27167742 63.2197419,4.9203871 66.113871,7.35851613 C62.8912258,8.88096774 59.8316129,10.6632903 56.9583226,12.6846452 C55.1416774,9.29406452 54.644,5.64729032 55.739871,2.698 Z M53.2416774,2.47858065 C52.1641935,6.04690323 52.8273548,10.2783871 54.9700645,14.1372258 C53.1485161,15.5309677 51.4152258,17.0289032 49.7652903,18.6126452 L38.8887097,7.73729032 C42.5710323,4.46070968 47.4043871,2.4516129 52.7096774,2.4516129 C52.889871,2.4516129 53.0627097,2.47367742 53.2416774,2.47858065 Z M2.4516129,42.9032258 L2.4516129,40.4516129 C2.4516129,39.7749677 3.002,39.2258065 3.67741935,39.2258065 L35.7714839,39.2258065 C37.6555484,41.2275484 39.8865161,42.8909677 42.3712258,44.1290323 L3.67741935,44.1290323 C3.002,44.1290323 2.4516129,43.579871 2.4516129,42.9032258 Z M14.2021935,46.5806452 L9.71083871,51.072 C8.95329032,49.5372903 8.10748387,48.0405806 7.18445161,46.5806452 L14.2021935,46.5806452 Z M18.3870968,71.8150968 L14.4792258,67.9072258 C14.3823871,66.886129 14.2573548,65.8699355 14.0967742,64.8623226 L18.3870968,60.5732258 L24.0086452,66.1935484 L18.3870968,71.8150968 Z M33.0967742,71.8150968 L27.4752258,66.1935484 L33.0967742,60.572 L38.7183226,66.1935484 L33.0967742,71.8150968 Z M47.8064516,71.8150968 L42.1849032,66.1935484 L47.8064516,60.572 L52.0967742,64.8610968 C51.9361935,65.8699355 51.8111613,66.886129 51.7143226,67.9072258 L47.8064516,71.8150968 Z M56.4827097,51.072 L51.9533548,46.5426452 C52.2070968,46.55 52.4547097,46.5806452 52.7096774,46.5806452 C55.1514839,46.5806452 57.5038065,46.1994194 59.7163871,45.4994839 C58.5126452,47.2965161 57.4278065,49.1548387 56.4827097,51.072 Z"/>
</svg>
