<svg xmlns="http://www.w3.org/2000/svg" width="59" height="76" viewBox="0 0 59 76">
  <g fill="#FFF">
    <path d="M7.56350627,30.2542441 L0.0773863716,50.2588134 C-0.0624408855,50.6338028 -0.0107311514,51.0535862 0.215896236,51.3832467 C0.442523624,51.7129072 0.815511585,51.9109046 1.21498302,51.9136032 L8.63994181,51.9136032 L8.63994181,60.0649749 C8.63668389,61.4606284 9.18851064,62.8000599 10.173338,63.7869387 C11.1581654,64.7738174 12.4948126,65.3267936 13.8875651,65.3235289 L23.3186083,65.3235289 L23.3186083,74.774217 C23.3186083,75.4511912 23.8662635,76 24.5418305,76 L48.6393079,76 C49.2784338,76.0020397 49.8114031,75.5106867 49.8625301,74.8722787 L52.993979,36.383095 C53.4114125,36.3209792 53.7674129,36.0476314 53.9358601,35.6598906 C54.4830999,34.4056321 54.7822039,33.0568607 54.8165801,31.6883952 C54.8286282,31.2586365 54.6151097,30.8539668 54.2538978,30.6219751 L53.4955001,30.1439247 L53.4955001,29.7516783 C53.7513486,26.5838729 53.256784,23.4003065 52.0520979,20.4603403 C52.5674718,20.2827607 53.0667368,20.0613142 53.544429,19.7984244 C53.9190189,19.5936769 54.160068,19.208124 54.1805045,18.7810352 L54.1805045,17.6655843 C54.9058757,17.0839462 55.5371719,16.393449 56.0520345,15.6185481 L57.1529345,15.4714557 C57.5795047,15.4173364 57.9463953,15.1427587 58.11928,14.7482513 C58.6665199,13.4939928 58.9656238,12.1452214 59,10.7767559 C58.9961783,10.3952553 58.8153069,10.0372901 58.5107111,9.80839743 L57.56883,9.14648153 C57.4221281,8.231869 57.1418598,7.3438805 56.7370389,6.51107564 L57.1529345,5.48142869 C57.33138,5.07833084 57.279998,4.61024854 57.01838,4.25565851 C56.2070794,3.15385329 55.1891089,2.22119875 54.0214856,1.5099333 C53.6430194,1.29097055 53.1767297,1.29097055 52.7982634,1.5099333 L51.8196857,2.02475677 C50.9530794,1.69201254 50.042105,1.48961106 49.1163646,1.42412939 L48.4435924,0.541574855 C48.2016763,0.181225235 47.7875369,-0.0239442955 47.3549246,0.00223597553 C45.9953326,0.155169066 44.6783703,0.571479944 43.4773102,1.22800616 C43.0990924,1.43498232 42.8574623,1.82612097 42.8412347,2.25765311 L42.8412347,3.37310397 C42.118987,3.95808032 41.4881587,4.64806574 40.9697047,5.42014018 L39.8688047,5.5549749 C39.446799,5.61312165 39.0853711,5.88707893 38.9146914,6.2781793 C38.582515,7.01552418 38.3362458,7.7887749 38.1807581,8.58262725 C37.1414083,8.3026013 36.0752874,8.13413204 35.0003803,8.08006147 C34.5435116,7.3871988 34.0278465,6.73512313 33.4591204,6.13108688 C33.1594717,5.81899993 32.7177195,5.68852807 32.2970593,5.78787123 L30.5478515,6.13108688 C29.4061505,5.28637356 28.1332229,4.63615953 26.7803271,4.2066277 L26.0830905,2.53958025 C25.9157605,2.14372643 25.5537125,1.86464786 25.1289771,1.80411814 C23.2771397,1.53557774 21.3908217,1.63133916 19.5755483,2.08604528 C19.1603389,2.1922625 18.8308726,2.50846491 18.7070606,2.91956901 L18.181075,4.69693577 C16.8794009,5.26286612 15.6806245,6.04162269 14.6337306,7.00138371 L12.8478262,6.78074508 C12.4231447,6.72629439 12.0009623,6.89830851 11.734694,7.23428005 C10.5817565,8.68888998 9.72180284,10.3540975 9.20262402,12.1373608 C9.06411847,12.5666977 9.17219473,13.0375732 9.48396513,13.363131 L10.7071873,14.6869627 C10.5366273,16.0946937 10.6111257,17.5214064 10.9273673,18.9036122 L9.86316401,20.3622787 C9.59340279,20.712217 9.53263619,21.180626 9.70414513,21.5880489 L9.70414513,21.6983682 C9.50842957,22.2499648 9.33717847,22.8260768 9.17815958,23.4634772 L7.56350627,30.2542441 Z M38.4620992,34.8386245 C37.9725806,33.9808191 37.6722597,33.0278219 37.5813792,32.0438685 C37.5493137,31.662317 37.3411632,31.3176997 37.018697,31.1122832 L36.2113703,30.6464905 C36.2705509,30.0536101 36.3977917,29.4695509 36.5905692,28.9058969 L37.5446825,28.7833198 C37.9234011,28.7356 38.2581817,28.5134592 38.449867,28.1826924 C38.9353165,27.2959269 39.6174566,26.5326869 40.4437191,25.9517907 C40.7541864,25.7306337 40.9441199,25.3771651 40.9574725,24.99569 L40.9574725,24.0273315 C41.5030802,23.7892871 42.0733145,23.6125162 42.6577513,23.5002504 L43.244898,24.2602279 C43.4758333,24.5608443 43.8326604,24.7373664 44.2112435,24.7382782 L44.2112435,24.7382782 C45.1963915,24.7390755 46.1693446,24.9566675 47.0613513,25.3756787 C47.4042404,25.5464194 47.8071299,25.5464194 48.150019,25.3756787 L49.0062746,24.9344015 C49.4835001,25.2967549 49.9221089,25.7075236 50.3151223,26.1601716 L49.9481557,27.0549839 C49.8004471,27.4100253 49.8276219,27.8139575 50.021549,28.1459193 C50.5146256,29.0021597 50.8151982,29.9559556 50.902269,30.9406754 C50.9169005,31.0914941 50.9627255,31.2376045 51.0368234,31.3696949 L51.1469134,31.5535604 C51.2271755,31.6524376 51.3173507,31.7428006 51.4160223,31.8232299 L51.4160223,31.8232299 L52.223349,32.3380534 C52.1641307,32.9349259 52.0369024,33.5230404 51.8441501,34.0909047 L50.8900368,34.2134817 C50.5113182,34.2612015 50.1765376,34.4833424 49.9848523,34.8141091 C49.4920335,35.6748835 48.8153334,36.4157811 48.0032324,36.9837224 C47.6914502,37.1996872 47.4971845,37.548283 47.4772468,37.9275654 L47.4772468,38.8959238 C46.9334654,39.1416635 46.3628116,39.3226784 45.776968,39.4352627 L45.1898213,38.6630275 C44.9562698,38.358985 44.5941219,38.1820701 44.2112435,38.1849771 L44.2112435,38.1849771 C43.2301791,38.1827856 42.2615081,37.9652174 41.373368,37.5475766 C41.0304789,37.3768359 40.6275894,37.3768359 40.2847003,37.5475766 L39.4284447,38.0011116 C38.9487118,37.641751 38.5097999,37.2306985 38.119597,36.7753414 L38.4865636,35.8805292 C38.6334883,35.5468737 38.6245214,35.1649861 38.4620992,34.8386245 Z M41.813728,7.87168054 C42.1924466,7.82396073 42.5272272,7.60181992 42.7189124,7.27105315 C43.2117313,6.41027878 43.8884314,5.6693812 44.7005324,5.10143993 C45.0109996,4.88028287 45.2009332,4.52681434 45.2142857,4.14533919 L45.2142857,3.18923845 C45.7574051,2.94176737 46.3282681,2.76068612 46.9145646,2.64989957 L47.5017113,3.40987708 C47.7301282,3.71510736 48.0873492,3.89635554 48.4680568,3.90018515 L48.4680568,3.90018515 C49.4521613,3.89833261 50.4248185,4.11167527 51.3181646,4.52532795 C51.6610537,4.69606863 52.0639432,4.69606863 52.4068323,4.52532795 L53.2508556,4.08405068 C53.7371419,4.4399446 54.1804793,4.85129728 54.5719356,5.30982086 L54.2661301,6.13108688 C54.1184215,6.48612829 54.1455963,6.89006053 54.3395234,7.22202234 C54.8326,8.0782627 55.1331726,9.03205858 55.2202434,10.0167784 C55.2523089,10.3983299 55.4604594,10.7429471 55.7829256,10.9483637 L56.5902523,11.4631872 C56.526858,12.0605091 56.3955283,12.648611 56.1988211,13.2160385 L55.2447078,13.3386155 C54.8704812,13.3899338 54.5409022,13.6116189 54.3517556,13.9392429 C53.8589368,14.8000173 53.1822367,15.5409149 52.3701356,16.1088562 C52.0583535,16.324821 51.8640878,16.6734168 51.8441501,17.0526992 L51.8441501,18.0210576 C51.2944676,18.2623969 50.7202679,18.4432356 50.131639,18.5603965 L49.5567246,17.7881613 C49.323173,17.4841188 48.9610252,17.3072039 48.5781468,17.3101109 L48.5781468,17.3101109 C47.5969491,17.3091175 46.6280216,17.0914917 45.7402713,16.6727104 C45.3973822,16.5019698 44.9944927,16.5019698 44.6516035,16.6727104 L43.795348,17.1262454 C43.3090617,16.7703515 42.8657243,16.3589988 42.474268,15.9004752 L42.8534669,15.005663 C42.9971162,14.6541314 42.9700086,14.2557251 42.7800736,13.9269852 C42.286997,13.0707449 41.9864244,12.116949 41.8993536,11.1322292 C41.8672881,10.7506777 41.6591376,10.4060604 41.3366714,10.2006439 L40.4437191,9.68582041 C40.5116453,9.08925446 40.6428642,8.50164825 40.8351503,7.93296905 L41.813728,7.87168054 Z M13.2514895,9.30583165 L14.9150717,9.51421258 C15.2961792,9.55997037 15.6766209,9.42381533 15.9425784,9.14648153 C16.980272,8.09780068 18.2321445,7.2865702 19.612245,6.76848738 C19.9690841,6.63735568 20.2448205,6.34745584 20.3584105,5.98399446 L20.8721639,4.36597782 C21.9488089,4.16663097 23.0472888,4.11303553 24.1381671,4.2066277 L24.7987071,5.75109813 C24.9464764,6.1030627 25.2494868,6.36591665 25.618266,6.46204483 C27.0166278,6.84506205 28.3176085,7.52197835 29.4347193,8.44779253 C29.726314,8.69293026 30.1151658,8.78808024 30.4866904,8.70520426 L32.1135759,8.32521551 C32.7721705,9.0862081 33.3274349,9.93114373 33.7649259,10.8380444 C33.8169025,10.9113176 33.8619489,10.9892871 33.8994803,11.0709407 L32.8842059,12.4192879 C32.6570867,12.7249478 32.5847543,13.1190744 32.6884904,13.485708 C33.0791235,14.9067043 33.1542794,16.396217 32.9086704,17.8494498 C32.8463582,18.2274733 32.9640233,18.6129489 33.2267081,18.8913545 L34.3643048,20.1171247 C34.0081475,21.1596862 33.5056606,22.1461168 32.8719737,23.0467154 L31.2083915,22.8383345 C30.8333491,22.7933924 30.4586223,22.9245938 30.1931171,23.1938078 C29.1544485,24.2412844 27.902855,25.0523342 26.5234504,25.571802 C26.1666114,25.7029337 25.8908749,25.9928335 25.7772849,26.3562949 L25.287996,27.9743115 C24.2388897,28.1939646 23.1646509,28.2682043 22.0953861,28.1949501 L21.4470783,26.6504797 C21.2993091,26.2985152 20.9962986,26.0356612 20.6275194,25.939533 C19.2022731,25.568833 17.8748267,24.8911781 16.7376728,23.9537853 C16.4431898,23.7048208 16.0488628,23.6094401 15.6734695,23.6963736 L14.046584,24.0763623 C13.6694653,23.6487901 13.329786,23.1894728 13.0313095,22.7034997 C12.9982878,22.6572292 12.969623,22.6079872 12.945684,22.5564073 C12.7023557,22.1607753 12.4818153,21.7515165 12.285144,21.3306371 L13.275954,20.019063 C13.5111876,19.7125041 13.5882649,19.3126848 13.4839017,18.9403853 C13.089193,17.5202922 13.0098612,16.0307691 13.2514895,14.5766434 C13.3170286,14.200571 13.2039697,13.8153702 12.945684,13.5347388 L11.7958551,12.3089686 C12.1355443,11.2434346 12.6257295,10.2321275 13.2514895,9.30583165 Z M12.7132718,26.2337179 C13.0128959,26.5371376 13.4484629,26.6625079 13.8631006,26.5646758 L15.6245406,26.1601716 C16.7574827,27.0117954 18.0276069,27.6626908 19.3798328,28.0846308 L20.0893016,29.7516783 C20.2544204,30.1441689 20.6110299,30.4226253 21.0311827,30.4871404 C21.4593105,30.5484289 21.8752061,30.585202 22.254405,30.6097174 L23.3430727,30.6097174 C23.7222716,30.6097174 24.0892383,30.6097174 24.4562049,30.5361712 L24.9699582,30.5361712 C25.4918664,30.462625 26.0178519,30.3645634 26.5479149,30.2419864 C26.9631243,30.1357691 27.2925906,29.8195667 27.4164027,29.4084626 L27.9546204,27.6801267 C29.2525112,27.1140123 30.4472318,26.3352049 31.4897326,25.3756787 L33.2878692,25.5963174 C33.7125507,25.6507681 34.1347331,25.4787539 34.4010015,25.1427824 C35.5523859,23.6662003 36.4080322,21.9804791 36.9208392,20.1784132 C37.035653,19.7676393 36.929095,19.3265915 36.6394981,19.0139315 L35.4162759,17.6900997 C35.5912066,16.2882564 35.5291773,14.8668968 35.2327926,13.485708 L36.3214603,12.0392992 C36.6040761,11.6633034 36.6468609,11.1583434 36.4315503,10.7399828 L37.1043225,10.8503021 L38.2541514,11.1567446 L38.2541514,11.1567446 C38.3350464,11.247674 38.4252436,11.3298423 38.5232603,11.4018987 L39.4651414,11.9902684 C39.6004943,12.9114502 39.8812688,13.8051799 40.2969325,14.6379319 L39.8688047,15.6675789 C39.6938412,16.0728382 39.749913,16.541077 40.0155914,16.8933491 C40.833406,17.9915439 41.8603084,18.9164313 43.0369502,19.6145589 C43.4154165,19.8335216 43.8817062,19.8335216 44.2601724,19.6145589 L45.2509824,19.0997354 C46.1185467,19.4292761 47.0290461,19.6315721 47.9543035,19.7003628 L48.6270757,20.5829173 C48.8782947,20.9123747 49.2786912,21.0922367 49.691279,21.0609677 C49.9474451,21.6226141 50.1680617,22.1998684 50.351819,22.7893036 L49.7891368,22.4215726 C49.4106705,22.2026098 48.9443809,22.2026098 48.5659146,22.4215726 L47.5873368,22.9363961 C46.7211503,22.6022548 45.809965,22.3998064 44.8840158,22.3357687 L44.2112435,21.4532142 C43.9504734,21.1080717 43.5273641,20.9263614 43.0981113,20.9751638 C41.7402249,21.1361094 40.4247483,21.5519507 39.2204969,22.200934 C38.8422791,22.4079101 38.600649,22.7990488 38.5844214,23.2305809 L38.5844214,24.3460318 C37.8590502,24.9276699 37.227754,25.618167 36.7128914,26.393068 L35.6119914,26.5279027 C35.1854212,26.582022 34.8185306,26.8565997 34.6456459,27.2511071 C34.0971579,28.5092639 33.7980338,29.862289 33.7649259,31.2348602 C33.7528777,31.6646188 33.9663963,32.0692886 34.3276081,32.3012803 L35.2694892,32.8896499 C35.3993691,33.8098536 35.6631257,34.706016 36.0523514,35.5495712 L35.6242237,36.5792182 C35.4492601,36.9844775 35.505332,37.4527163 35.7710103,37.8049884 C36.5918009,38.8714876 37.609153,39.7702868 38.7679047,40.452652 C39.146371,40.6716147 39.6126607,40.6716147 39.9911269,40.452652 L40.9819369,39.9378285 C41.8463969,40.2776753 42.758467,40.4803203 43.685258,40.5384559 L44.3580302,41.4332681 C44.6300225,41.7625665 45.0462467,41.9367365 45.4711624,41.8990608 C46.8280089,41.7514607 48.1419832,41.3347799 49.3365446,40.6732906 C49.7111345,40.4685431 49.9521836,40.0829902 49.9726201,39.6559013 L49.9726201,38.5404505 L50.3640512,38.2094925 L47.5139435,73.5484469 L25.7650527,73.5484469 L25.7650527,64.0977588 C25.7650527,63.4207846 25.2173974,62.8719886 24.5418305,62.8719886 L13.8997973,62.8719886 C13.1547613,62.8752488 12.439124,62.5809506 11.9111525,62.0541797 C11.383181,61.5274087 11.0863791,60.8115698 11.0863862,60.0649749 L11.0863862,50.7000907 C11.0863862,50.0231165 10.538731,49.4743205 9.86316401,49.4743205 L2.93972633,49.4743205 L9.88762846,31.0877678 L9.88762846,30.9406754 L11.3799595,24.7260205 C11.4277862,24.776541 11.47271,24.8297435 11.514514,24.8853707 C11.8839999,25.3608104 12.2844597,25.8112424 12.7132718,26.2337179 Z"/>
    <path d="M23.4975521 23L23.8409401 23C26.4678905 22.8618777 28.7526431 21.1528637 29.6287033 18.6707047 30.5047635 16.1885457 29.7993816 13.422697 27.8418212 11.664223 25.8842608 9.90574898 23.0605319 9.50140194 20.6887167 10.6399261 18.3169015 11.7784503 16.8646965 14.2353409 17.0099734 16.8637514 17.2169426 20.301225 20.0562952 22.9868145 23.4975521 23L23.4975521 23zM23.3013305 12.4579249C25.5216915 12.3394178 27.41937 14.0408482 27.544624 16.262399 27.6083022 17.3349398 27.2434774 18.3888461 26.5304519 19.1921406 25.8174264 19.995435 24.814644 20.4822748 23.7428292 20.5455006 22.2819649 20.6493126 20.879035 19.955221 20.0744776 18.7306045 19.2699202 17.5059881 19.1892827 15.9419423 19.8636284 14.6409706 20.5379741 13.3399988 21.8620744 12.5051116 23.3258582 12.4579249L23.3013305 12.4579249zM43.9878712 35.9988659L44.2086866 35.9988659C46.2281201 35.9506331 48.0119821 34.6563756 48.7033904 32.7377929 49.3947988 30.8192103 48.8524672 28.6683568 47.3369058 27.3183999 46.3924397 26.424989 45.1331254 25.9515292 43.8406609 26.0039293 41.1102683 26.0621433 38.943533 28.3467778 39.0011219 31.1068033 39.0587108 33.8668288 41.3188163 36.0570798 44.0492088 35.9988659L43.9878712 35.9988659zM42.1477423 29.2901057C42.5872125 28.8077589 43.1933517 28.5147201 43.8406609 28.4716588L43.9510686 28.4716588C44.5751479 28.470683 45.176142 28.7101421 45.6317197 29.1412978L45.6317197 29.1412978C46.4205548 29.8126006 46.7099725 30.9108537 46.3560403 31.889877 46.0021081 32.8689003 45.0803647 33.5197442 44.0492088 33.5187328 43.3889769 33.5525127 42.7431965 33.3155413 42.25815 32.8614975 41.7568559 32.4163133 41.4565616 31.7839394 41.4264723 31.1101117 41.396383 30.4362839 41.6390946 29.7791334 42.0986721 29.2901057L42.1477423 29.2901057zM48.9717693 15.9999507C50.3939462 16.0062191 51.7538322 15.4148053 52.7217467 14.3690368 54.5567203 12.3162606 54.3972433 9.16203981 52.3646517 7.30622331 50.3320602 5.45040682 47.1881675 5.58855289 45.3249645 7.61555484 43.4617615 9.64255678 43.577575 12.7986962 45.5842896 14.6826645 46.5146891 15.5231477 47.7200058 15.9918404 48.9717693 15.9999507L48.9717693 15.9999507zM47.0967805 9.21299846C48.0390153 8.21756417 49.6034804 8.16709231 50.6074705 9.09973864 51.6114607 10.032385 51.6820435 11.6017179 50.7658598 12.621352 49.849676 13.6409861 48.2870423 13.7321782 47.2592795 12.8259889 46.2345689 11.8666659 46.1623553 10.2610743 47.0967805 9.21299846L47.0967805 9.21299846z"/>
  </g>
</svg>
