<svg xmlns="http://www.w3.org/2000/svg" width="76" height="76" viewBox="0 0 76 76">
  <path fill="#FFF" d="M46.24 17.0670992L48.41 17.0670992 48.41 20.7243347C48.3842502 21.2773088 48.7406965 21.7779264 49.278 21.9434132 49.794158 22.1035266 50.3563139 21.9160132 50.6668 21.4801634L53.804 17.0670992 74.76 17.0670992C75.4448331 17.0670992 76 16.5212991 76 15.8480207L76 1.21907851C76 .545800041 75.4448331 0 74.76 0L46.24 0C45.5551669 0 45 .545800041 45 1.21907851L45 15.8480207C45 16.5212991 45.5551669 17.0670992 46.24 17.0670992zM47.48 2.43815702L73.52 2.43815702 73.52 14.6289421 53.1592 14.6289421C52.757834 14.6335561 52.3835668 14.8288889 52.1548 15.1531459L50.9148 16.8964282 50.9148 15.8480207C50.9148 15.1747422 50.3596331 14.6289421 49.6748 14.6289421L47.48 14.6289421 47.48 2.43815702zM51.2001834 32.1001518C49.790216 33.4485181 48.9986508 35.2787348 49.0001082 37.1868004L49.0001082 41.2680878C48.9853942 44.0269862 50.4727093 46.5940069 52.9251564 48.0423069L52.9251564 48.0423069C55.1039145 49.319231 57.8462869 49.319231 60.025045 48.0423069L60.025045 48.0423069C62.4966556 46.6057191 64.004173 44.0365585 63.9999913 41.2680878L63.9999913 37.1868004C63.9947228 35.2800379 63.2041943 33.4522179 61.8000171 32.1001518 58.8718876 29.2999494 54.128313 29.2999494 51.2001834 32.1001518L51.2001834 32.1001518zM61.5000218 37.1868004L61.5000218 41.2680878C61.5286608 43.2103932 60.4953184 45.025856 58.7750646 46.0555218L58.7750646 46.0555218C57.3956242 46.8697954 55.6545756 46.8697954 54.2751352 46.0555218L54.2751352 46.0555218C52.5519472 45.0270931 51.5141818 43.2121847 51.5376781 41.2680878L51.5376781 37.1868004C51.5366351 35.9167119 52.062727 34.6982784 53.0001552 33.7996909 54.9802335 31.9911017 58.0949659 31.9911017 60.0750442 33.7996909 60.9987384 34.7041234 61.5110402 35.9218423 61.5000218 37.1868004zM19.4999974 29C15.3579041 29 12.0000368 32.3495714 12.0000368 36.481477L12.0000368 41.4691284C11.9921505 43.9012571 13.251202 46.1629201 15.3250401 47.4418409L16.412529 48.127643C18.3057083 49.2907857 20.6942865 49.2907857 22.5874659 48.127643L23.6874547 47.4418409C25.7546927 46.1581765 27.0080966 43.8981622 26.9999606 41.4691284L26.9999606 36.481477C26.9999606 32.3495714 23.6420908 29 19.4999974 29zM24.4999791 41.4691284C24.5059037 43.039739 23.6974265 44.5017947 22.3624682 45.3345582L21.2624795 46.0078911C20.1824788 46.6744064 18.8175161 46.6744064 17.7375154 46.0078911L16.6500265 45.3220891C15.3104531 44.4981149 14.4962683 43.0390201 14.5000354 41.4691284L14.5000354 36.481477C14.5000354 34.6995608 15.4530333 33.0530023 17.0000229 32.1620442 18.5470125 31.271086 20.4529823 31.271086 21.999972 32.1620442 23.5469616 33.0530023 24.4999791 34.6995608 24.4999791 36.481477L24.4999791 41.4691284zM1.24113475 23.0718517L19.212766 23.0718517 22.3404255 27.4739507C22.5721154 27.7936767 22.9462763 27.9842913 23.3457447 27.9861062 23.4733023 28.0046313 23.6029389 28.0046313 23.7304965 27.9861062 24.2633634 27.8161258 24.6142614 27.3164763 24.5868794 26.7666882L24.5868794 23.0718517 26.7588652 23.0718517C27.444325 23.0718517 28 22.5258997 28 21.8524338L28 7.21941798C28 6.54595203 27.444325 6 26.7588652 6L1.24113475 6C.555674956 6 0 6.54595203 0 7.21941798L0 21.8524338C0 22.5258997.555674956 23.0718517 1.24113475 23.0718517zM2.4822695 8.43883596L25.5425532 8.43883596 25.5425532 20.6330158 23.3705674 20.6330158C22.6851076 20.6330158 22.1294326 21.1789678 22.1294326 21.8524338L22.1294326 22.9011332 20.8882979 21.1573655C20.6543124 20.8259514 20.2686677 20.6296554 19.858156 20.6330158L2.4822695 20.6330158 2.4822695 8.43883596zM33.1965935 44.9602636L34.6440829 45.8841813C37.0048191 47.3719396 39.9951809 47.3719396 42.3559171 45.8841813L43.8034065 44.9602636C46.4211224 43.3174271 48.0097625 40.4167435 47.9999549 37.2979068L47.9999549 30.621062C47.9999549 25.3074962 43.7466549 21 38.5 21 33.2533451 21 29.0000451 25.3074962 29.0000451 30.621062L29.0000451 37.2979068C28.9902375 40.4167435 30.5788776 43.3174271 33.1965935 44.9602636L33.1965935 44.9602636zM31.4328276 30.621062C31.4328276 26.6682044 34.5969186 23.4637801 38.5 23.4637801 42.4030814 23.4637801 45.5671724 26.6682044 45.5671724 30.621062L45.5671724 37.2979068C45.5724871 39.5680447 44.4174078 41.6792956 42.5140462 42.8783692L41.0665568 43.8146058C39.4946968 44.8030414 37.5053032 44.8030414 35.9334432 43.8146058L34.4859538 42.903007C32.5825922 41.7039335 31.4275129 39.5926825 31.4328276 37.3225446L31.4328276 30.621062zM1.22739353 76.0000086L73.7728919 76.0000086C74.4505944 76.0000086 74.9999904 75.4505316 74.9999904 74.7727281L74.9999904 58.9531928C75.0032386 56.8744234 74.1798565 54.8796792 72.7113133 53.4086149 71.2427701 51.9375505 69.2496153 51.1109225 67.1711533 51.1109251L54.7530132 51.1109251C53.231017 49.7578977 51.2674228 49.0072564 49.231113 49.0000086L26.8490107 49.0000086C24.8174924 48.9970893 22.8544775 49.7344204 21.3271104 51.0741069L7.82913204 51.0741069C5.74426559 51.0740659 3.74549796 51.9057448 2.27588888 53.3847883.806279791 54.8638318-.0127666782 56.8680564.000150500354 58.9531928L.000150500354 74.7727281C.000150500354 75.0982208.129586799 75.4103822.359710616 75.6405404.589834432 75.8706985.901949306 76.0000086 1.22739353 76.0000086zM70.9751291 55.136377C71.9833648 56.150442 72.5482332 57.5231003 72.5458107 58.9531928L72.5458107 73.5454561 68.7172854 73.5454561 68.7172854 63.7272806C68.7172854 63.049477 68.167899 62.5000087 67.4901965 62.5000087 66.812494 62.5000087 66.2631075 63.049477 66.2631075 63.7272806L66.2631075 73.5454561 57.6734849 73.5454561 57.6734849 57.4804664C57.6755781 56.1172696 57.3471524 54.7738921 56.7163555 53.5654686L67.1711533 53.5654686C68.5970479 53.5649449 69.9649851 54.1298549 70.9751291 55.136377zM49.231113 51.4545612C50.8256796 51.4545612 52.3544057 52.0905739 53.4784742 53.2217213 54.6025426 54.3528687 55.2291097 55.8856921 55.2194203 57.4804664L55.2194203 73.5454561 50.3109513 73.5454561 50.3109513 63.7272806C50.3109513 63.049477 49.7615648 62.5000087 49.0838623 62.5000087 48.4061598 62.5000087 47.8567734 63.049477 47.8567734 63.7272806L47.8567734 73.5454561 28.2233503 73.5454561 28.2233503 63.7272806C28.2233503 63.049477 27.6739638 62.5000087 26.9962613 62.5000087 26.3185588 62.5000087 25.7691724 63.049477 25.7691724 63.7272806L25.7691724 73.5454561 20.8607033 73.5454561 20.8607033 57.4804664C20.851014 55.8856921 21.477581 54.3528687 22.6016495 53.2217213 23.7257179 52.0905739 25.254444 51.4545612 26.8490107 51.4545612L49.231113 51.4545612zM2.45448247 58.9531928C2.45448247 55.9776351 4.86628891 53.5654689 7.84140293 53.5654689L19.376039 53.5654689C18.7400583 54.7724608 18.4073504 56.1161274 18.4066387 57.4804664L18.4066387 73.5454561 9.81701613 73.5454561 9.81701613 63.7272806C9.81701613 63.049477 9.2676297 62.5000087 8.58992719 62.5000087 7.91222468 62.5000087 7.36283824 63.049477 7.36283824 63.7272806L7.36283824 73.5454561 2.45448247 73.5454561 2.45448247 58.9531928z"/>
</svg>
