<svg xmlns="http://www.w3.org/2000/svg" width="76" height="76" viewBox="0 0 76 76">
  <g fill="#FFF">
    <path d="M10.8333333 20L6.16666667 20C5.52233446 20 5 20.5687853 5 21.2704174L5 25.7295826C5 26.4312147 5.52233446 27 6.16666667 27 6.81099887 27 7.33333333 26.4312147 7.33333333 25.7295826L7.33333333 22.5408348 10.8333333 22.5408348C11.4776655 22.5408348 12 21.9720496 12 21.2704174 12 20.5687853 11.4776655 20 10.8333333 20zM65.1666667 22.5408348L68.6666667 22.5408348 68.6666667 25.7295826C68.6666667 26.4312147 69.1890011 27 69.8333333 27 70.4776655 27 71 26.4312147 71 25.7295826L71 21.2704174C71 20.5687853 70.4776655 20 69.8333333 20L65.1666667 20C64.5223345 20 64 20.5687853 64 21.2704174 64 21.9720496 64.5223345 22.5408348 65.1666667 22.5408348zM69.8333333 53C69.1890011 53 68.6666667 53.5729447 68.6666667 54.2797076L68.6666667 57.4405851 65.1666667 57.4405851C64.5223345 57.4405851 64 58.0135296 64 58.7202925 64 59.4270554 64.5223345 60 65.1666667 60L69.8333333 60C70.4776655 60 71 59.4270554 71 58.7202925L71 54.2413164C70.9810728 53.5495901 70.464241 52.9996886 69.8333333 53zM10.8333333 57.4545455L7.33333333 57.4545455 7.33333333 54.2727273C7.33333333 53.5698194 6.81099887 53 6.16666667 53 5.52233446 53 5 53.5698194 5 54.2727273L5 58.7272727C5 59.4301806 5.52233446 60 6.16666667 60L10.8333333 60C11.4776655 60 12 59.4301806 12 58.7272727 12 58.0243649 11.4776655 57.4545455 10.8333333 57.4545455zM52.7906274 37L23.2093726 37C22.5414546 37 22 37.4477153 22 38 22 38.5522847 22.5414546 39 23.2093726 39L52.7906274 39C53.4585454 39 54 38.5522847 54 38 54 37.4477153 53.4585454 37 52.7906274 37zM52.7906274 44L23.2093726 44C22.5414546 44 22 44.4477153 22 45 22 45.5522847 22.5414546 46 23.2093726 46L52.7906274 46C53.4585454 46 54 45.5522847 54 45 54 44.4477153 53.4585454 44 52.7906274 44zM38 53C34.6862915 53 32 55.6862915 32 59 32 62.3137085 34.6862915 65 38 65 41.3137085 65 44 62.3137085 44 59 44 55.6862915 41.3137085 53 38 53zM38 62.6C36.0117749 62.6 34.4 60.9882251 34.4 59 34.4 57.0117749 36.0117749 55.4 38 55.4 39.9882251 55.4 41.6 57.0117749 41.6 59 41.6 60.9882251 39.9882251 62.6 38 62.6z"/>
    <path d="M74.7741935,14.9490079 L62.516129,14.9490079 L65.5070968,13.7225922 C65.9600383,13.5306591 66.2544378,13.0864261 66.2548387,12.5942897 C66.2544378,12.1021534 65.9600383,11.6579204 65.5070968,11.4659873 L38.5393548,0.097113902 C38.2337839,-0.0323713007 37.8887968,-0.0323713007 37.5832258,0.097113902 L10.6154839,11.4659873 C10.1625423,11.6579204 9.86814283,12.1021534 9.86774194,12.5942897 C9.86814283,13.0864261 10.1625423,13.5306591 10.6154839,13.7225922 L13.6064516,14.9490079 L1.22580645,14.9490079 C0.548812242,14.9490079 0,15.4980929 0,16.1754235 L0,63.7358238 C0,64.4131545 0.548812242,64.9622395 1.22580645,64.9622395 L24.516129,64.9622395 L21.9051613,69.4999776 C21.6905877,69.8707927 21.685002,70.3267631 21.8904276,70.7027284 C22.0958532,71.0786936 22.4825018,71.3201361 22.9103226,71.3396011 L27.8135484,71.5480918 L29.9341935,75.3745087 C30.1487159,75.7564101 30.5505548,75.9948283 30.9883871,76 L30.9883871,76 C31.4280652,76.0017271 31.8350014,75.7677395 32.0548387,75.3867728 L36.0509677,68.4452601 C37.3091024,68.6986399 38.6050911,68.6986399 39.8632258,68.4452601 L43.8593548,75.3745087 C44.0791922,75.7554753 44.4861284,75.989463 44.9258065,75.9877165 L44.9258065,75.9877165 C45.3680334,75.9869541 45.7755672,75.7479362 45.9922581,75.3622445 L48.1129032,71.5358276 L53.016129,71.3273369 C53.4432306,71.306847 53.8287948,71.0651686 54.0335484,70.6896008 C54.2525176,70.3101464 54.2525176,69.8426394 54.0335484,69.4631851 L51.483871,64.9622395 L74.7741935,64.9622395 C75.4511878,64.9622395 76,64.4131545 76,63.7358238 L76,16.1754235 C76,15.4980929 75.4511878,14.9490079 74.7741935,14.9490079 Z M20.8387097,18.0273112 L37.5219355,25.0546731 C37.6720989,25.12228 37.8353604,25.1557861 38,25.1527864 C38.1647538,25.1570497 38.3282934,25.1234864 38.4780645,25.0546731 L55.1612903,18.0273112 L55.1612903,26.0112773 L49.7922581,28.2801464 C42.2488406,31.4444066 33.7511594,31.4444066 26.2077419,28.2801464 L20.8387097,26.0112773 L20.8387097,18.0273112 Z M38,2.5131528 L61.8174194,12.5574973 L55.9090323,15.0103286 L55.9090323,15.0103286 L38,22.6018417 L20.0909677,15.0471211 L20.0909677,15.0471211 L14.1948387,12.5942897 L38,2.5131528 Z M31.0129032,72.3207336 L29.6032258,69.7943173 C29.3984723,69.4187495 29.012908,69.1770711 28.5858065,69.1565812 L24.9819355,69.0094113 L28.8432258,62.33771 C29.7371925,64.6769348 31.491402,66.5855858 33.7464516,67.6726182 L31.0129032,72.3207336 Z M30.6451613,58.8301611 C30.6451613,54.766177 33.9380347,51.471667 38,51.471667 C42.0619653,51.471667 45.3548387,54.766177 45.3548387,58.8301611 C45.3548387,62.8941452 42.0619653,66.1886552 38,66.1886552 C33.9380347,66.1886552 30.6451613,62.8941452 30.6451613,58.8301611 Z M47.316129,69.1197887 C46.8890275,69.1402786 46.5034632,69.381957 46.2987097,69.7575249 L44.9012903,72.3207336 L42.2412903,67.7094107 C44.4926601,66.611395 46.2446476,64.7007796 47.1445161,62.3622383 L50.92,69.0094113 L47.316129,69.1197887 Z M73.5483871,62.5094081 L50.0864516,62.5094081 L47.8064516,58.511293 C47.8064516,53.0926476 43.4159537,48.6999675 38,48.6999675 C32.5840463,48.6999675 28.1935484,53.0926476 28.1935484,58.511293 L25.8767742,62.5094081 L2.4516129,62.5094081 L2.4516129,17.4018392 L18.3870968,17.4018392 L18.3870968,26.8329759 C18.3874977,27.3251122 18.6818972,27.7693452 19.1348387,27.9612783 L25.263871,30.5367512 C29.2987855,32.220231 33.6282997,33.0832289 38,33.0754317 C42.3776165,33.078404 46.7117777,32.2069714 50.7483871,30.5122229 L56.8774194,27.93675 C57.3303609,27.7448169 57.6247604,27.3005839 57.6251613,26.8084475 L57.6251613,17.4018392 L73.5483871,17.4018392 L73.5483871,62.5094081 Z"/>
  </g>
</svg>
