<svg xmlns="http://www.w3.org/2000/svg" width="76" height="76" viewBox="0 0 76 76">
  <g fill="#FFF">
    <path d="M1.22859286,75.962161 L35.6291929,75.962161 C36.307726,75.962161 36.8577858,75.413622 36.8577858,74.7369648 L36.8577858,12.6072683 L57.2401413,75.1535315 C57.3422477,75.4623016 57.5632351,75.7179383 57.8544377,75.8641453 C58.0233492,75.9575036 58.214253,76.0040399 58.4073045,75.99953 C58.5370507,76.003467 58.666436,75.9826561 58.7881683,75.937657 L75.1530252,70.6448097 C75.7972975,70.434657 76.1491577,69.7438472 75.9393246,69.1010625 L72.253546,57.8537619 L72.253546,57.8537619 L55.9378328,7.70648375 L55.9378328,7.70648375 L53.7140798,0.882141224 C53.5033444,0.239650152 52.8106195,-0.111237344 52.1660528,0.0980156916 L36.8577858,5.06006008 L36.8577858,1.22519614 C36.8577858,0.548538998 36.307726,-5.68434189e-14 35.6291929,-5.68434189e-14 L1.22859286,-5.68434189e-14 C0.550059759,-5.68434189e-14 0,0.548538998 0,1.22519614 L0,74.7369648 C0,75.413622 0.550059759,75.962161 1.22859286,75.962161 Z M2.45718572,14.604338 L17.2003,14.604338 L17.2003,61.4313347 L2.45718572,61.4313347 L2.45718572,14.604338 Z M19.6574857,14.604338 L34.4006,14.604338 L34.4006,61.4313347 L19.6574857,61.4313347 L19.6574857,14.604338 Z M17.2003,63.881727 L17.2003,66.1605918 L2.45718572,66.1605918 L2.45718572,63.881727 L17.2003,63.881727 Z M19.6574857,63.881727 L34.4006,63.881727 L34.4006,66.1605918 L19.6574857,66.1605918 L19.6574857,63.881727 Z M34.4006,12.1539458 L19.6574857,12.1539458 L19.6574857,9.80156916 L34.4006,9.80156916 L34.4006,12.1539458 Z M17.2003,12.1539458 L2.45718572,12.1539458 L2.45718572,9.80156916 L17.2003,9.80156916 L17.2003,12.1539458 Z M2.45718572,68.6109841 L17.2003,68.6109841 L17.2003,73.5117687 L2.45718572,73.5117687 L2.45718572,68.6109841 Z M19.6574857,73.5117687 L19.6574857,68.6109841 L34.4006,68.6109841 L34.4006,73.5117687 L19.6574857,73.5117687 Z M69.5506417,57.4494472 L55.5323972,61.9826729 L41.3912934,18.5984775 L55.4218238,14.0529998 L69.5506417,57.4494472 Z M71.0003813,61.8724053 L56.9698508,66.405631 L56.2941248,64.3227976 L70.3123693,59.7773199 L71.0003813,61.8724053 Z M54.6600963,11.7251271 L40.6418518,16.2706048 L39.9538398,14.1755194 L53.9720843,9.63004169 L54.6600963,11.7251271 Z M59.1936039,73.2299735 L57.7438643,68.7457557 L71.7498229,64.200278 L73.2241344,68.6844959 L59.1936039,73.2299735 Z M51.7483312,2.80569917 L53.2226426,7.35117687 L39.1921122,11.8476467 L37.7300867,7.35117687 L51.7483312,2.80569917 Z M34.4006,7.35117687 L19.6574857,7.35117687 L19.6574857,2.45039229 L34.4006,2.45039229 L34.4006,7.35117687 Z M17.2003,2.45039229 L17.2003,7.35117687 L2.45718572,7.35117687 L2.45718572,2.45039229 L17.2003,2.45039229 Z"/>
    <path d="M9 24C8.44771525 24 8 24.5450447 8 25.2173913L8 50.7826087C8 51.4549553 8.44771525 52 9 52 9.55228475 52 10 51.4549553 10 50.7826087L10 25.2173913C10 24.5450447 9.55228475 24 9 24zM26 24C25.4477153 24 25 24.5450447 25 25.2173913L25 50.7826087C25 51.4549553 25.4477153 52 26 52 26.5522847 52 27 51.4549553 27 50.7826087L27 25.2173913C27 24.5450447 26.5522847 24 26 24zM50.0585702 26.5894664L57.6136589 50.1639404C57.7800316 50.6832543 58.2690765 51.0252276 58.8071958 50.9985421 58.9331266 51.001292 59.0585005 50.9807989 59.1771922 50.9380637 59.8030813 50.7305916 60.1449018 50.0485938 59.9410559 49.4140084L52.3382257 25.8395344C52.2060387 25.4268437 51.8666429 25.1169698 51.4478855 25.0266393 51.0291281 24.9363088 50.5946282 25.079245 50.3080577 25.4016053 50.0214873 25.7239655 49.9263832 26.1767756 50.0585702 26.5894664L50.0585702 26.5894664z"/>
  </g>
</svg>
