<svg xmlns="http://www.w3.org/2000/svg" width="24" height="24" viewBox="0 0 24 24">
  <path  fill-rule="evenodd" d="M12.71,12.54 C12.5222334,12.3506874 12.2666375,12.2442017 12,12.2442017 C11.7333625,12.2442017 11.4777666,12.3506874 11.29,12.54 L8.28999998,15.54 C7.88683214,15.9321222 7.87787784,16.5768321 8.27000001,16.98 C8.66212217,17.3831679 9.30683212,17.3921222 9.70999999,17 L12,14.66 L14.29,17 C14.4777666,17.1893127 14.7333625,17.2957983 15,17.2957983 C15.2666375,17.2957983 15.5222334,17.1893127 15.71,17 C15.8993127,16.8122334 16.0057983,16.5566376 16.0057983,16.29 C16.0057983,16.0233625 15.8993127,15.7677666 15.71,15.58 L12.71,12.54 Z M9.70999999,11.46 L12,9.15999999 L14.29,11.46 C14.4777666,11.6493126 14.7333625,11.7557983 15,11.7557983 C15.2666375,11.7557983 15.5222334,11.6493126 15.71,11.46 C15.8993127,11.2722334 16.0057983,11.0166375 16.0057983,10.75 C16.0057983,10.4833625 15.8993127,10.2277666 15.71,10.04 L12.71,7.03999998 C12.5222334,6.85068733 12.2666375,6.74420165 12,6.74420165 C11.7333625,6.74420165 11.4777666,6.85068733 11.29,7.03999998 L8.28999998,10.04 C7.89787782,10.4321222 7.89787783,11.0678778 8.29,11.46 C8.68212216,11.8521222 9.31787781,11.8521222 9.70999999,11.46 L9.70999999,11.46 Z"/>
</svg>
