<svg xmlns="http://www.w3.org/2000/svg" width="24" height="24" viewBox="0 0 24 24">
  <path  fill-rule="evenodd" d="M11.46,8.28999998 C11.2722334,8.10068733 11.0166375,7.99420166 10.75,7.99420166 C10.4833625,7.99420166 10.2277666,8.10068733 10.04,8.28999998 L7.03999998,11.29 C6.85068733,11.4777666 6.74420165,11.7333625 6.74420165,12 C6.74420165,12.2666375 6.85068733,12.5222334 7.03999998,12.71 L10.04,15.71 C10.2277666,15.8993127 10.4833625,16.0057983 10.75,16.0057983 C11.0166375,16.0057983 11.2722334,15.8993127 11.46,15.71 C11.6493126,15.5222334 11.7557983,15.2666375 11.7557983,15 C11.7557983,14.7333625 11.6493126,14.4777666 11.46,14.29 L9.15999999,12 L11.46,9.70999999 C11.6493126,9.52223339 11.7557983,9.26663752 11.7557983,8.99999999 C11.7557983,8.73336245 11.6493126,8.47776659 11.46,8.28999998 Z M14.66,12 L17,9.70999999 C17.3921222,9.31787781 17.3921222,8.68212216 17,8.29 C16.6078778,7.89787783 15.9721222,7.89787782 15.58,8.28999998 L12.58,11.29 C12.3906874,11.4777666 12.2842017,11.7333625 12.2842017,12 C12.2842017,12.2666375 12.3906874,12.5222334 12.58,12.71 L15.58,15.71 C15.7677666,15.8993127 16.0233625,16.0057983 16.29,16.0057983 C16.5566376,16.0057983 16.8122334,15.8993127 17,15.71 C17.1893127,15.5222334 17.2957983,15.2666375 17.2957983,15 C17.2957983,14.7333625 17.1893127,14.4777666 17,14.29 L14.66,12 Z"/>
</svg>
