<svg xmlns="http://www.w3.org/2000/svg" width="24" height="24" viewBox="0 0 24 24">
  <path  fill-rule="evenodd" d="M17,9.16999999 C16.6099626,8.78227639 15.9800375,8.78227639 15.59,9.16999999 L12,12.71 L8.45999999,9.16999999 C8.06996253,8.78227639 7.44003744,8.78227639 7.04999998,9.16999999 C6.86068733,9.35776659 6.75420165,9.61336245 6.75420165,9.87999999 C6.75420165,10.1466375 6.86068733,10.4022334 7.04999998,10.59 L11.29,14.83 C11.4777666,15.0193127 11.7333625,15.1257983 12,15.1257983 C12.2666375,15.1257983 12.5222334,15.0193127 12.71,14.83 L17,10.59 C17.1893127,10.4022334 17.2957983,10.1466375 17.2957983,9.87999999 C17.2957983,9.61336245 17.1893127,9.35776659 17,9.16999999 L17,9.16999999 Z"/>
</svg>
