<svg xmlns="http://www.w3.org/2000/svg" width="24" height="24" viewBox="0 0 24 24">
  <path  fill-rule="evenodd" d="M17,13.41 L12.71,9.16999999 C12.5222334,8.98068734 12.2666375,8.87420166 12,8.87420166 C11.7333625,8.87420166 11.4777666,8.98068734 11.29,9.16999999 L7.04999998,13.41 C6.86068733,13.5977666 6.75420165,13.8533625 6.75420165,14.12 C6.75420165,14.3866375 6.86068733,14.6422334 7.04999998,14.83 C7.44003744,15.2177236 8.06996253,15.2177236 8.45999999,14.83 L12,11.29 L15.54,14.83 C15.7262607,15.0147442 15.9776601,15.1188954 16.24,15.12 C16.505803,15.1215368 16.7612812,15.0171865 16.95,14.83 C17.1460751,14.648987 17.2616683,14.3971136 17.2710588,14.1304246 C17.2804492,13.8637357 17.1828579,13.6043558 17,13.41 Z"/>
</svg>
