<svg xmlns="http://www.w3.org/2000/svg" width="24" height="24" viewBox="0 0 24 24">
  <path  fill-rule="evenodd" d="M11.29,12 L14.83,8.45999999 C15.2177236,8.06996253 15.2177236,7.44003744 14.83,7.04999998 C14.6422334,6.86068733 14.3866375,6.75420165 14.12,6.75420165 C13.8533625,6.75420165 13.5977666,6.86068733 13.41,7.04999998 L9.16999999,11.29 C8.98068734,11.4777666 8.87420166,11.7333625 8.87420166,12 C8.87420166,12.2666375 8.98068734,12.5222334 9.16999999,12.71 L13.41,17 C13.5987188,17.1871865 13.854197,17.2915368 14.12,17.2900168 C14.385803,17.2915368 14.6412812,17.1871865 14.83,17 C15.2177236,16.6099626 15.2177236,15.9800375 14.83,15.59 L11.29,12 Z"/>
</svg>
