<svg xmlns="http://www.w3.org/2000/svg" width="24" height="24" viewBox="0 0 24 24">
  <path  fill-rule="evenodd" d="M14.83,11.29 L10.59,7.04999998 C10.4022334,6.86068733 10.1466375,6.75420165 9.87999999,6.75420165 C9.61336245,6.75420165 9.35776659,6.86068733 9.16999999,7.04999998 C8.78227639,7.44003744 8.78227639,8.06996253 9.16999999,8.45999999 L12.71,12 L9.16999999,15.54 C8.78227639,15.9300375 8.78227639,16.5599626 9.16999999,16.95 C9.35871882,17.1371865 9.61419701,17.2415368 9.87999999,17.2400168 C10.145803,17.2415368 10.4012812,17.1371865 10.59,16.95 L14.83,12.71 C15.0193127,12.5222334 15.1257983,12.2666375 15.1257983,12 C15.1257983,11.7333625 15.0193127,11.4777666 14.83,11.29 Z"/>
</svg>
