<svg xmlns="http://www.w3.org/2000/svg" width="24" height="24" viewBox="0 0 24 24">
  <path  fill-rule="evenodd" d="M11.29,11.46 C11.4777666,11.6493126 11.7333625,11.7557983 12,11.7557983 C12.2666375,11.7557983 12.5222334,11.6493126 12.71,11.46 L15.71,8.45999999 C15.9708039,8.20634142 16.0764714,7.83281401 15.9871986,7.48012194 C15.8979258,7.12742986 15.6272753,6.84915543 15.2771986,6.75012192 C14.9271219,6.65108842 14.5508039,6.7463414 14.29,6.99999998 L12,9.33999999 L9.70999999,6.99999998 C9.30683212,6.60787781 8.66212216,6.61683211 8.26999998,7.01999998 C7.87787781,7.42316785 7.88683212,8.06787781 8.28999998,8.45999999 L11.29,11.46 Z M14.29,12.54 L12,14.84 L9.70999999,12.54 C9.30683212,12.1478778 8.66212216,12.1568321 8.26999998,12.56 C7.87787781,12.9631679 7.88683212,13.6078778 8.28999998,14 L11.29,17 C11.4777666,17.1893127 11.7333625,17.2957983 12,17.2957983 C12.2666375,17.2957983 12.5222334,17.1893127 12.71,17 L15.71,14 C16.1021222,13.6078778 16.1021222,12.9721222 15.71,12.58 C15.3178778,12.1878778 14.6821222,12.1878778 14.29,12.58 L14.29,12.54 Z"/>
</svg>
