<svg xmlns="http://www.w3.org/2000/svg" width="24" height="24" viewBox="0 0 24 24">
  <path  fill-rule="evenodd" d="M15.54,11.29 L9.87999999,5.63999997 C9.69223339,5.45068732 9.43663753,5.34420165 9.16999999,5.34420165 C8.90336245,5.34420165 8.64776659,5.45068732 8.45999999,5.63999997 C8.07227639,6.03003743 8.07227639,6.65996252 8.45999999,7.04999998 L13.41,12.05 L8.45999999,17 C8.07227639,17.3900375 8.07227639,18.0199626 8.45999999,18.41 C8.64707142,18.6008557 8.90275409,18.7088906 9.16999999,18.71 C9.43724589,18.7088906 9.69292855,18.6008557 9.87999999,18.41 L15.54,12.76 C15.7452112,12.5706844 15.8619329,12.3041989 15.8619329,12.025 C15.8619329,11.7458011 15.7452112,11.4793156 15.54,11.29 Z"/>
</svg>
