<svg viewBox="0 0 8 24" width="8px" height="24px" xmlns="http://www.w3.org/2000/svg">
    <path fill-rule="evenodd" d="M 7.034 11.71 L 2.38 7.056 C 2.171 6.848 1.886 6.727 1.601 6.727 C 1.304 6.727 1.019 6.837 0.821 7.045 C 0.393 7.473 0.393 8.154 0.821 8.593 L 4.707 12.479 L 0.821 16.365 C 0.393 16.793 0.393 17.473 0.821 17.913 C 1.019 18.11 1.304 18.231 1.601 18.231 C 1.886 18.231 2.171 18.11 2.38 17.902 L 7.034 13.247 C 7.232 13.039 7.352 12.753 7.352 12.468 C 7.352 12.172 7.232 11.886 7.023 11.689 Z" style=""></path>
</svg>