<svg xmlns="http://www.w3.org/2000/svg" width="24" height="24" viewBox="0 0 24 24">
  <path  fill-rule="evenodd" d="M8.45999999,8.28999998 C8.06787781,7.88683212 7.42316785,7.87787781 7.01999998,8.26999998 C6.61683211,8.66212216 6.60787781,9.30683212 6.99999998,9.70999999 L9.33999999,12 L6.99999998,14.29 C6.81068733,14.4777666 6.70420165,14.7333625 6.70420165,15 C6.70420165,15.2666375 6.81068733,15.5222334 6.99999998,15.71 C7.18776658,15.8993127 7.44336244,16.0057983 7.70999998,16.0057983 C7.97663752,16.0057983 8.23223338,15.8993127 8.41999999,15.71 L11.42,12.71 C11.6093126,12.5222334 11.7157983,12.2666375 11.7157983,12 C11.7157983,11.7333625 11.6093126,11.4777666 11.42,11.29 L8.45999999,8.28999998 Z M16.96,11.29 L13.96,8.28999998 C13.5678778,7.89787782 12.9321222,7.89787783 12.54,8.29 C12.1478778,8.68212216 12.1478778,9.31787781 12.54,9.70999999 L14.84,12 L12.54,14.29 C12.3506874,14.4777666 12.2442017,14.7333625 12.2442017,15 C12.2442017,15.2666375 12.3506874,15.5222334 12.54,15.71 C12.7277666,15.8993127 12.9833625,16.0057983 13.25,16.0057983 C13.5166375,16.0057983 13.7722334,15.8993127 13.96,15.71 L16.96,12.71 C17.1546988,12.5276215 17.2684532,12.2750075 17.275965,12.008337 C17.2834769,11.7416666 17.1841234,11.4830495 17,11.29 L16.96,11.29 Z"/>
</svg>
