<?xml version="1.0" encoding="utf-8"?>
<svg width="100%" height="100%" viewBox="0 0 24 25" version="1.1" style="fill-rule:evenodd;clip-rule:evenodd;stroke-linejoin:round;stroke-miterlimit:2;" xmlns="http://www.w3.org/2000/svg">
  <g transform="matrix(1,0,0,1,0.543,1)">
    <path d="M12.006,5.502L2.925,5.502C2.649,5.502 2.425,5.726 2.425,6.002C2.425,6.278 2.649,6.502 2.925,6.502L12.006,6.502C12.282,6.502 12.506,6.278 12.506,6.002C12.506,5.726 12.282,5.502 12.006,5.502Z" style=""/>
    <path d="M7.023,2.531L2.925,2.531C2.649,2.531 2.425,2.755 2.425,3.031C2.425,3.307 2.649,3.531 2.925,3.531L7.023,3.531C7.299,3.531 7.523,3.307 7.523,3.031C7.523,2.755 7.299,2.531 7.023,2.531Z" style=""/>
    <path d="M21.884,9.479L8.967,9.479C8.112,9.479 7.418,10.172 7.418,11.028C7.418,11.028 7.418,17.968 7.418,17.968C7.418,18.824 8.112,19.517 8.967,19.517C8.967,19.517 21.884,19.517 21.884,19.517C22.74,19.517 23.433,18.824 23.433,17.968L23.433,11.029C23.433,10.172 22.74,9.479 21.884,9.479ZM21.884,10.479C22.187,10.479 22.433,10.725 22.433,11.028C22.433,11.028 22.433,17.968 22.433,17.968C22.433,18.271 22.187,18.517 21.884,18.517L8.967,18.517C8.664,18.517 8.418,18.271 8.418,17.968L8.418,11.028C8.418,10.725 8.664,10.479 8.967,10.479L21.884,10.479Z" style=""/>
    <path d="M14.295,3.471L17.935,3.471C18.211,3.471 18.435,3.695 18.435,3.971C18.435,4.247 18.211,4.471 17.935,4.471L13.796,4.471C13.52,4.471 13.296,4.247 13.296,3.972L13.292,0.002C13.292,-0.274 13.516,-0.499 13.791,-0.499C14.067,-0.499 14.292,-0.275 14.292,0L14.295,3.471Z" style=""/>
    <path d="M17.435,3.975C17.415,3.954 17.375,3.912 17.346,3.883C17.346,3.883 14.001,0.586 14.001,0.586C13.945,0.531 13.87,0.5 13.792,0.5L0.798,0.5C0.633,0.5 0.5,0.634 0.5,0.798L0.5,22.145C0.5,22.309 0.633,22.443 0.798,22.443L17.136,22.443C17.301,22.443 17.435,22.309 17.435,22.145L17.435,21.035C17.435,20.759 17.659,20.535 17.935,20.535C18.211,20.535 18.435,20.759 18.435,21.035C18.435,21.035 18.435,22.145 18.435,22.145C18.435,22.861 17.855,23.443 17.136,23.443C17.136,23.443 0.798,23.443 0.798,23.443C0.081,23.443 -0.5,22.861 -0.5,22.145L-0.5,0.798C-0.5,0.082 0.081,-0.5 0.798,-0.5L13.792,-0.5C14.134,-0.5 14.461,-0.365 14.703,-0.126C14.703,-0.126 18.048,3.171 18.048,3.171C18.316,3.435 18.435,3.595 18.435,3.972L18.435,7.874C18.435,8.15 18.211,8.374 17.935,8.374C17.659,8.374 17.435,8.15 17.435,7.874L17.435,3.975Z" style=""/>
    <path d="M11.953,16.472C11.926,16.477 11.898,16.479 11.869,16.479L10.888,16.479C10.612,16.479 10.388,16.255 10.388,15.979L10.388,12.957C10.388,12.681 10.612,12.457 10.888,12.457C10.888,12.457 11.869,12.457 11.869,12.457C12.887,12.457 13.738,13.343 13.738,14.465C13.738,15.557 12.934,16.425 11.953,16.472ZM17.832,14.468C17.832,13.345 16.981,12.457 15.963,12.457C14.945,12.457 14.095,13.345 14.095,14.468C14.095,15.592 14.945,16.479 15.963,16.479C16.981,16.479 17.832,15.592 17.832,14.468ZM21.382,13.025C21.034,12.672 20.562,12.457 20.041,12.457C18.986,12.457 18.116,13.348 18.116,14.465C18.116,15.583 18.986,16.474 20.041,16.474C20.582,16.474 21.071,16.243 21.423,15.865C21.611,15.663 21.6,15.346 21.398,15.158C21.196,14.97 20.879,14.981 20.691,15.183C20.525,15.361 20.296,15.474 20.041,15.474C19.522,15.474 19.116,15.015 19.116,14.465C19.116,13.916 19.522,13.457 20.041,13.457C20.286,13.457 20.507,13.562 20.671,13.727C20.865,13.924 21.182,13.926 21.378,13.732C21.575,13.538 21.576,13.221 21.382,13.025ZM11.388,13.457L11.388,15.479L11.799,15.479C11.822,15.476 11.845,15.474 11.869,15.474C12.363,15.474 12.738,15.01 12.738,14.465C12.738,13.921 12.363,13.457 11.869,13.457L11.388,13.457ZM16.832,14.468C16.832,15.014 16.457,15.479 15.963,15.479C15.469,15.479 15.095,15.014 15.095,14.468C15.095,13.923 15.469,13.457 15.963,13.457C16.457,13.457 16.832,13.922 16.832,14.468Z" style=""/>
  </g>
</svg>