<svg xmlns="http://www.w3.org/2000/svg" width="24" height="24" viewBox="0 0 24 24">
  <path  fill-rule="evenodd" d="M19,3.99999997 L4.99999996,3.99999997 C3.34314571,3.99999997 1.99999996,5.34314572 1.99999996,6.99999997 L1.99999996,17 C1.99999996,18.6568543 3.34314571,20 4.99999996,20 L19,20 C20.6568543,20 22,18.6568543 22,17 L22,6.99999997 C22,5.34314572 20.6568543,3.99999997 19,3.99999997 Z M18.59,5.99999998 L12.71,11.88 C12.5222334,12.0693127 12.2666375,12.1757983 12,12.1757983 C11.7333625,12.1757983 11.4777666,12.0693127 11.29,11.88 L5.40999997,5.99999998 L18.59,5.99999998 Z M20,17 C20,17.5522848 19.5522848,18 19,18 L4.99999997,18 C4.44771522,18 3.99999997,17.5522848 3.99999997,17 L3.99999997,7.40999998 L9.87999999,13.29 C11.0512702,14.4598135 12.9487298,14.4598135 14.12,13.29 L20,7.40999998 L20,17 Z"/>
</svg>
