<svg viewBox="0 0 24 24" xmlns="http://www.w3.org/2000/svg"><path fill-rule="evenodd" d="M12 16c-.56 0-1 .44-1 1 0 .55.44 1 1 1 .55 0 1-.45 1-1 0-.56-.45-1-1-1Zm10.67 1.47l-8.05-14c-.53-.95-1.54-1.54-2.62-1.54 -1.09 0-2.1.58-2.62 1.53l-8 14c-.55.92-.56 2.07-.04 3 .52.93 1.51 1.51 2.59 1.52h16.12c1.08.01 2.08-.57 2.62-1.51 .54-.94.53-2.1-.02-3.03Zm-1.73 2c-.18.31-.52.51-.88.51H3.94c-.37 0-.71-.2-.88-.52 -.18-.31-.18-.7 0-1l8-14c.17-.34.51-.55.89-.55 .37 0 .71.21.89.54l8.05 14c.2.3.22.69.05 1.02v-.02ZM12 8c-.56-.001-1 .44-1 1v4c0 .55.44 1 1 1 .55 0 1-.45 1-1V9c0-.56-.45-1-1-1Z"/></svg>