<?xml version="1.0" encoding="utf-8"?>
<svg width="100%" height="100%" viewBox="0 0 22 22" version="1.1" style="fill-rule:evenodd;clip-rule:evenodd;stroke-linejoin:round;stroke-miterlimit:2;" xmlns="http://www.w3.org/2000/svg">
  <g transform="matrix(1,0,0,1,1,1)">
    <path d="M20.5,10C20.5,4.202 15.799,-0.5 10,-0.5C4.201,-0.5 -0.5,4.202 -0.5,10C-0.5,15.798 4.201,20.5 10,20.5C15.799,20.5 20.5,15.798 20.5,10ZM19.5,10C19.5,15.246 15.247,19.5 10,19.5C4.753,19.5 0.5,15.246 0.5,10C0.5,4.754 4.753,0.5 10,0.5C15.247,0.5 19.5,4.754 19.5,10Z" style=""/>
    <g transform="matrix(1,0,0,1,-0.375462,0)">
      <path d="M11,0.5C11.959,0.5 12.821,1.158 13.539,2.211C14.737,3.967 15.5,6.804 15.5,10C15.5,13.196 14.737,16.033 13.539,17.789C12.821,18.842 11.959,19.5 11,19.5C10.724,19.5 10.5,19.724 10.5,20C10.5,20.276 10.724,20.5 11,20.5C12.25,20.5 13.429,19.725 14.366,18.352C15.651,16.468 16.5,13.431 16.5,10C16.5,6.569 15.651,3.532 14.366,1.648C13.429,0.275 12.25,-0.5 11,-0.5C10.724,-0.5 10.5,-0.276 10.5,0C10.5,0.276 10.724,0.5 11,0.5ZM10,-0.5C8.75,-0.5 7.571,0.275 6.634,1.648C5.349,3.532 4.5,6.569 4.5,10C4.5,13.431 5.349,16.468 6.634,18.352C7.571,19.725 8.75,20.5 10,20.5C10.276,20.5 10.5,20.276 10.5,20C10.5,19.724 10.276,19.5 10,19.5C9.041,19.5 8.179,18.842 7.46,17.789C6.263,16.033 5.5,13.196 5.5,10C5.5,6.804 6.263,3.967 7.46,2.211C8.179,1.158 9.041,0.5 10,0.5C10.276,0.5 10.5,0.276 10.5,0C10.5,-0.276 10.276,-0.5 10,-0.5Z" style=""/>
    </g>
    <path d="M9.5,-0L9.5,20C9.5,20.276 9.724,20.5 10,20.5C10.276,20.5 10.5,20.276 10.5,20L10.5,0C10.5,-0.276 10.276,-0.5 10,-0.5C9.724,-0.5 9.5,-0.276 9.5,-0Z" style=""/>
    <path d="M20,9.5L0,9.5C-0.276,9.5 -0.5,9.724 -0.5,10C-0.5,10.276 -0.276,10.5 0,10.5L20,10.5C20.276,10.5 20.5,10.276 20.5,10C20.5,9.724 20.276,9.5 20,9.5Z" style=""/>
    <g transform="matrix(0.942586,0,0,1,0.554941,0)">
      <path d="M19,4.5L1,4.5C0.724,4.5 0.5,4.724 0.5,5C0.5,5.276 0.724,5.5 1,5.5L19,5.5C19.276,5.5 19.5,5.276 19.5,5C19.5,4.724 19.276,4.5 19,4.5Z" style=""/>
    </g>
    <g transform="matrix(1.01092,0,0,1,-0.49015,0.0060416)">
      <path d="M19,13.5L2,13.5C1.724,13.5 1.5,13.724 1.5,14C1.5,14.276 1.724,14.5 2,14.5L19,14.5C19.276,14.5 19.5,14.276 19.5,14C19.5,13.724 19.276,13.5 19,13.5Z" style=""/>
    </g>
  </g>
</svg>