<svg xmlns="http://www.w3.org/2000/svg" width="24" height="24" viewBox="0 0 24 24">
  <path  fill-rule="evenodd" d="M18,4.47999997 C14.6862915,1.16629146 9.31370849,1.16629146 5.99999998,4.47999997 C2.68629146,7.79370848 2.68629146,13.1662915 5.99999997,16.48 L11.27,21.76 C11.4577666,21.9493127 11.7133625,22.0557984 11.98,22.0557984 C12.2466375,22.0557984 12.5022334,21.9493127 12.69,21.76 L18,16.43 C21.2998606,13.1300817 21.2998606,7.77991828 18,4.47999997 Z M16.57,15 L12,19.59 L7.42999998,15 C4.908912,12.4766032 4.9101597,8.38743249 7.43278712,5.86557467 C9.95541453,3.34371686 14.0445855,3.34371686 16.5672129,5.86557467 C19.0898403,8.38743249 19.091088,12.4766032 16.57,15 L16.57,15 Z M8.99999999,7.40999998 C7.3191938,9.0959838 7.3191938,11.8240162 8.99999999,13.51 C10.2262833,14.7383823 12.0697578,15.1113102 13.6770737,14.4561543 C15.2843897,13.8009983 16.3418685,12.2456166 16.36,10.51 C16.3691047,9.36489735 15.9146391,8.26480194 15.1,7.45999998 C14.2995151,6.64115078 13.2054787,6.1754143 12.0604014,6.16602842 C10.9153241,6.15664254 9.81380021,6.60438263 8.99999999,7.40999998 Z M13.69,12.09 C12.9084734,12.8834601 11.6746984,13.0129043 10.7455076,12.3989277 C9.81631681,11.7849511 9.45154695,10.5992447 9.87495824,9.56915461 C10.2983695,8.53906447 11.3915602,7.95264253 12.4839361,8.16961665 C13.5763119,8.38659077 14.3624036,9.34628682 14.3600055,10.46 C14.3454522,11.0772701 14.0864919,11.6635273 13.64,12.09 L13.69,12.09 Z"/>
</svg>
