<?xml version="1.0" encoding="utf-8"?>
<svg width="25" height="22" viewBox="0 0 25 22" xmlns="http://www.w3.org/2000/svg">
  <path fill-rule="evenodd" d="M24.746 8.675L21.25 6.156V4.278a.604.604 0 0 0-.183-.433.632.632 0 0 0-.442-.178h-2.83L12.87.119a.638.638 0 0 0-.742 0L7.205 3.667h-2.83a.632.632 0 0 0-.442.178.604.604 0 0 0-.183.433v1.878L.254 8.675A.607.607 0 0 0 0 9.167v12.222c0 .162.066.317.183.432A.632.632 0 0 0 .625 22h23.75a.632.632 0 0 0 .442-.179.604.604 0 0 0 .183-.432V9.167a.607.607 0 0 0-.254-.492zm-23.496 1.6l6.027 3.722-6.027 5.912v-9.634zm7.11 4.391l3.807 2.35a.636.636 0 0 0 .666 0l3.807-2.35 6.23 6.112H2.13l6.23-6.112zm9.363-.669l6.027-3.722v9.634l-6.027-5.912zm5.545-4.87l-2.018 1.247v-2.7l2.018 1.454zM12.5 1.37l3.187 2.297H9.313L12.5 1.37zM7.41 4.889H20v6.257l-7.5 4.631L5 11.146V4.889h2.41zm-3.66 5.485L1.732 9.128 3.75 7.674v2.7z" style=""/>
</svg>