<?xml version="1.0" encoding="utf-8"?>
<svg width="100%" height="100%" viewBox="0 0 20 24" version="1.1" style="fill-rule:evenodd;clip-rule:evenodd;stroke-linecap:round;stroke-linejoin:round;" xmlns="http://www.w3.org/2000/svg">
  <path d="M 14 1 L 14 5 C 14 5.279 14.123 5.5 14.5 5.5 L 19.5 5.5 L 19.5 4.5 L 15 4.5 L 15 1 L 14 1 Z" style=""/>
  <path d="M 20 22.235 L 20 4.826 C 20 4.467 19.857 4.222 19.56 3.97 L 15.857 0.843 C 15.589 0.616 15.406 0.5 15.029 0.5 L 1.38 0.5 C 0.598 0.5 0 1.101 0 1.77 L 0 22.235 C 0 22.906 0.597 23.5 1.38 23.5 L 18.615 23.5 C 19.4 23.5 20 22.905 20 22.235 Z M 19 22.235 C 19 22.402 18.81 22.5 18.615 22.5 C 18.615 22.5 1.38 22.5 1.38 22.5 C 1.186 22.5 1 22.401 1 22.235 L 1 1.77 C 1 1.604 1.185 1.5 1.38 1.5 L 15.029 1.5 C 15.118 1.5 15.149 1.553 15.212 1.607 C 15.212 1.607 18.914 4.733 18.914 4.733 C 18.952 4.765 19 4.778 19 4.826 C 19 4.826 19 22.235 19 22.235 Z" style=""/>
  <path d="M 15.5 16.5 L 4.5 16.5 C 4.224 16.5 4 16.724 4 17 C 4 17.276 4.224 17.5 4.5 17.5 L 15.5 17.5 C 15.776 17.5 16 17.276 16 17 C 16 16.724 15.776 16.5 15.5 16.5 Z" style=""/>
  <path d="M 15.5 13.5 L 4.5 13.5 C 4.224 13.5 4 13.724 4 14 C 4 14.276 4.224 14.5 4.5 14.5 L 15.5 14.5 C 15.776 14.5 16 14.276 16 14 C 16 13.724 15.776 13.5 15.5 13.5 Z" style=""/>
  <path d="M 15.5 10.5 L 4.5 10.5 C 4.224 10.5 4 10.724 4 11 C 4 11.276 4.224 11.5 4.5 11.5 L 15.5 11.5 C 15.776 11.5 16 11.276 16 11 C 16 10.724 15.776 10.5 15.5 10.5 Z" style=""/>
  <path d="M 10.5 7.5 L 4.5 7.5 C 4.224 7.5 4 7.724 4 8 C 4 8.276 4.224 8.5 4.5 8.5 L 10.5 8.5 C 10.776 8.5 11 8.276 11 8 C 11 7.724 10.776 7.5 10.5 7.5 Z" style=""/>
  <path style="fill: rgb(216, 216, 216); stroke: rgb(0, 0, 0);" d="M 21.196 6.301"/>
</svg>