<svg xmlns="http://www.w3.org/2000/svg" width="24" height="24" viewBox="0 0 24 24">
  <path  fill-rule="evenodd" d="M9.99999999,6.99999998 C9.44771524,6.99999998 8.99999999,7.44771523 8.99999999,7.99999998 L8.99999999,16 C8.99999999,16.5522848 9.44771524,17 9.99999999,17 C10.5522847,17 11,16.5522848 11,16 L11,7.99999998 C11,7.44771523 10.5522847,6.99999998 9.99999999,6.99999998 Z M12,1.99999996 C6.47715248,1.99999996 1.99999996,6.47715248 1.99999996,12 C1.99999996,17.5228475 6.47715248,22 12,22 C17.5228475,22 22,17.5228475 22,12 C22,9.34783509 20.9464316,6.80429595 19.0710678,4.92893216 C17.195704,3.05356837 14.6521649,1.99999996 12,1.99999996 Z M12,20 C7.58172198,20 3.99999997,16.418278 3.99999997,12 C3.99999997,7.58172198 7.58172198,3.99999997 12,3.99999997 C16.418278,3.99999997 20,7.58172198 20,12 C20,14.1217319 19.1571453,16.1565632 17.6568543,17.6568543 C16.1565632,19.1571453 14.1217319,20 12,20 Z M14,6.99999998 C13.4477153,6.99999998 13,7.44771523 13,7.99999998 L13,16 C13,16.5522848 13.4477153,17 14,17 C14.5522848,17 15,16.5522848 15,16 L15,7.99999998 C15,7.44771523 14.5522848,6.99999998 14,6.99999998 Z"/>
</svg>
