<?xml version="1.0" encoding="utf-8"?>
<svg width="100%" height="100%" viewBox="0 0 24 25" version="1.1" style="fill-rule:evenodd;clip-rule:evenodd;stroke-linejoin:round;stroke-miterlimit:2;" xmlns="http://www.w3.org/2000/svg">
  <g transform="matrix(1,0,0,1,0.538,1)">
    <path d="M18.703,13.539L18.703,15.896C18.703,16.172 18.479,16.396 18.203,16.396C17.927,16.396 17.703,16.172 17.703,15.896L17.703,13.039C17.703,12.763 17.927,12.539 18.203,12.539L20.053,12.539C20.329,12.539 20.553,12.763 20.553,13.039C20.553,13.315 20.329,13.539 20.053,13.539L18.703,13.539Z" style=""/>
    <path d="M18.203,14.967L19.792,14.967C20.068,14.967 20.292,14.743 20.292,14.467C20.292,14.191 20.068,13.967 19.792,13.967L18.203,13.967C17.927,13.967 17.703,14.191 17.703,14.467C17.703,14.743 17.927,14.967 18.203,14.967Z" style=""/>
    <path d="M21.884,9.479L8.967,9.479C8.111,9.479 7.417,10.172 7.417,11.028L7.417,17.968C7.417,18.824 8.111,19.517 8.967,19.517C8.967,19.517 21.884,19.517 21.884,19.517C22.739,19.517 23.433,18.824 23.433,17.968C23.433,17.968 23.433,11.028 23.433,11.028C23.433,10.172 22.739,9.479 21.884,9.479ZM21.884,10.479C22.187,10.479 22.433,10.725 22.433,11.028L22.433,17.968C22.433,18.271 22.187,18.517 21.884,18.517L8.967,18.517C8.663,18.517 8.417,18.271 8.417,17.968C8.417,17.968 8.417,11.028 8.417,11.028C8.417,10.725 8.663,10.479 8.967,10.479L21.884,10.479Z" style=""/>
    <path d="M14.295,3.471L17.935,3.471C18.211,3.471 18.435,3.695 18.435,3.971C18.435,4.247 18.211,4.471 17.935,4.471L13.796,4.471C13.52,4.471 13.296,4.247 13.296,3.972L13.292,0.002C13.292,-0.274 13.516,-0.499 13.791,-0.499C14.067,-0.499 14.292,-0.275 14.292,0L14.295,3.471Z" style=""/>
    <path d="M17.435,3.975C17.415,3.954 17.375,3.912 17.346,3.883C17.346,3.883 14.001,0.586 14.001,0.586C13.945,0.531 13.87,0.5 13.792,0.5L0.798,0.5C0.633,0.5 0.5,0.634 0.5,0.798L0.5,22.145C0.5,22.309 0.633,22.443 0.798,22.443L17.136,22.443C17.301,22.443 17.435,22.309 17.435,22.145L17.435,21.035C17.435,20.759 17.659,20.535 17.935,20.535C18.211,20.535 18.435,20.759 18.435,21.035C18.435,21.035 18.435,22.145 18.435,22.145C18.435,22.861 17.855,23.443 17.136,23.443C17.136,23.443 0.798,23.443 0.798,23.443C0.081,23.443 -0.5,22.861 -0.5,22.145L-0.5,0.798C-0.5,0.082 0.081,-0.5 0.798,-0.5L13.792,-0.5C14.134,-0.5 14.461,-0.365 14.703,-0.126C14.703,-0.126 18.048,3.171 18.048,3.171C18.316,3.435 18.435,3.595 18.435,3.972L18.435,7.874C18.435,8.15 18.211,8.374 17.935,8.374C17.659,8.374 17.435,8.15 17.435,7.874L17.435,3.975Z" style=""/>
    <path d="M15.37,16.39C15.343,16.394 15.316,16.397 15.287,16.397L14.322,16.397C14.046,16.397 13.822,16.173 13.822,15.897L13.822,13.038C13.822,12.761 14.046,12.538 14.322,12.538C14.322,12.538 15.287,12.538 15.287,12.538C16.298,12.538 17.132,13.393 17.132,14.465C17.132,15.507 16.343,16.344 15.37,16.39ZM11.464,15.086L11.464,15.897C11.464,16.172 11.24,16.397 10.964,16.397C10.688,16.396 10.464,16.172 10.464,15.897L10.464,13.039C10.464,12.762 10.688,12.539 10.964,12.539C10.964,12.539 12.037,12.539 12.026,12.539C12.026,12.539 12.03,12.539 12.037,12.538C12.092,12.538 12.384,12.539 12.675,12.651C13.067,12.801 13.455,13.118 13.455,13.777C13.455,15.036 12.042,15.084 12.042,15.084L11.464,15.086ZM14.822,13.538L14.822,15.397L15.217,15.397C15.24,15.393 15.263,15.392 15.287,15.392C15.762,15.392 16.132,14.969 16.132,14.465C16.132,13.961 15.762,13.538 15.287,13.538L14.822,13.538ZM11.464,14.086L12.036,14.085L11.955,14.091C11.955,14.091 12.074,14.094 12.217,14.051C12.317,14.022 12.455,13.958 12.455,13.777C12.455,13.624 12.329,13.583 12.242,13.562C12.099,13.527 11.98,13.535 11.98,13.535L12.037,13.539L11.464,13.539L11.464,14.086Z" style=""/>
  </g>
</svg>