<svg xmlns="http://www.w3.org/2000/svg" width="24" height="24" viewBox="0 0 24 24">
  <path  fill-rule="evenodd" d="M19.41,13 C19.19,13 18.96,12.93 18.74,12.88 C18.2948377,12.7804589 17.8571197,12.6501459 17.43,12.49 C16.4692503,12.1404812 15.3995738,12.5718024 14.95,13.49 L14.73,13.95 C13.7588223,13.399204 12.8616264,12.7271471 12.06,11.95 C11.2828529,11.1483736 10.610796,10.2511777 10.06,9.27999999 L10.52,9.06999999 C11.4381976,8.6204262 11.8695188,7.55074973 11.52,6.58999998 C11.3611877,6.15903056 11.2309063,5.71807797 11.13,5.26999997 C11.08,5.04999997 11.04,4.81999997 11.01,4.59999997 C10.7591179,3.14477245 9.48653922,2.08853219 8.00999998,2.10999996 L4.99999997,2.10999996 C4.14494277,2.10887991 3.33003785,2.47267675 2.75999996,3.10999996 C2.17781677,3.76498369 1.91112523,4.64177779 2.02999996,5.50999997 C2.57358735,9.67213817 4.47520982,13.5386534 7.43999998,16.51 C10.4113466,19.4747902 14.2778618,21.3764126 18.44,21.92 C18.5698109,21.9299168 18.7001891,21.9299168 18.83,21.92 C19.5674151,21.9210819 20.279397,21.6505288 20.83,21.16 C21.4673232,20.5899621 21.8311201,19.7750572 21.8300026,18.92 L21.8300026,15.92 C21.8188809,14.4955667 20.8076099,13.2753554 19.41,13 Z M19.9,19 C19.8993331,19.2821783 19.7794795,19.5509409 19.57,19.74 C19.3480573,19.9422079 19.0470039,20.0339925 18.75,19.99 C15.0182736,19.5026276 11.5502496,17.8019957 8.87999999,15.15 C6.2074717,12.4774646 4.4920297,8.99736704 3.99999997,5.24999997 C3.95600754,4.95299615 4.04779212,4.65194273 4.24999997,4.42999997 C4.44138898,4.21792399 4.71434066,4.09782525 4.99999997,4.09999997 L7.99999998,4.09999997 C8.47665987,4.08835033 8.89524584,4.41484739 8.99999999,4.87999997 C8.99999999,5.14999997 9.08999999,5.42999997 9.14999999,5.69999997 C9.26557589,6.22386345 9.4193195,6.73857034 9.60999999,7.23999998 L8.20999998,7.89999998 C7.96936416,8.01046293 7.78235984,8.21185221 7.68999998,8.45999999 C7.58998196,8.70346134 7.58998196,8.97653863 7.68999998,9.21999999 C9.12920061,12.3027551 11.6072449,14.7807994 14.69,16.22 C14.9334614,16.320018 15.2065387,16.320018 15.45,16.22 C15.6981478,16.1276402 15.8995371,15.9406358 16.01,15.7 L16.64,14.3 C17.1559092,14.4881216 17.683736,14.6417927 18.22,14.76 C18.48,14.82 18.76,14.87 19.03,14.91 C19.4951526,15.0147542 19.8216497,15.4333401 19.81,15.91 L19.9,19 Z M14,1.99999996 C13.77,1.99999996 13.53,1.99999996 13.3,1.99999996 C12.7477153,2.04694417 12.3380558,2.53271522 12.385,3.08499996 C12.4319442,3.63728471 12.9177153,4.04694416 13.47,3.99999996 L14,3.99999996 C17.3137085,3.99999996 20,6.68629148 20,9.99999996 C20,10.18 20,10.35 20,10.53 C19.9538377,11.0792747 20.3608543,11.5623274 20.91,11.6100084 L20.99,11.6100084 C21.5089652,11.6121057 21.9432971,11.2168638 21.99,10.7 C21.99,10.47 21.99,10.23 21.99,9.99999996 C21.99,5.58562427 18.4143723,2.00551793 14,1.99999996 Z M16,9.99999998 C16,10.5522847 16.4477153,11 17,11 C17.5522848,11 18,10.5522847 18,9.99999998 C18,7.79086098 16.209139,5.99999998 14,5.99999998 C13.4477153,5.99999998 13,6.44771523 13,6.99999998 C13,7.55228473 13.4477153,7.99999998 14,7.99999998 C15.1045695,7.99999998 16,8.89543049 16,9.99999998 Z"/>
</svg>
