<svg xmlns="http://www.w3.org/2000/svg" xmlns:xlink="http://www.w3.org/1999/xlink" width="110" height="110" viewBox="0 0 110 110">
  <defs>
    <path id="play_button-b" d="M63.8,45.5 L40.7,30.1 C38.7,28.8 36.1,30.2 36.1,32.6 L36.1,63.4 C36.1,65.8 38.8,67.2 40.7,65.9 L63.8,50.5 C65.6,49.3 65.6,46.7 63.8,45.5 Z"/>
    <filter id="play_button-a" width="182.6%" height="165.2%" x="-41.3%" y="-24.5%" filterUnits="objectBoundingBox">
      <feOffset dy="3" in="SourceAlpha" result="shadowOffsetOuter1"/>
      <feGaussianBlur in="shadowOffsetOuter1" result="shadowBlurOuter1" stdDeviation="3.5"/>
      <feColorMatrix in="shadowBlurOuter1" values="0 0 0 0 0   0 0 0 0 0   0 0 0 0 0  0 0 0 0.250956075 0"/>
    </filter>
    <path id="play_button-d" d="M48,0.5 C21.8,0.5 0.5,21.8 0.5,48 C0.5,74.2 21.8,95.5 48,95.5 C74.2,95.5 95.5,74.2 95.5,48 C95.5,21.8 74.2,0.5 48,0.5 Z M48,88.1 C25.9,88.1 7.9,70.1 7.9,48 C7.9,25.9 25.9,7.9 48,7.9 C70.1,7.9 88.1,25.9 88.1,48 C88.1,70.1 70.1,88.1 48,88.1 Z"/>
    <filter id="play_button-c" width="125.3%" height="125.3%" x="-12.6%" y="-9.5%" filterUnits="objectBoundingBox">
      <feOffset dy="3" in="SourceAlpha" result="shadowOffsetOuter1"/>
      <feGaussianBlur in="shadowOffsetOuter1" result="shadowBlurOuter1" stdDeviation="3.5"/>
      <feColorMatrix in="shadowBlurOuter1" values="0 0 0 0 0   0 0 0 0 0   0 0 0 0 0  0 0 0 0.250956075 0"/>
    </filter>
  </defs>
  <g fill="none" transform="translate(7 4)">
    <use fill="#000" filter="url(#play_button-a)" xlink:href="#play_button-b"/>
    <use fill="#FFF" xlink:href="#play_button-b"/>
    <use fill="#000" filter="url(#play_button-c)" xlink:href="#play_button-d"/>
    <use fill="#FFF" xlink:href="#play_button-d"/>
  </g>
</svg>
