<svg xmlns="http://www.w3.org/2000/svg" width="24" height="24" viewBox="0 0 24 24">
  <path  fill-rule="evenodd" d="M13.41,12 L17.71,7.70999998 C18.1021222,7.31787781 18.1021222,6.68212215 17.71,6.28999998 C17.3178778,5.8978778 16.6821222,5.8978778 16.29,6.28999998 L12,10.59 L7.70999998,6.28999998 C7.31787781,5.89787781 6.68212216,5.89787782 6.28999999,6.28999999 C5.89787782,6.68212216 5.89787781,7.31787781 6.28999998,7.70999998 L10.59,12 L6.28999998,16.29 C6.10068732,16.4777666 5.99420165,16.7333625 5.99420165,17 C5.99420165,17.2666376 6.10068732,17.5222334 6.28999998,17.71 C6.47776658,17.8993127 6.73336244,18.0057983 6.99999998,18.0057983 C7.26663752,18.0057983 7.52223338,17.8993127 7.70999998,17.71 L12,13.41 L16.29,17.71 C16.4777666,17.8993127 16.7333625,18.0057983 17,18.0057983 C17.2666376,18.0057983 17.5222334,17.8993127 17.71,17.71 C17.8993127,17.5222334 18.0057983,17.2666376 18.0057983,17 C18.0057983,16.7333625 17.8993127,16.4777666 17.71,16.29 L13.41,12 Z"/>
</svg>
