<svg xmlns="http://www.w3.org/2000/svg" width="76" height="76" viewBox="0 0 76 76">
  <g fill="#FFF">
    <path d="M17.2490816 12L31.7509184 12C32.4407671 12 33 11.3284271 33 10.5 33 9.67157288 32.4407671 9 31.7509184 9L17.2490816 9C16.5592329 9 16 9.67157288 16 10.5 16 11.3284271 16.5592329 12 17.2490816 12zM44.2490816 12L58.7509184 12C59.4407671 12 60 11.3284271 60 10.5 60 9.67157288 59.4407671 9 58.7509184 9L44.2490816 9C43.5592329 9 43 9.67157288 43 10.5 43 11.3284271 43.5592329 12 44.2490816 12zM17.2490816 19L31.7509184 19C32.4407671 19 33 18.3284271 33 17.5 33 16.6715729 32.4407671 16 31.7509184 16L17.2490816 16C16.5592329 16 16 16.6715729 16 17.5 16 18.3284271 16.5592329 19 17.2490816 19zM44.2490816 19L58.7509184 19C59.4407671 19 60 18.3284271 60 17.5 60 16.6715729 59.4407671 16 58.7509184 16L44.2490816 16C43.5592329 16 43 16.6715729 43 17.5 43 18.3284271 43.5592329 19 44.2490816 19zM17.2490816 27L31.7509184 27C32.4407671 27 33 26.3284271 33 25.5 33 24.6715729 32.4407671 24 31.7509184 24L17.2490816 24C16.5592329 24 16 24.6715729 16 25.5 16 26.3284271 16.5592329 27 17.2490816 27zM44.2490816 27L58.7509184 27C59.4407671 27 60 26.3284271 60 25.5 60 24.6715729 59.4407671 24 58.7509184 24L44.2490816 24C43.5592329 24 43 24.6715729 43 25.5 43 26.3284271 43.5592329 27 44.2490816 27zM17.2490816 34L31.7509184 34C32.4407671 34 33 33.3284271 33 32.5 33 31.6715729 32.4407671 31 31.7509184 31L17.2490816 31C16.5592329 31 16 31.6715729 16 32.5 16 33.3284271 16.5592329 34 17.2490816 34zM44.2490816 34L58.7509184 34C59.4407671 34 60 33.3284271 60 32.5 60 31.6715729 59.4407671 31 58.7509184 31L44.2490816 31C43.5592329 31 43 31.6715729 43 32.5 43 33.3284271 43.5592329 34 44.2490816 34zM17.2490816 41L31.7509184 41C32.4407671 41 33 40.3284271 33 39.5 33 38.6715729 32.4407671 38 31.7509184 38L17.2490816 38C16.5592329 38 16 38.6715729 16 39.5 16 40.3284271 16.5592329 41 17.2490816 41zM58.7509184 38L44.2490816 38C43.5592329 38 43 38.6715729 43 39.5 43 40.3284271 43.5592329 41 44.2490816 41L58.7509184 41C59.4407671 41 60 40.3284271 60 39.5 60 38.6715729 59.4407671 38 58.7509184 38z"/>
    <path d="M74.7718164,14.6978243 L70.6082741,14.6978243 L70.6082741,6.92022562 C70.6082741,6.24377694 70.0583976,5.69540693 69.3800905,5.69540693 L65.2411118,5.69540693 L65.2411118,1.22481869 C65.2411118,0.548370008 64.6912353,0 64.0129282,0 L12.1098901,0 C11.431583,0 10.8817065,0.548370008 10.8817065,1.22481869 L10.8817065,5.69540693 L6.74272786,5.69540693 C6.0644208,5.69540693 5.51454428,6.24377694 5.51454428,6.92022562 L5.51454428,14.6978243 L1.22818358,14.6978243 C0.549876519,14.6978243 0,15.2461943 0,15.922643 L0,62.4657534 C0,63.1422021 0.549876519,63.6905721 1.22818358,63.6905721 L28.3341952,63.6905721 L28.3341952,68.9082998 L16.2611506,68.9082998 C15.3503439,68.9017175 14.4749264,69.2596335 13.8308719,69.9019235 C13.1868174,70.5442135 12.8279181,71.4172326 12.8345184,72.3255439 L12.8345184,74.7751813 C12.8345184,75.45163 13.3843949,76 14.062702,76 L61.9618617,76 C62.6401687,76 63.1900452,75.45163 63.1900452,74.7751813 L63.1900452,72.3255439 C63.1933238,71.418236 62.8333576,70.5471456 62.1900274,69.9055779 C61.5466971,69.2640102 60.6732136,68.9050301 59.7634131,68.9082998 L47.6658048,68.9082998 L47.6658048,63.6905721 L74.7718164,63.6905721 C75.4501235,63.6905721 76,63.1422021 76,62.4657534 L76,15.922643 C76,15.2461943 75.4501235,14.6978243 74.7718164,14.6978243 Z M60.438914,71.67639 C60.6184304,71.860019 60.7196695,72.1058388 60.7213963,72.3622885 L60.7213963,73.5871072 L15.2786037,73.5871072 L15.2786037,72.3622885 C15.2786037,71.827894 15.7130062,71.3946758 16.2488688,71.3946758 L59.7511312,71.3946758 C60.0088067,71.3937807 60.2562585,71.4951343 60.438914,71.67639 L60.438914,71.67639 Z M62.7847447,47.0452861 L43.6005171,47.0452861 C42.0796152,47.0620932 40.5910149,47.4850339 39.2895928,48.2701048 L39.2895928,2.44963739 L62.7847447,2.44963739 L62.7847447,47.0452861 Z M13.3380737,2.44963739 L36.8455074,2.44963739 L36.8455074,47.9883965 C35.6311491,47.3736566 34.2894466,47.0506846 32.9276018,47.0452861 L13.3380737,47.0452861 L13.3380737,2.44963739 Z M7.97091144,8.14504432 L10.8817065,8.14504432 L10.8817065,48.2701048 C10.8817065,48.9465534 11.431583,49.4949234 12.1098901,49.4949234 L32.6696833,49.4949234 C34.1723886,49.4860801 35.6375074,49.9630878 36.8455074,50.8544722 L36.8455074,50.8544722 L36.8455074,51.0259468 C36.8455074,51.7023955 37.395384,52.2507655 38.073691,52.2507655 C38.6704215,52.2615885 39.1885757,51.8430334 39.3018746,51.2586624 L39.3018746,51.2586624 C40.5725048,50.1169018 42.2217793,49.4843034 43.9321267,49.4826753 L64.0129282,49.4826753 C64.6912353,49.4826753 65.2411118,48.9343053 65.2411118,48.2578566 L65.2411118,8.14504432 L68.1519069,8.14504432 L68.1519069,52.9611604 L44.0303814,52.9611604 C41.9679569,53.0011771 39.9685789,53.6772205 38.3070459,54.8963739 L37.4104719,54.3574537 C35.9362831,53.4424969 34.2341069,52.9587058 32.4977376,52.9611604 L7.93406593,52.9611604 L7.97091144,8.14504432 Z M45.2094376,68.5898469 L30.7905624,68.5898469 L30.7905624,63.6905721 L45.2094376,63.6905721 L45.2094376,68.5898469 Z M2.45636716,61.2409347 L2.45636716,17.1474617 L5.51454428,17.1474617 L5.51454428,54.185979 C5.51454428,54.8624277 6.0644208,55.4107977 6.74272786,55.4107977 L32.5345831,55.4107977 C33.8146845,55.4114418 35.0692962,55.7677084 36.1577246,56.4396454 L37.7666451,57.4195004 C38.1975093,57.6870292 38.749006,57.6626935 39.1544926,57.3582595 L39.9159664,56.7825947 C41.1177264,55.89575 42.5722255,55.4151062 44.0672269,55.4107977 L69.3800905,55.4107977 C70.0583976,55.4107977 70.6082741,54.8624277 70.6082741,54.185979 L70.6082741,17.1474617 L73.5436328,17.1474617 L73.5436328,61.2409347 L2.45636716,61.2409347 Z"/>
  </g>
</svg>
