<svg xmlns="http://www.w3.org/2000/svg" width="72" height="76" viewBox="0 0 72 76">
  <g fill="#FFF">
    <path d="M1.23255814,76 L51.7674419,76 C52.4481649,76 53,75.4511878 53,74.7741935 L53,1.22580645 C53,0.548812242 52.4481649,0 51.7674419,0 L1.23255814,0 C0.551835076,0 0,0.548812242 0,1.22580645 L0,74.7741935 C0,75.4511878 0.551835076,76 1.23255814,76 Z M2.46511628,2.4516129 L50.5348837,2.4516129 L50.5348837,73.5483871 L2.46511628,73.5483871 L2.46511628,2.4516129 Z"/>
    <path d="M15.7777778 27L7.22222222 27C6.54720753 27 6 27.5472075 6 28.2222222L6 36.7777778C6 37.4527925 6.54720753 38 7.22222222 38L15.7777778 38C16.4527925 38 17 37.4527925 17 36.7777778L17 28.2222222C17 27.5472075 16.4527925 27 15.7777778 27zM14.5555556 35.5555556L8.44444444 35.5555556 8.44444444 29.4444444 14.5555556 29.4444444 14.5555556 35.5555556zM15.7777778 43L7.22222222 43C6.54720753 43 6 43.5472075 6 44.2222222L6 52.7777778C6 53.4527925 6.54720753 54 7.22222222 54L15.7777778 54C16.4527925 54 17 53.4527925 17 52.7777778L17 44.2222222C17 43.5472075 16.4527925 43 15.7777778 43zM14.5555556 51.5555556L8.44444444 51.5555556 8.44444444 45.4444444 14.5555556 45.4444444 14.5555556 51.5555556zM15.7777778 58L7.22222222 58C6.54720753 58 6 58.5472075 6 59.2222222L6 67.7777778C6 68.4527925 6.54720753 69 7.22222222 69L15.7777778 69C16.4527925 69 17 68.4527925 17 67.7777778L17 59.2222222C17 58.5472075 16.4527925 58 15.7777778 58zM14.5555556 66.5555556L8.44444444 66.5555556 8.44444444 60.4444444 14.5555556 60.4444444 14.5555556 66.5555556zM24.8589789 29.4340241L21.4782075 32.88718 20.192743 31.5741929C19.6913638 31.0651169 18.8816175 31.0651169 18.3802382 31.5741929 18.1368835 31.820728 18 32.1563221 18 32.5064137 18 32.8565053 18.1368835 33.1920994 18.3802382 33.4386345L20.5269638 35.618193C21.0283431 36.127269 21.8380893 36.127269 22.3394686 35.618193L26.6200651 31.2459462C27.1241242 30.7347206 27.1270018 29.9029209 26.6264924 29.3880696 26.125983 28.8732183 25.3116194 28.870279 24.8075603 29.3815046L24.8589789 29.4340241zM24.8589789 45.4340241L21.4782075 48.8871799 20.192743 47.5741929C19.6913638 47.0651169 18.8816175 47.0651169 18.3802382 47.5741929 18.1368835 47.820728 18 48.1563221 18 48.5064137 18 48.8565053 18.1368835 49.1920994 18.3802382 49.4386345L20.5269638 51.618193C21.0283431 52.127269 21.8380894 52.127269 22.3394686 51.618193L26.6200651 47.2459462C27.1241242 46.7347205 27.1270018 45.9029209 26.6264924 45.3880696 26.125983 44.8732183 25.3116194 44.870279 24.8075603 45.3815046L24.8589789 45.4340241zM24.8589564 60.4340519L21.478196 63.8871931 20.1927359 62.5742117C19.6913582 62.0651378 18.8816146 62.0651378 18.380237 62.5742117 18.1368831 62.8207457 18 63.1563384 18 63.5064285 18 63.8565187 18.1368831 64.1921113 18.380237 64.4386453L20.5269555 66.6181946C21.0283331 67.1272685 21.8380768 67.1272685 22.3394544 66.6181946L26.6200368 62.2459663C26.9461048 61.9152627 27.0746739 61.4320005 26.9573134 60.9782198 26.8399528 60.5244391 26.4944925 60.1690801 26.0510639 60.046003 25.6076354 59.9229259 25.133606 60.050829 24.807538 60.3815326L24.8589564 60.4340519zM46.75 32L29.25 32C28.5596441 32 28 32.4477153 28 33 28 33.5522847 28.5596441 34 29.25 34L46.75 34C47.4403559 34 48 33.5522847 48 33 48 32.4477153 47.4403559 32 46.75 32zM46.75 48L29.25 48C28.5596441 48 28 48.4477153 28 49 28 49.5522847 28.5596441 50 29.25 50L46.75 50C47.4403559 50 48 49.5522847 48 49 48 48.4477153 47.4403559 48 46.75 48zM46.75 63L29.25 63C28.5596441 63 28 63.4477153 28 64 28 64.5522847 28.5596441 65 29.25 65L46.75 65C47.4403559 65 48 64.5522847 48 64 48 63.4477153 47.4403559 63 46.75 63zM16.2222222 11L35.7777778 11C36.4527925 11 37 10.5522847 37 10 37 9.44771525 36.4527925 9 35.7777778 9L16.2222222 9C15.5472075 9 15 9.44771525 15 10 15 10.5522847 15.5472075 11 16.2222222 11zM37 16C37 15.4477153 36.4527925 15 35.7777778 15L16.2222222 15C15.5472075 15 15 15.4477153 15 16 15 16.5522847 15.5472075 17 16.2222222 17L35.7777778 17C36.4527925 17 37 16.5522847 37 16zM61 17C60.4477153 17 60 17.5578092 60 18.2459016L60 34.7540984C60 35.4421908 60.4477153 36 61 36 61.5522847 36 62 35.4421908 62 34.7540984L62 18.2459016C62 17.5578092 61.5522847 17 61 17z"/>
    <path d="M65.8537383,15.2159524 L65.8537383,12.9255648 C65.8537383,12.2454862 65.3022804,11.6941736 64.6220225,11.6941736 L64.6220225,9.23139119 C64.6220225,8.55131261 64.0705646,8 63.3903068,8 L58.4634437,8 C57.7831859,8 57.2317279,8.55131261 57.2317279,9.23139119 L57.2317279,11.6941736 C56.5514701,11.6941736 56.000006,12.2454862 56.000006,12.9255648 L56.000006,66.7250459 C55.9993624,66.9234723 56.050295,67.1186629 56.1478181,67.2914858 L59.8429654,74.3350434 C60.0530255,74.7404421 60.4702059,74.9963717 60.9268752,75 C61.3879763,75.0009535 61.8109963,74.7443573 62.0231023,74.3350434 L65.7182496,67.2914858 C65.8080685,67.11622 65.8545309,66.921974 65.8537383,66.7250459 L65.8537383,17.6787348 L67.0854541,17.6787348 C67.7359787,17.6782158 68.3603009,17.9349615 68.8221733,18.3929416 C69.2802742,18.8546923 69.5370876,19.4788501 69.5365685,20.1292032 L69.5365685,45.9884182 C69.5365685,46.6684968 70.0880264,47.2198094 70.7682842,47.2198094 C71.4485421,47.2198094 72.000006,46.6684968 72.000006,45.9884182 L72.000006,20.1292032 C72.000006,17.4088889 69.7941683,15.2036385 67.0731369,15.2036385 L65.8537383,15.2159524 Z M58.4634437,64.6439947 L58.4634437,14.156956 L63.3903068,14.156956 L63.3903068,64.6439947 L58.4634437,64.6439947 Z M59.6951595,10.4627824 L62.158591,10.4627824 L62.158591,11.6941736 L59.6951595,11.6941736 L59.6951595,10.4627824 Z M60.9268752,71.0841707 L58.8452756,67.1067771 L63.0084749,67.1067771 L60.9268752,71.0841707 Z"/>
  </g>
</svg>
