<svg xmlns="http://www.w3.org/2000/svg" width="77" height="76" viewBox="0 0 77 76">
  <g fill="#FFF">
    <path d="M59.8143583 32.9222907L62.6892891 35.8150468C63.1788922 36.3075369 63.972539 36.3075369 64.4621422 35.8150468L67.337073 32.9222907 75.2271469 40.8612851 77 39.0774399 60.7007848 22.6771654C60.2111817 22.1846754 59.4175349 22.1846754 58.9279317 22.6771654L52.2916436 29.3546002 39.3864265 16.3693676C38.8968234 15.8768775 38.1031766 15.8768775 37.6135735 16.3693676L24.7083564 29.3546002 18.0720683 22.6771654C17.5824651 22.1846754 16.7888183 22.1846754 16.2992152 22.6771654L0 39.0774399 1.7728531 40.8612851 9.66292702 32.9222907 12.5378578 35.8150468C13.027461 36.3075369 13.8211078 36.3075369 14.3107109 35.8150468L17.1856417 32.9222907 19.174146 34.9231242 0 54.2161548 1.7728531 56 21.8334256 35.8150468 24.7083564 32.9222907 27.5832872 35.8150468C28.0728904 36.3075369 28.8665371 36.3075369 29.3561403 35.8150468L33.4848569 31.6607311 37.6135735 35.8150468C38.1031766 36.3075369 38.8968234 36.3075369 39.3864265 35.8150468L43.5151431 31.6607311 47.6438597 35.8150468C48.1334629 36.3075369 48.9271096 36.3075369 49.4167128 35.8150468L52.2916436 32.9222907 55.1665744 35.8150468 75.2271469 56 77 54.2161548 57.825854 34.9231242 59.8143583 32.9222907zM20.9469991 33.139279L18.0720683 30.2465229C17.5824651 29.7540328 16.7888183 29.7540328 16.2992152 30.2465229L13.4242844 33.139279 11.4357801 31.1384455 17.1856417 25.3529333 22.9355033 31.1384455 20.9469991 33.139279zM48.5302863 33.139279L44.4015697 28.9849633C43.9119665 28.4924732 43.1183197 28.4924732 42.6287166 28.9849633L38.5 33.139279 34.3712834 28.9849633C33.8816803 28.4924732 33.0880335 28.4924732 32.5984303 28.9849633L28.4697137 33.139279 26.4812095 31.1384455 38.5 19.0451354 50.5187905 31.1384455 48.5302863 33.139279zM54.0644967 31.1384455L59.8143583 25.3529333 65.5642199 31.1384455 63.5757156 33.139279 60.7007848 30.2465229C60.2111817 29.7540328 59.4175349 29.7540328 58.9279317 30.2465229L56.0530009 33.139279 54.0644967 31.1384455zM57.0285583 15.9987449L69.5915781 15.9987449C73.0607602 16.066681 75.9293346 13.3681014 75.9987182 9.9712987 76.0681018 6.57449601 73.3120206 3.76577031 69.8428385 3.69783426 68.2423209.976466086 65.0583484-.455244646 61.9071814.129472563 58.7560144.714189772 56.3278059 3.18727307 55.8551723 6.29332641 53.3772632 6.87437488 51.7356577 9.17928474 52.03519 11.6568042 52.3347223 14.1343237 54.4805807 16.0002365 57.0285583 15.9987449zM57.0285583 8.61819853C57.7223947 8.61819853 58.2848603 8.067468 58.2848603 7.38810746 58.287022 5.05609775 59.9607922 3.04587125 62.2932249 2.57399336 64.6256577 2.10211546 66.9760419 3.29820936 67.9219528 5.43841312 68.1411457 5.92279791 68.6489399 6.21875017 69.1883052 6.17646776 69.3189606 6.16908721 69.4659479 6.15801639 69.5915781 6.15801639 71.6730874 6.15801639 73.360484 7.81020798 73.360484 9.8482896 73.360484 11.8863712 71.6730874 13.5385628 69.5915781 13.5385628L57.0285583 13.5385628C55.6408855 13.5385628 54.5159543 12.4371017 54.5159543 11.0783807 54.5159543 9.71965959 55.6408855 8.61819853 57.0285583 8.61819853zM7.4084219 15.9987449L19.9714417 15.9987449C22.5194193 16.0002365 24.6652777 14.1343237 24.96481 11.6568042 25.2643423 9.17928474 23.6227368 6.87437488 21.1448277 6.29332641 20.6721941 3.18727307 18.2439856.714189772 15.0928186.129472563 11.9416516-.455244646 8.75767914.976466086 7.1571615 3.69783426 3.68797938 3.76577031.931898161 6.57449601 1.0012818 9.9712987 1.07066545 13.3681014 3.93923978 16.066681 7.4084219 15.9987449zM7.4084219 6.15801639C7.5340521 6.15801639 7.68103943 6.16908721 7.92350571 6.18261821 8.42417194 6.18383569 8.87778167 5.89386018 9.07804723 5.44456357 10.0234828 3.30540715 12.3721205 2.10928182 14.7037077 2.57950061 17.0352949 3.04971941 18.7100139 5.05724822 18.7151397 7.38810746 18.7151397 8.067468 19.2776053 8.61819853 19.9714417 8.61819853 21.3591145 8.61819853 22.4840457 9.71965959 22.4840457 11.0783807 22.4840457 12.4371017 21.3591145 13.5385628 19.9714417 13.5385628L7.4084219 13.5385628C5.32691263 13.5385628 3.63951596 11.8863712 3.63951596 9.8482896 3.63951596 7.81020798 5.32691263 6.15801639 7.4084219 6.15801639z"/>
    <path d="M71.9081059,71.4183561 C73.6634001,67.6523972 72.6283757,63.1487386 69.4150865,60.5705841 C70.9362116,57.8911878 70.3501185,54.4845048 68.0254632,52.4933592 C65.7008079,50.5022136 62.3096109,50.5022136 59.9849556,52.4933592 C57.6603003,54.4845048 57.0742072,57.8911878 58.5953324,60.5705841 C58.3402054,60.7750651 58.0964438,60.9938812 57.8651802,61.2260155 C57.4587347,60.8127312 57.0131314,60.4415464 56.5349031,60.1179029 C57.1427633,58.030187 56.3839268,55.7791404 54.6458285,54.5140672 C52.9077302,53.248994 50.5738284,53.248994 48.8357302,54.5140672 C47.0976319,55.7791404 46.3387954,58.030187 46.9466556,60.1179029 C46.3648216,60.5060263 45.8308758,60.9641233 45.3563242,61.4823223 C45.0597157,61.1541387 44.7391479,60.8493532 44.3973745,60.5705841 C45.9178179,57.8911555 45.3313522,54.4849697 43.0068076,52.4941878 C40.6822629,50.5034059 37.2914816,50.5034059 34.966937,52.4941878 C32.6423923,54.4849697 32.0559266,57.8911555 33.5763701,60.5705841 C33.2811016,60.81039 33.0012967,61.069359 32.7386956,61.3458803 C32.2994066,60.8831505 31.811346,60.4713274 31.2833924,60.1179029 C31.8923039,58.0299336 31.1338927,55.7780063 29.3955383,54.5123553 C27.6571838,53.2467043 25.3226036,53.2467043 23.5842492,54.5123553 C21.8458948,55.7780063 21.0874835,58.0299336 21.6963951,60.1179029 C21.1680698,60.4713819 20.6792296,60.8827278 20.2385914,61.3446052 C19.976697,61.0682017 19.6972877,60.8096383 19.4021671,60.5705841 C20.9232923,57.8911878 20.3371992,54.4845048 18.0125439,52.4933592 C15.6878886,50.5022136 12.2966915,50.5022136 9.97203626,52.4933592 C7.64738097,54.4845048 7.06128784,57.8911878 8.582413,60.5705841 C5.36912373,63.1487386 4.33409939,67.6523972 6.08939362,71.4183561 C4.90873901,72.2635669 3.86613835,73.2933638 3,74.46981 L5.00041675,76 C5.91596976,74.7574739 7.0706188,73.7186835 8.39362367,72.9472709 C8.69570116,72.770932 8.91203376,72.4741452 8.99057496,72.128313 C9.06911617,71.7824808 9.00275605,71.4189097 8.80745989,71.1250697 C8.11255316,70.0802763 7.74183676,68.8464565 7.74348823,67.5839549 C7.74439744,65.2635351 8.98127789,63.126828 10.972911,62.0051372 C11.3114091,61.814618 11.5444448,61.4750953 11.604115,61.085501 C11.6637853,60.6959066 11.5433767,60.3000729 11.2779746,60.0133399 C9.86635976,58.5007696 9.90486378,56.1131011 11.3644859,54.6486955 C12.824108,53.1842899 15.1654731,53.1842899 16.6250953,54.6486955 C18.0847174,56.1131011 18.1232214,58.5007696 16.7116066,60.0133399 C16.4462044,60.3000729 16.3257959,60.6959066 16.3854661,61.085501 C16.4451364,61.4750953 16.6781721,61.814618 17.0166701,62.0051372 C19.0083033,63.126828 20.2451837,65.2635351 20.2460929,67.5839549 C20.2487357,68.8468309 19.8793684,70.0813981 19.1858721,71.12762 C18.9904728,71.4212999 18.9239202,71.7847505 19.00222,72.1305642 C19.0805197,72.4763779 19.2965867,72.7732633 19.598458,72.9498212 C20.920181,73.7209749 22.0739042,74.75883 22.9891644,76 L24.9895812,74.46981 C24.1229562,73.2956183 23.0803794,72.2679966 21.9001875,71.4247319 C23.0844478,68.8942581 23.0269707,65.9419006 21.7451552,63.461368 C22.3193473,62.7681189 23.0326077,62.2084975 23.836841,61.8202392 C24.163178,61.6637952 24.4073982,61.3712666 24.5068075,61.0177492 C24.6062168,60.6642317 24.5511338,60.2841534 24.3556991,59.9750851 C24.1114286,59.5813003 23.9841952,59.1237938 23.9893728,58.6578466 C23.9893728,57.2493455 25.1088941,56.1075299 26.4898937,56.1075299 C27.8708933,56.1075299 28.9904147,57.2493455 28.9904147,58.6578466 C28.9951327,59.1213756 28.8688206,59.5764774 28.6265889,59.9687093 C28.4311542,60.2777776 28.3760712,60.6578559 28.4754805,61.0113734 C28.5748897,61.3648908 28.81911,61.6574194 29.145447,61.8138634 C29.9509456,62.2023686 30.6654655,62.7624096 31.2408835,63.4562674 C29.9590908,65.9363528 29.901612,68.8883224 31.0858512,71.4183561 C29.9027058,72.2627123 28.8579207,73.2925828 27.9902063,74.46981 L29.990623,76 C30.9070319,74.7578054 32.0620144,73.7190977 33.3850802,72.9472709 C33.6871577,72.770932 33.9034903,72.4741452 33.9820315,72.128313 C34.0605727,71.7824808 33.9942126,71.4189097 33.7989164,71.1250697 C33.1062212,70.0795516 32.7376997,68.8457881 32.7411961,67.5839549 C32.7421053,65.2635351 33.9789857,63.126828 35.9706189,62.0051372 C36.3091169,61.814618 36.5421526,61.4750953 36.6018229,61.085501 C36.6614931,60.6959066 36.5410846,60.3000729 36.2756824,60.0133399 C34.8640676,58.5007696 34.9025716,56.1131011 36.3621938,54.6486955 C37.8218159,53.1842899 40.163181,53.1842899 41.6228031,54.6486955 C43.0824252,56.1131011 43.1209293,58.5007696 41.7093144,60.0133399 C41.4439123,60.3000729 41.3235037,60.6959066 41.383174,61.085501 C41.4428442,61.4750953 41.6758799,61.814618 42.014378,62.0051372 C44.0060111,63.126828 45.2428916,65.2635351 45.2438008,67.5839549 C45.2473706,68.8469708 44.8779219,70.08181 44.1835799,71.12762 C43.9881806,71.4212999 43.9216281,71.7847505 43.9999278,72.1305642 C44.0782276,72.4763779 44.2942945,72.7732633 44.5961659,72.9498212 C45.9173392,73.7202559 47.0699659,74.7582729 47.9831215,76 L49.9835382,74.46981 C49.1174854,73.2942993 48.0743475,72.2661102 46.8928944,71.4234567 C48.0446534,68.9592334 48.0248392,66.0924088 46.8391332,63.6449908 C47.4395102,62.8660763 48.2101937,62.2411816 49.089602,61.8202392 C49.415939,61.6637952 49.6601592,61.3712666 49.7595685,61.0177492 C49.8589778,60.6642317 49.8038948,60.2841534 49.6084601,59.9750851 C49.3650688,59.5810254 49.2387093,59.1235383 49.2446343,58.6578466 C49.2446343,57.2493455 50.3641557,56.1075299 51.7451552,56.1075299 C53.1261548,56.1075299 54.2456762,57.2493455 54.2456762,58.6578466 C54.2507682,59.1212485 54.1248929,59.5763407 53.8831006,59.9687093 C53.6875853,60.2776138 53.6323184,60.657558 53.7314812,61.0110507 C53.8306439,61.3645434 54.0745842,61.657177 54.4007085,61.8138634 C55.1395983,62.1728199 55.8015978,62.6772568 56.3486143,63.2981478 C54.9855279,65.8058542 54.8956309,68.83106 56.107314,71.4183561 C54.9239911,72.2629379 53.8788262,73.2927669 53.0104188,74.46981 L55.0108356,76 C55.9263886,74.7574739 57.0810376,73.7186835 58.4040425,72.9472709 C58.70612,72.770932 58.9224526,72.4741452 59.0009938,72.128313 C59.079535,71.7824808 59.0131749,71.4189097 58.8178787,71.1250697 C58.122972,70.0802763 57.7522556,68.8464565 57.7539071,67.5839549 C57.7548163,65.2635351 58.9916967,63.126828 60.9833299,62.0051372 C61.3218279,61.814618 61.5548636,61.4750953 61.6145339,61.085501 C61.6742041,60.6959066 61.5537956,60.3000729 61.2883934,60.0133399 C59.8767786,58.5007696 59.9152826,56.1131011 61.3749047,54.6486955 C62.8345269,53.1842899 65.175892,53.1842899 66.6355141,54.6486955 C68.0951362,56.1131011 68.1336402,58.5007696 66.7220254,60.0133399 C66.4566233,60.3000729 66.3362147,60.6959066 66.395885,61.085501 C66.4555552,61.4750953 66.6885909,61.814618 67.027089,62.0051372 C69.0187221,63.126828 70.2556026,65.2635351 70.2565118,67.5839549 C70.2591545,68.8468309 69.8897872,70.0813981 69.1962909,71.12762 C69.0008916,71.4212999 68.9343391,71.7847505 69.0126388,72.1305642 C69.0909386,72.4763779 69.3070055,72.7732633 69.6088768,72.9498212 C70.9305999,73.7209749 72.084323,74.75883 72.9995832,76 L75,74.46981 C74.133121,73.2931508 73.0896632,72.2633409 71.9081059,71.4183561 L71.9081059,71.4183561 Z"/>
    <polygon points="62.451 66.753 60.802 65.091 59 66.909 62.451 70.389 62.451 75 65 75 65 57 62.451 57"/>
    <polygon points="37.451 66.753 35.802 65.091 34 66.909 37.451 70.389 37.451 75 40 75 40 57 37.451 57"/>
    <polygon points="12.451 66.753 10.802 65.091 9 66.909 12.451 70.389 12.451 75 15 75 15 57 12.451 57"/>
    <rect width="3" height="13" x="24" y="62"/>
    <rect width="3" height="13" x="50" y="62"/>
  </g>
</svg>
