<svg xmlns="http://www.w3.org/2000/svg" width="71" height="76" viewBox="0 0 71 76">
  <g fill="#FFF">
    <path d="M71,76 L71,38 C71,37.5093174 70.7165992,37.0626975 70.27225,36.8536667 L53.6696607,29.0484667 C54.1752581,28.874929 54.5155744,28.4007631 54.5178571,27.8666667 L54.5178571,22.8 C54.5178571,22.1004393 53.9502182,21.5333333 53.25,21.5333333 L49.815375,21.5333333 L36.7678571,13.2379333 L36.7678571,5.06666667 L40.5714286,5.06666667 L40.5714286,2.53333333 L36.7678571,2.53333333 L36.7678571,0 L34.2321429,0 L34.2321429,2.53333333 L30.4285714,2.53333333 L30.4285714,5.06666667 L34.2321429,5.06666667 L34.2321429,13.2379333 L21.184625,21.5333333 L17.75,21.5333333 C17.0497818,21.5333333 16.4821429,22.1004393 16.4821429,22.8 L16.4821429,27.8666667 C16.4844256,28.4007631 16.8247419,28.874929 17.3303393,29.0484667 L0.72775,36.86 C0.285467702,37.0680518 0.0023115213,37.5116081 0,38 L0,76 L71,76 Z M34.2321429,73.4666667 L30.4285714,73.4666667 L30.4285714,63.3333333 C30.4285714,62.0666667 32.0488929,60.2528 34.2321429,59.7081333 L34.2321429,73.4666667 Z M36.7678571,73.4666667 L36.7678571,59.7081333 C38.9511071,60.2528 40.5714286,62.0692 40.5714286,63.3333333 L40.5714286,73.4666667 L36.7678571,73.4666667 Z M45.6428571,73.4666667 L43.1071429,73.4666667 L43.1071429,63.3333333 C43.1071429,60.4643333 39.7130893,57 35.5,57 C31.2869107,57 27.8928571,60.4643333 27.8928571,63.3333333 L27.8928571,73.4666667 L25.3571429,73.4666667 L25.3571429,49.4 L45.6428571,49.4 L45.6428571,73.4666667 Z M24.0892857,28.5836 L35.5,21.7436 L46.9107143,28.5836 L46.9107143,41.8 L24.0892857,41.8 L24.0892857,28.5836 Z M49.4464286,44.3333333 L49.4464286,46.8666667 L21.5535714,46.8666667 L21.5535714,44.3333333 L49.4464286,44.3333333 Z M68.4642857,73.4666667 L48.1785714,73.4666667 L48.1785714,70.9333333 L68.4642857,70.9333333 L68.4642857,73.4666667 Z M48.1785714,68.4 L48.1785714,49.4 L51.9821429,49.4 L51.9821429,41.8 L49.4464286,41.8 L49.4464286,36.1962667 L68.4642857,45.1376667 L68.4642857,68.4 L48.1785714,68.4 Z M68.4642857,42.3370667 L49.4464286,33.3956667 L49.4464286,29.8629333 L68.4642857,38.8043333 L68.4642857,42.3370667 Z M19.0178571,24.0666667 L21.5535714,24.0666667 C21.7947088,24.0668248 22.0308908,23.9982777 22.2344107,23.8690667 L35.5,15.4356 L48.7655893,23.8690667 C48.9691092,23.9982777 49.2052912,24.0668248 49.4464286,24.0666667 L51.9821429,24.0666667 L51.9821429,26.6 L48.5297679,26.6 L36.1529464,19.1811333 C35.7511213,18.9399434 35.2488787,18.9399434 34.8470536,19.1811333 L22.4702321,26.6 L19.0178571,26.6 L19.0178571,24.0666667 Z M2.53571429,38.8043333 L21.5535714,29.8629333 L21.5535714,33.3956667 L2.53571429,42.3370667 L2.53571429,38.8043333 Z M2.53571429,45.1376667 L21.5535714,36.1962667 L21.5535714,41.8 L19.0178571,41.8 L19.0178571,49.4 L22.8214286,49.4 L22.8214286,68.4 L2.53571429,68.4 L2.53571429,45.1376667 Z M2.53571429,73.4666667 L2.53571429,70.9333333 L22.8214286,70.9333333 L22.8214286,73.4666667 L2.53571429,73.4666667 Z"/>
    <path d="M11.5 47C7.9119309 47.0042507 5.00429795 49.8799317 5 53.4285714L5 63.7142857C5 64.4243661 5.58202983 65 6.3 65L16.7 65C17.4179702 65 18 64.4243661 18 63.7142857L18 53.4285714C17.995702 49.8799317 15.0880691 47.0042507 11.5 47L11.5 47zM13.9622 50.4611429L11.5 52.8962857 9.0378 50.4611429C10.4601585 49.2748923 12.5398415 49.2748923 13.9622 50.4611429L13.9622 50.4611429zM7.6 53.4285714C7.60282195 53.1989624 7.62631476 52.9700582 7.6702 52.7445714L10.2 55.2465714 10.2 62.4285714 7.6 62.4285714 7.6 53.4285714zM15.4 62.4285714L12.8 62.4285714 12.8 55.2465714 15.3298 52.7445714C15.3736852 52.9700582 15.397178 53.1989624 15.4 53.4285714L15.4 62.4285714zM59.5 47C55.9119309 47.0042507 53.004298 49.8799317 53 53.4285714L53 63.7142857C53 64.4243661 53.5820298 65 54.3 65L64.7 65C65.4179702 65 66 64.4243661 66 63.7142857L66 53.4285714C65.995702 49.8799317 63.0880691 47.0042507 59.5 47L59.5 47zM61.9622 50.4611429L59.5 52.8962857 57.0378 50.4611429C58.4601585 49.2748923 60.5398415 49.2748923 61.9622 50.4611429L61.9622 50.4611429zM55.6 53.4285714C55.602822 53.1989624 55.6263148 52.9700582 55.6702 52.7445714L58.2 55.2465714 58.2 62.4285714 55.6 62.4285714 55.6 53.4285714zM63.4 62.4285714L60.8 62.4285714 60.8 55.2465714 63.3298 52.7445714C63.3736852 52.9700582 63.397178 53.1989624 63.4 53.4285714L63.4 62.4285714zM35.5 26C31.9101491 26 29 28.9101491 29 32.5 29 36.0898509 31.9101491 39 35.5 39 39.0898509 39 42 36.0898509 42 32.5 41.995702 28.9119309 39.0880691 26.004298 35.5 26L35.5 26zM39.1608 31.2L36.8 31.2 36.8 28.8392C37.9010155 29.2324899 38.7675101 30.0989845 39.1608 31.2zM34.2 28.8392L34.2 31.2 31.8392 31.2C32.2324899 30.0989845 33.0989845 29.2324899 34.2 28.8392L34.2 28.8392zM31.8392 33.8L34.2 33.8 34.2 36.1608C33.0989845 35.7675101 32.2324899 34.9010155 31.8392 33.8L31.8392 33.8zM36.8 36.1608L36.8 33.8 39.1608 33.8C38.7675101 34.9010155 37.9010155 35.7675101 36.8 36.1608L36.8 36.1608z"/>
    <rect width="3" height="3" x="28" y="52"/>
    <rect width="3" height="3" x="34" y="52"/>
    <rect width="3" height="3" x="40" y="52"/>
    <rect width="3" height="3" x="26" y="37"/>
    <rect width="3" height="3" x="42" y="37"/>
  </g>
</svg>
