<svg xmlns="http://www.w3.org/2000/svg" width="88" height="70"><path d="M69.7 70c5.1 0 9.4-1.8 13-5.3a17 17 0 00.7-24 14.3 14.3 0 00-10.7-4.9c-3.5 0-6.3.8-8.6 2.4-.7.5-1.2.8-1.5.8-.4 0-.7-.2-1-.6-.4-.7-.6-1.7-.6-3 0-6.1 2-12 6.2-17.7C71.4 12 77.1 7.7 84.4 5V0a59.8 59.8 0 00-27.6 18C50.9 25.5 48 34 48 43.4a28 28 0 006.4 19.4c4.3 4.8 9.4 7.2 15.3 7.2zm-48 0c5.1 0 9.4-1.8 13-5.3a17 17 0 00.7-24 14.3 14.3 0 00-10.7-4.9c-3.5 0-6.3.8-8.6 2.4-.7.5-1.2.8-1.5.8-.4 0-.7-.2-1-.6-.4-.7-.6-1.7-.6-3 0-6.1 2-12 6.2-17.7C23.4 12 29.1 7.7 36.4 5V0A59.8 59.8 0 008.8 18C2.9 25.5 0 34 0 43.4a28 28 0 006.4 19.4c4.3 4.8 9.4 7.2 15.3 7.2z"/></svg>