<svg xmlns="http://www.w3.org/2000/svg" xmlns:xlink="http://www.w3.org/1999/xlink"><symbol id="interface-angle-double-down" viewBox="0 0 24 24"><path fill-rule="evenodd" d="M11.29 11.46a1 1 0 001.42 0l3-3A1.018 1.018 0 1014.29 7L12 9.34 9.71 7a1.018 1.018 0 00-1.42 1.46l3 3zm3 1.08L12 14.84l-2.29-2.3A1.018 1.018 0 108.29 14l3 3a1 1 0 001.42 0l3-3a1.004 1.004 0 10-1.42-1.42v-.04z"/></symbol><symbol id="interface-angle-double-left" viewBox="0 0 24 24"><path fill-rule="evenodd" d="M11.46 8.29a1 1 0 00-1.42 0l-3 3a1 1 0 000 1.42l3 3a1 1 0 001.42 0 1 1 0 000-1.42L9.16 12l2.3-2.29a1 1 0 000-1.42zm3.2 3.71L17 9.71a1.004 1.004 0 10-1.42-1.42l-3 3a1 1 0 000 1.42l3 3a1 1 0 001.42 0 1 1 0 000-1.42L14.66 12z"/></symbol><symbol id="interface-angle-double-right" viewBox="0 0 24 24"><path fill-rule="evenodd" d="M8.46 8.29A1.018 1.018 0 007 9.71L9.34 12 7 14.29a1 1 0 000 1.42 1 1 0 001.42 0l3-3a1 1 0 000-1.42l-2.96-3zm8.5 3l-3-3a1.004 1.004 0 00-1.42 1.42l2.3 2.29-2.3 2.29a1 1 0 000 1.42 1 1 0 001.42 0l3-3a1 1 0 00.04-1.42h-.04z"/></symbol><symbol id="interface-angle-double-up" viewBox="0 0 24 24"><path fill-rule="evenodd" d="M12.71 12.54a1 1 0 00-1.42 0l-3 3A1.018 1.018 0 009.71 17L12 14.66 14.29 17a1 1 0 001.42 0 1 1 0 000-1.42l-3-3.04zm-3-1.08L12 9.16l2.29 2.3a1 1 0 001.42 0 1 1 0 000-1.42l-3-3a1 1 0 00-1.42 0l-3 3a1.004 1.004 0 001.42 1.42z"/></symbol><symbol id="interface-angle-down" viewBox="0 0 24 24"><path fill-rule="evenodd" d="M17 9.17a1 1 0 00-1.41 0L12 12.71 8.46 9.17a1 1 0 10-1.41 1.42l4.24 4.24a1 1 0 001.42 0L17 10.59a1 1 0 000-1.42z"/></symbol><symbol id="interface-angle-left" viewBox="0 0 24 24"><path fill-rule="evenodd" d="M11.29 12l3.54-3.54a1 1 0 10-1.42-1.41l-4.24 4.24a1 1 0 000 1.42L13.41 17a1 1 0 00.71.29 1 1 0 00.71-.29 1 1 0 000-1.41L11.29 12z"/></symbol><symbol id="interface-angle-right-b" viewBox="0 0 24 24"><path fill-rule="evenodd" d="M15.54 11.29L9.88 5.64a1 1 0 10-1.42 1.41l4.95 5L8.46 17a1 1 0 000 1.41 1 1 0 00.71.3 1 1 0 00.71-.3l5.66-5.65a1 1 0 000-1.47z"/></symbol><symbol id="interface-angle-right-narrow" viewBox="0 0 8 24"><path fill-rule="evenodd" d="M7.034 11.71L2.38 7.056a1.12 1.12 0 00-.779-.329c-.297 0-.582.11-.78.318a1.094 1.094 0 000 1.548l3.886 3.886-3.886 3.886a1.094 1.094 0 000 1.548c.198.197.483.318.78.318.285 0 .57-.121.779-.329l4.654-4.655a1.15 1.15 0 00.318-.779c0-.296-.12-.582-.329-.779z"/></symbol><symbol id="interface-angle-right" viewBox="0 0 24 24"><path fill-rule="evenodd" d="M14.83 11.29l-4.24-4.24a1 1 0 10-1.42 1.41L12.71 12l-3.54 3.54a1 1 0 000 1.41 1 1 0 00.71.29 1 1 0 00.71-.29l4.24-4.24a1 1 0 000-1.42z"/></symbol><symbol id="interface-angle-up" viewBox="0 0 24 24"><path fill-rule="evenodd" d="M17 13.41l-4.29-4.24a1 1 0 00-1.42 0l-4.24 4.24a1 1 0 101.41 1.42L12 11.29l3.54 3.54a1 1 0 001.41 0 1 1 0 00.05-1.42z"/></symbol><symbol fill-rule="evenodd" clip-rule="evenodd" stroke-linejoin="round" stroke-miterlimit="2" id="interface-doc" viewBox="0 0 24 25"><path d="M12.006 5.502H2.925a.5.5 0 000 1h9.081a.5.5 0 000-1zM7.023 2.531H2.925a.5.5 0 000 1h4.098a.5.5 0 000-1zm14.861 6.948H8.967c-.855 0-1.549.693-1.549 1.549v6.94c0 .856.694 1.549 1.549 1.549h12.917c.856 0 1.549-.693 1.549-1.549v-6.939c0-.857-.693-1.55-1.549-1.55zm0 1a.55.55 0 01.549.549v6.94a.55.55 0 01-.549.549H8.967a.55.55 0 01-.549-.549v-6.94a.55.55 0 01.549-.549h12.917zm-7.589-7.008h3.64a.5.5 0 010 1h-4.139a.5.5 0 01-.5-.499l-.004-3.97a.5.5 0 011-.002l.003 3.471z" transform="translate(.543 1)"/><path d="M17.435 3.975l-.089-.092L14.001.586A.299.299 0 0013.792.5H.798A.298.298 0 00.5.798v21.347c0 .164.133.298.298.298h16.338a.299.299 0 00.299-.298v-1.11a.5.5 0 011 0v1.11c0 .716-.58 1.298-1.299 1.298H.798A1.298 1.298 0 01-.5 22.145V.798C-.5.082.081-.5.798-.5h12.994c.342 0 .669.135.911.374l3.345 3.297c.268.264.387.424.387.801v3.902a.5.5 0 01-1 0V3.975z" transform="translate(.543 1)"/><path d="M11.953 16.472a.46.46 0 01-.084.007h-.981a.5.5 0 01-.5-.5v-3.022a.5.5 0 01.5-.5h.981c1.018 0 1.869.886 1.869 2.008 0 1.092-.804 1.96-1.785 2.007zm5.879-2.004c0-1.123-.851-2.011-1.869-2.011s-1.868.888-1.868 2.011c0 1.124.85 2.011 1.868 2.011 1.018 0 1.869-.887 1.869-2.011zm3.55-1.443a1.875 1.875 0 00-1.341-.568c-1.055 0-1.925.891-1.925 2.008 0 1.118.87 2.009 1.925 2.009a1.88 1.88 0 001.382-.609.5.5 0 00-.732-.682.888.888 0 01-.65.291c-.519 0-.925-.459-.925-1.009 0-.549.406-1.008.925-1.008.245 0 .466.105.63.27a.5.5 0 10.711-.702zm-9.994.432v2.022h.411a.536.536 0 01.07-.005c.494 0 .869-.464.869-1.009 0-.544-.375-1.008-.869-1.008h-.481zm5.444 1.011c0 .546-.375 1.011-.869 1.011s-.868-.465-.868-1.011c0-.545.374-1.011.868-1.011s.869.465.869 1.011z" transform="translate(.543 1)"/></symbol><symbol id="interface-envelope" viewBox="0 0 24 24"><path fill-rule="evenodd" d="M19 4H5a3 3 0 00-3 3v10a3 3 0 003 3h14a3 3 0 003-3V7a3 3 0 00-3-3zm-.41 2l-5.88 5.88a1 1 0 01-1.42 0L5.41 6h13.18zM20 17a1 1 0 01-1 1H5a1 1 0 01-1-1V7.41l5.88 5.88a3 3 0 004.24 0L20 7.41V17z"/></symbol><symbol id="interface-exclamation-triangle" viewBox="0 0 24 24"><path fill-rule="evenodd" d="M12 16c-.56 0-1 .44-1 1 0 .55.44 1 1 1 .55 0 1-.45 1-1 0-.56-.45-1-1-1zm10.67 1.47l-8.05-14A3.01 3.01 0 0012 1.93c-1.09 0-2.1.58-2.62 1.53l-8 14c-.55.92-.56 2.07-.04 3 .52.93 1.51 1.51 2.59 1.52h16.12c1.08.01 2.08-.57 2.62-1.51.54-.94.53-2.1-.02-3.03zm-1.73 2c-.18.31-.52.51-.88.51H3.94c-.37 0-.71-.2-.88-.52a.993.993 0 010-1l8-14c.17-.34.51-.55.89-.55.37 0 .71.21.89.54l8.05 14c.2.3.22.69.05 1.02v-.02zM12 8a.99.99 0 00-1 1v4c0 .55.44 1 1 1 .55 0 1-.45 1-1V9c0-.56-.45-1-1-1z"/></symbol><symbol id="interface-external" viewBox="0 0 17 17"><path fill-rule="evenodd" d="M16.4 0a.6.6 0 01.6.6v6a.6.6 0 01-1 .5.6.6 0 01-.1-.4V1.9l-7 7a.6.6 0 01-1-.4c0-.1 0-.3.2-.4l7-7h-4.8a.6.6 0 01-.4-1l.4-.1h6.1zM4.8 2.4a.6.6 0 01.4 1l-.4.2h-3a.7.7 0 00-.7.6v11a.7.7 0 00.7.7h11a.7.7 0 00.6-.7v-3a.6.6 0 011-.4l.2.4v3a1.8 1.8 0 01-1.8 1.8h-11A1.8 1.8 0 010 15.2v-11a1.8 1.8 0 011.8-1.8h3z"/></symbol><symbol fill-rule="evenodd" clip-rule="evenodd" stroke-linejoin="round" stroke-miterlimit="2" id="interface-globe" viewBox="0 0 22 22"><path d="M20.5 10C20.5 4.202 15.799-.5 10-.5S-.5 4.202-.5 10 4.201 20.5 10 20.5 20.5 15.798 20.5 10zm-1 0a9.5 9.5 0 11-19 0 9.5 9.5 0 0119 0z" transform="translate(1 1)"/><path d="M11 .5c.959 0 1.821.658 2.539 1.711C14.737 3.967 15.5 6.804 15.5 10c0 3.196-.763 6.033-1.961 7.789-.718 1.053-1.58 1.711-2.539 1.711a.5.5 0 000 1c1.25 0 2.429-.775 3.366-2.148C15.651 16.468 16.5 13.431 16.5 10s-.849-6.468-2.134-8.352C13.429.275 12.25-.5 11-.5a.5.5 0 000 1zm-1-1c-1.25 0-2.429.775-3.366 2.148C5.349 3.532 4.5 6.569 4.5 10s.849 6.468 2.134 8.352C7.571 19.725 8.75 20.5 10 20.5a.5.5 0 000-1c-.959 0-1.821-.658-2.54-1.711C6.263 16.033 5.5 13.196 5.5 10c0-3.196.763-6.033 1.96-7.789C8.179 1.158 9.041.5 10 .5a.5.5 0 000-1z" transform="translate(.625 1)"/><path d="M9.5 0v20a.5.5 0 001 0V0a.5.5 0 00-1 0z" transform="translate(1 1)"/><path d="M20 9.5H0a.5.5 0 000 1h20a.5.5 0 000-1z" transform="translate(1 1)"/><path d="M19 4.5H1a.5.5 0 000 1h18a.5.5 0 000-1z" transform="matrix(.94259 0 0 1 1.555 1)"/><path d="M19 13.5H2a.5.5 0 000 1h17a.5.5 0 000-1z" transform="matrix(1.01092 0 0 1 .51 1.006)"/></symbol><symbol id="interface-location-point" viewBox="0 0 24 24"><path fill-rule="evenodd" d="M18 4.48a8.485 8.485 0 10-12 12l5.27 5.28a1 1 0 001.42 0L18 16.43a8.45 8.45 0 000-11.95zM16.57 15L12 19.59 7.43 15a6.46 6.46 0 119.14 0zM9 7.41a4.32 4.32 0 000 6.1 4.31 4.31 0 007.36-3 4.24 4.24 0 00-1.26-3.05A4.3 4.3 0 009 7.41zm4.69 4.68a2.33 2.33 0 11.67-1.63 2.33 2.33 0 01-.72 1.63h.05z"/></symbol><symbol id="interface-newsletter" viewBox="0 0 25 22"><path fill-rule="evenodd" d="M24.746 8.675L21.25 6.156V4.278a.604.604 0 00-.183-.433.632.632 0 00-.442-.178h-2.83L12.87.119a.638.638 0 00-.742 0L7.205 3.667h-2.83a.632.632 0 00-.442.178.604.604 0 00-.183.433v1.878L.254 8.675A.607.607 0 000 9.167v12.222c0 .162.066.317.183.432A.632.632 0 00.625 22h23.75a.632.632 0 00.442-.179.604.604 0 00.183-.432V9.167a.607.607 0 00-.254-.492zm-23.496 1.6l6.027 3.722-6.027 5.912v-9.634zm7.11 4.391l3.807 2.35a.636.636 0 00.666 0l3.807-2.35 6.23 6.112H2.13l6.23-6.112zm9.363-.669l6.027-3.722v9.634l-6.027-5.912zm5.545-4.87l-2.018 1.247v-2.7l2.018 1.454zM12.5 1.37l3.187 2.297H9.313L12.5 1.37zM7.41 4.889H20v6.257l-7.5 4.631L5 11.146V4.889h2.41zm-3.66 5.485L1.732 9.128 3.75 7.674v2.7z"/></symbol><symbol fill-rule="evenodd" clip-rule="evenodd" stroke-linecap="round" stroke-linejoin="round" id="interface-page" viewBox="0 0 20 24"><path d="M14 1v4c0 .279.123.5.5.5h5v-1H15V1h-1z"/><path d="M20 22.235V4.826c0-.359-.143-.604-.44-.856L15.857.843C15.589.616 15.406.5 15.029.5H1.38C.598.5 0 1.101 0 1.77v20.465c0 .671.597 1.265 1.38 1.265h17.235c.785 0 1.385-.595 1.385-1.265zm-1 0c0 .167-.19.265-.385.265H1.38c-.194 0-.38-.099-.38-.265V1.77c0-.166.185-.27.38-.27h13.649c.089 0 .12.053.183.107l3.702 3.126c.038.032.086.045.086.093v17.409z"/><path d="M15.5 16.5h-11a.5.5 0 000 1h11a.5.5 0 000-1zm0-3h-11a.5.5 0 000 1h11a.5.5 0 000-1zm0-3h-11a.5.5 0 000 1h11a.5.5 0 000-1zm-5-3h-6a.5.5 0 000 1h6a.5.5 0 000-1z"/></symbol><symbol id="interface-pause-circle" viewBox="0 0 24 24"><path fill-rule="evenodd" d="M10 7a1 1 0 00-1 1v8a1 1 0 102 0V8a1 1 0 00-1-1zm2-5C6.477 2 2 6.477 2 12s4.477 10 10 10 10-4.477 10-10A10 10 0 0012 2zm0 18a8 8 0 110-16 8 8 0 010 16zm2-13a1 1 0 00-1 1v8a1 1 0 102 0V8a1 1 0 00-1-1z"/></symbol><symbol id="interface-pause" viewBox="0 0 36 36"><path d="M10 11h5v15h-5zm10 0h5v15h-5z" fill-rule="evenodd"/></symbol><symbol fill-rule="evenodd" clip-rule="evenodd" stroke-linejoin="round" stroke-miterlimit="2" id="interface-pdf" viewBox="0 0 24 25"><path d="M18.703 13.539v2.357a.5.5 0 01-1 0v-2.857a.5.5 0 01.5-.5h1.85a.5.5 0 010 1h-1.35z" transform="translate(.538 1)"/><path d="M18.203 14.967h1.589a.5.5 0 000-1h-1.589a.5.5 0 000 1z" transform="translate(.538 1)"/><path d="M21.884 9.479H8.967a1.55 1.55 0 00-1.55 1.549v6.94a1.55 1.55 0 001.55 1.549h12.917c.855 0 1.549-.693 1.549-1.549v-6.94c0-.856-.694-1.549-1.549-1.549zm0 1a.55.55 0 01.549.549v6.94a.55.55 0 01-.549.549H8.967a.55.55 0 01-.55-.549v-6.94a.55.55 0 01.55-.549h12.917zm-7.589-7.008h3.64a.5.5 0 010 1h-4.139a.5.5 0 01-.5-.499l-.004-3.97a.5.5 0 011-.002l.003 3.471z" transform="translate(.538 1)"/><path d="M17.435 3.975l-.089-.092L14.001.586A.299.299 0 0013.792.5H.798A.298.298 0 00.5.798v21.347c0 .164.133.298.298.298h16.338a.299.299 0 00.299-.298v-1.11a.5.5 0 011 0v1.11c0 .716-.58 1.298-1.299 1.298H.798A1.298 1.298 0 01-.5 22.145V.798C-.5.082.081-.5.798-.5h12.994c.342 0 .669.135.911.374l3.345 3.297c.268.264.387.424.387.801v3.902a.5.5 0 01-1 0V3.975z" transform="translate(.538 1)"/><path d="M15.37 16.39a.557.557 0 01-.083.007h-.965a.5.5 0 01-.5-.5v-2.859a.5.5 0 01.5-.5h.965c1.011 0 1.845.855 1.845 1.927 0 1.042-.789 1.879-1.762 1.925zm-3.906-1.304v.811a.5.5 0 01-1 0v-2.858a.5.5 0 01.5-.5h1.062l.011-.001c.055 0 .347.001.638.113.392.15.78.467.78 1.126 0 1.259-1.413 1.307-1.413 1.307l-.578.002zm3.358-1.548v1.859h.395a.405.405 0 01.07-.005c.475 0 .845-.423.845-.927s-.37-.927-.845-.927h-.465zm-3.358.548l.572-.001-.081.006s.119.003.262-.04c.1-.029.238-.093.238-.274 0-.153-.126-.194-.213-.215-.143-.035-.262-.027-.262-.027l.057.004h-.573v.547z" transform="translate(.538 1)"/></symbol><symbol id="interface-phone-volume" viewBox="0 0 24 24"><path fill-rule="evenodd" d="M19.41 13c-.22 0-.45-.07-.67-.12a9.86 9.86 0 01-1.31-.39 2 2 0 00-2.48 1l-.22.46a13.17 13.17 0 01-2.67-2 13.17 13.17 0 01-2-2.67l.46-.21a2 2 0 001-2.48 10.47 10.47 0 01-.39-1.32c-.05-.22-.09-.45-.12-.67a3 3 0 00-3-2.49H5a3 3 0 00-2.24 1 3 3 0 00-.73 2.4 19.07 19.07 0 005.41 11 19.07 19.07 0 0011 5.41c.13.01.26.01.39 0a3 3 0 002-.76 3 3 0 001-2.24v-3A3 3 0 0019.41 13zm.49 6a1 1 0 01-.33.74 1 1 0 01-.82.25 17.16 17.16 0 01-9.87-4.84A17.16 17.16 0 014 5.25a1 1 0 01.25-.82A1 1 0 015 4.1h3a1 1 0 011 .78c0 .27.09.55.15.82a11 11 0 00.46 1.54l-1.4.66a1 1 0 00-.52.56 1 1 0 000 .76 14.49 14.49 0 007 7 1 1 0 00.76 0 1 1 0 00.56-.52l.63-1.4a12.41 12.41 0 002.39.61 1 1 0 01.78 1L19.9 19zM14 2h-.7a1.004 1.004 0 00.17 2H14a6 6 0 016 6v.53a1 1 0 00.91 1.08h.08a1 1 0 001-.91V10A8 8 0 0014 2zm2 8a1 1 0 002 0 4 4 0 00-4-4 1 1 0 000 2 2 2 0 012 2z"/></symbol><symbol id="interface-play-circle" viewBox="0 0 110 110"><defs><filter id="a" width="182.6%" height="165.2%" x="-41.3%" y="-24.5%" filterUnits="objectBoundingBox"><feOffset dy="3" in="SourceAlpha" result="shadowOffsetOuter1"/><feGaussianBlur in="shadowOffsetOuter1" result="shadowBlurOuter1" stdDeviation="3.5"/><feColorMatrix in="shadowBlurOuter1" values="0 0 0 0 0 0 0 0 0 0 0 0 0 0 0 0 0 0 0.250956075 0"/></filter><filter id="c" width="125.3%" height="125.3%" x="-12.6%" y="-9.5%" filterUnits="objectBoundingBox"><feOffset dy="3" in="SourceAlpha" result="shadowOffsetOuter1"/><feGaussianBlur in="shadowOffsetOuter1" result="shadowBlurOuter1" stdDeviation="3.5"/><feColorMatrix in="shadowBlurOuter1" values="0 0 0 0 0 0 0 0 0 0 0 0 0 0 0 0 0 0 0.250956075 0"/></filter><path id="b" d="M63.8 45.5L40.7 30.1c-2-1.3-4.6.1-4.6 2.5v30.8c0 2.4 2.7 3.8 4.6 2.5l23.1-15.4c1.8-1.2 1.8-3.8 0-5z"/><path id="d" d="M48 .5C21.8.5.5 21.8.5 48S21.8 95.5 48 95.5 95.5 74.2 95.5 48 74.2.5 48 .5zm0 87.6c-22.1 0-40.1-18-40.1-40.1S25.9 7.9 48 7.9s40.1 18 40.1 40.1-18 40.1-40.1 40.1z"/></defs><g fill="none" transform="translate(7 4)"><use fill="#000" filter="url(#a)" xmlns:xlink="http://www.w3.org/1999/xlink" xlink:href="#b"/><use fill="#FFF" xlink:href="#b"/><use fill="#000" filter="url(#c)" xlink:href="#d"/><use fill="#FFF" xlink:href="#d"/></g></symbol><symbol id="interface-play" viewBox="0 0 36 36"><path d="M25.046 16.913L15 10.216c-.869-.565-2 .043-2 1.087v13.394c0 1.044 1.174 1.652 2 1.087l10.046-6.697a1.3 1.3 0 000-2.174z"/></symbol><symbol id="interface-search" viewBox="0 0 24 24"><path d="M21.71 20.29L18 16.61a9.008 9.008 0 00-1.02-12.34c-3.56-3.19-9-3.05-12.38.33-3.38 3.37-3.53 8.81-.34 12.37 3.18 3.55 8.6 4 12.33 1.01l3.68 3.68c.18.18.44.29.71.29.26 0 .52-.11.71-.3.37-.39.37-1.01 0-1.39zM11 18c-3.87 0-7-3.14-7-7 0-3.87 3.13-7 7-7 3.86 0 7 3.13 7 7 0 1.85-.74 3.63-2.06 4.94a7.036 7.036 0 01-4.95 2.05z"/></symbol><symbol id="interface-times" viewBox="0 0 24 24"><path fill-rule="evenodd" d="M13.41 12l4.3-4.29a1.004 1.004 0 10-1.42-1.42L12 10.59l-4.29-4.3a1.004 1.004 0 00-1.42 1.42l4.3 4.29-4.3 4.29a1 1 0 000 1.42 1 1 0 001.42 0l4.29-4.3 4.29 4.3a1 1 0 001.42 0 1 1 0 000-1.42L13.41 12z"/></symbol><symbol id="social-facebook" viewBox="0 0 24 24"><path fill="currentColor" d="M15.997 3.985h2.191V.169C17.81.117 16.51 0 14.996 0c-3.159 0-5.323 1.987-5.323 5.639V9H6.187v4.266h3.486V24h4.274V13.267h3.345l.531-4.266h-3.877V6.062c.001-1.233.333-2.077 2.051-2.077z"/></symbol><symbol fill="currentColor" id="social-instagram" viewBox="0 0 24 24"><path d="M12.004 5.838a6.157 6.157 0 00-6.158 6.158 6.157 6.157 0 006.158 6.158 6.157 6.157 0 006.158-6.158 6.157 6.157 0 00-6.158-6.158zm0 10.155a3.996 3.996 0 113.997-3.997 3.995 3.995 0 01-3.997 3.997z"/><path d="M16.948.076c-2.208-.103-7.677-.098-9.887 0-1.942.091-3.655.56-5.036 1.941C-.283 4.325.012 7.435.012 11.996c0 4.668-.26 7.706 2.013 9.979 2.317 2.316 5.472 2.013 9.979 2.013 4.624 0 6.22.003 7.855-.63 2.223-.863 3.901-2.85 4.065-6.419.104-2.209.098-7.677 0-9.887-.198-4.213-2.459-6.768-6.976-6.976zm3.495 20.372c-1.513 1.513-3.612 1.378-8.468 1.378-5 0-7.005.074-8.468-1.393-1.685-1.677-1.38-4.37-1.38-8.453 0-5.525-.567-9.504 4.978-9.788 1.274-.045 1.649-.06 4.856-.06l.045.03c5.329 0 9.51-.558 9.761 4.986.057 1.265.07 1.645.07 4.847-.001 4.942.093 6.959-1.394 8.453z"/><circle cx="18.406" cy="5.595" r="1.439"/></symbol><symbol id="social-linkedin" viewBox="0 0 512 512"><path d="M160.008 423h-70V197h70M422 298.664C422 237.996 409.184 193 338.313 193c-34.055 0-56.915 17.031-66.247 34.742H272V197h-68v226h68V310.789c0-29.387 7.48-57.855 43.906-57.855 35.93 0 37.094 33.605 37.094 59.722V423h69M166.992 124.996c0-22.629-18.359-40.996-40.976-40.996C103.313 84 85 102.367 85 124.996 85 147.633 103.313 166 126.016 166c22.617 0 40.976-18.367 40.976-41.004" transform="translate(-122.809 -122.809) scale(1.48445)"/></symbol><symbol id="social-snapchat" viewBox="0 0 511.976 511.976"><path d="M501.94 374.42c-68.448-11.264-99.296-81.376-100.544-84.352-.096-.192-.16-.384-.288-.576-3.488-7.104-4.32-12.96-2.4-17.408 3.744-8.768 18.08-13.312 27.552-16.32 2.752-.864 5.344-1.696 7.488-2.528 9.344-3.68 16-7.68 20.416-12.192 5.248-5.408 6.272-10.592 6.208-13.952-.16-8.192-6.432-15.488-16.448-19.04-3.36-1.376-7.232-2.112-11.136-2.112-2.656 0-6.624.352-10.368 2.112-8 3.744-15.168 5.792-21.344 6.08-3.264-.16-5.568-.864-7.072-1.536.192-3.2.384-6.496.608-9.888l.096-1.472c2.208-34.656 4.928-77.76-6.528-103.36-7.84-17.536-18.368-32.608-31.328-44.832-10.848-10.24-23.456-18.56-37.472-24.704-24.352-10.752-47.072-12.352-58.464-12.352h-1.28c-3.168.032-8.32.096-8.8.096-11.36 0-34.112 1.6-58.528 12.352-13.984 6.144-26.528 14.432-37.344 24.672-12.896 12.224-23.392 27.264-31.2 44.736-11.456 25.568-8.736 68.672-6.56 103.296v.064c.224 3.712.48 7.584.704 11.36-1.664.736-4.384 1.568-8.384 1.568-6.464 0-14.144-2.048-22.816-6.112-2.56-1.184-5.472-1.792-8.672-1.792-5.152 0-10.624 1.504-15.328 4.288-5.952 3.488-9.792 8.384-10.848 13.856-.672 3.584-.64 10.72 7.296 17.952 4.384 3.968 10.784 7.648 19.072 10.912 2.176.864 4.768 1.664 7.488 2.528 9.472 3.008 23.84 7.552 27.584 16.32 1.888 4.448 1.056 10.304-2.432 17.408a4.533 4.533 0 00-.256.576c-.896 2.048-9.056 20.448-25.792 39.872-9.504 11.04-19.968 20.288-31.104 27.456-13.6 8.768-28.288 14.464-43.68 16.992-6.048.992-10.368 6.368-10.016 12.48.096 1.76.512 3.52 1.248 5.216v.032c2.464 5.728 8.128 10.56 17.344 14.816 11.264 5.216 28.096 9.6 50.08 13.024 1.12 2.112 2.272 7.392 3.072 11.008.832 3.84 1.696 7.808 2.944 12 1.344 4.544 4.8 9.984 13.728 9.984 3.392 0 7.264-.768 11.776-1.632 6.592-1.28 15.616-3.04 26.848-3.04 6.24 0 12.704.544 19.2 1.632 12.544 2.08 23.36 9.696 35.872 18.528 18.304 12.928 39.04 27.552 70.72 27.552.864 0 1.728-.032 2.592-.096a62.21 62.21 0 003.68.096c31.68 0 52.416-14.624 70.72-27.52l.032-.032c12.512-8.8 23.328-16.416 35.872-18.496 6.496-1.088 12.96-1.632 19.2-1.632 10.752 0 19.264 1.376 26.848 2.848 4.96.96 8.8 1.44 11.776 1.44h.576c6.528 0 11.328-3.584 13.152-9.824 1.216-4.128 2.08-7.968 2.944-11.904.736-3.392 1.952-8.832 3.04-10.944 21.984-3.456 38.816-7.808 50.08-13.024 9.184-4.256 14.848-9.088 17.312-14.784.736-1.696 1.184-3.456 1.28-5.28.352-6.048-3.968-11.456-10.016-12.416z"/></symbol><symbol id="social-twitter" viewBox="0 0 512 512"><path d="M512 97.248c-19.04 8.352-39.328 13.888-60.48 16.576 21.76-12.992 38.368-33.408 46.176-58.016-20.288 12.096-42.688 20.64-66.56 25.408C411.872 60.704 384.416 48 354.464 48c-58.112 0-104.896 47.168-104.896 104.992 0 8.32.704 16.32 2.432 23.936-87.264-4.256-164.48-46.08-216.352-109.792-9.056 15.712-14.368 33.696-14.368 53.056 0 36.352 18.72 68.576 46.624 87.232-16.864-.32-33.408-5.216-47.424-12.928v1.152c0 51.008 36.384 93.376 84.096 103.136-8.544 2.336-17.856 3.456-27.52 3.456-6.72 0-13.504-.384-19.872-1.792 13.6 41.568 52.192 72.128 98.08 73.12-35.712 27.936-81.056 44.768-130.144 44.768-8.608 0-16.864-.384-25.12-1.44C46.496 446.88 101.6 464 161.024 464c193.152 0 298.752-160 298.752-298.688 0-4.64-.16-9.12-.384-13.568 20.832-14.784 38.336-33.248 52.608-54.496z"/></symbol><symbol id="social-vimeo" viewBox="0 0 512 512"><path d="M509.446 139.85c-28.631 161.125-188.45 297.643-236.516 328.833-48.118 31.191-91.952-12.486-107.834-45.558-18.234-37.669-72.831-241.687-87.094-258.563-14.263-16.875-57.208 16.876-57.208 16.876L0 154.166S87.093 50.197 153.34 37.136c70.271-13.793 70.166 107.939 87.094 175.492 16.352 65.359 27.324 102.663 41.587 102.663 14.315 0 41.587-36.415 71.472-92.266 29.884-55.902-1.306-105.327-59.821-70.166C317.078 12.476 538.076-21.275 509.446 139.85z"/></symbol><symbol id="social-youtube" viewBox="0 0 36 36"><path d="M14.044 23.448l-.002-9.896 9.895 4.966-9.893 4.93zm21.411-12.262s-.348-2.52-1.415-3.63c-1.356-1.458-2.874-1.464-3.57-1.55-4.985-.37-12.462-.37-12.462-.37h-.016s-7.477 0-12.462.37c-.696.086-2.214.092-3.57 1.55-1.067 1.11-1.415 3.63-1.415 3.63s-.356 2.96-.356 5.921v2.774c0 2.961.356 5.92.356 5.92s.348 2.521 1.415 3.631c1.356 1.457 3.137 1.411 3.928 1.563 2.85.282 12.112.369 12.112.369s7.485-.012 12.47-.382c.696-.085 2.214-.093 3.57-1.55 1.067-1.11 1.415-3.631 1.415-3.631s.356-2.959.356-5.92v-2.774c0-2.961-.356-5.921-.356-5.921z" fill-rule="evenodd"/></symbol></svg>